<?xml version="1.0" encoding="utf-8"?>
<!-- Generator: Adobe Illustrator 16.0.0, SVG Export Plug-In . SVG Version: 6.00 Build 0)  -->
<!DOCTYPE svg PUBLIC "-//W3C//DTD SVG 1.0//EN" "http://www.w3.org/TR/2001/REC-SVG-20010904/DTD/svg10.dtd">
<svg version="1.0" id="图层_1" xmlns="http://www.w3.org/2000/svg" xmlns:xlink="http://www.w3.org/1999/xlink" x="0px" y="0px"
	 width="174px" height="136px" viewBox="0 0 174 136" enable-background="new 0 0 174 136" xml:space="preserve">
<g>
	<g>
		<g>
			<rect x="81.833" y="15.012" fill="#FFFFFF" width="6.947" height="3.502"/>
			<path fill="#FFFFFF" d="M94.004,1.118h-3.473v3.474H80.084V1.118H76.61v3.474h-6.946v3.473h6.946v12.168h-6.946v3.474h6.946
				l-6.946,6.978v8.696l10.42-15.673h10.447l10.422,15.673v-8.696l-6.949-6.978h6.949v-3.474h-6.949V8.064h6.949V4.592h-6.949V1.118
				L94.004,1.118z M90.529,20.234H80.083V8.066h10.446V20.234z"/>
			<polygon fill="#FFFFFF" points="87.058,35.883 87.058,32.409 94.234,32.409 91.902,28.934 87.058,28.934 87.058,25.459 
				83.559,25.459 83.559,28.934 78.714,28.934 76.38,32.409 83.559,32.409 83.559,35.883 74.076,35.883 71.74,39.381 98.873,39.381 
				96.541,35.883 			"/>
			<rect x="81.833" y="9.816" fill="#FFFFFF" width="6.947" height="3.472"/>
			<polygon fill="#FFFFFF" points="160.078,1.118 156.607,1.118 156.607,23.711 142.686,30.684 142.686,39.381 160.078,23.711 			
				"/>
			<path fill="#FFFFFF" d="M108.279,39.381h29.207V25.457h-19.955L108.279,39.381z M133.986,28.934v6.949h-19.225l4.643-6.949
				H133.986z"/>
			<polygon fill="#FFFFFF" points="161.762,24.551 159.637,26.467 174,39.381 174,30.684 			"/>
			<path fill="#FFFFFF" d="M127.043,1.118h-3.475v3.474h-10.449v19.116l-6.941,6.976v8.697l10.443-15.673h20.867V4.592h-10.445
				V1.118L127.043,1.118z M133.986,8.066v12.168h-17.365V8.066H133.986L133.986,8.066z"/>
		</g>
		<g>
			<path fill="#FFFFFF" d="M101.166,57.409c-0.818,0-1.459-0.665-1.459-1.459v-6.438c0-0.816,0.639-1.488,1.459-1.488h12.209
				l-3.459-3.461h-8.75c-2.717,0-4.945,2.236-4.945,4.951v6.438c0,2.714,2.23,4.917,4.945,4.917h8.75l3.459-3.46L101.166,57.409
				L101.166,57.409z"/>
			<path fill="#FFFFFF" d="M139.922,50.915v-1.397c0-0.82,0.666-1.49,1.486-1.49h12.209l-3.459-3.463h-8.75
				c-2.744,0-4.947,2.238-4.947,4.953v6.436c0,2.715,2.205,4.917,4.947,4.917h8.75l3.459-3.459h-12.209
				c-0.818,0-1.486-0.665-1.486-1.459v-1.404c0-0.05,0.039-0.088,0.086-0.088h13.73v-3.461h-13.73
				C139.959,50.999,139.922,50.962,139.922,50.915z"/>
			<path fill="#FFFFFF" d="M127.205,54.512c0.016-0.031,0.047-0.055,0.08-0.055h1.4c2.717,0,4.938-2.229,4.938-4.943
				c0-2.714-2.223-4.951-4.938-4.951h-12.334v16.307h3.463V48.107c0-0.047,0.039-0.084,0.086-0.084h8.785
				c0.809,0,1.463,0.67,1.463,1.486s-0.654,1.488-1.463,1.488h-2.881l-3.551,3.546l6.354,6.321h4.904l-6.285-6.264
				C127.199,54.583,127.193,54.547,127.205,54.512z"/>
			<path fill="#FFFFFF" d="M82.162,50.999h-6.342l3.458,3.461h2.886c0.82,0,1.458,0.666,1.458,1.491v1.374
				c0,0.047-0.037,0.086-0.085,0.086h-8.758c-0.821,0-1.486-0.664-1.486-1.459v-6.437c0-0.82,0.665-1.488,1.486-1.488h12.207
				l-3.487-3.463h-8.723c-2.742,0-4.949,2.235-4.949,4.951v6.437c0,2.715,2.207,4.917,4.949,4.917h12.33v-4.917
				C87.106,53.204,84.873,50.999,82.162,50.999z"/>
			<rect x="89.934" y="44.563" fill="#FFFFFF" width="3.459" height="16.305"/>
			<path fill="#FFFFFF" d="M170.385,55.598c0,0.033-0.021,0.066-0.055,0.078c-0.012,0.004-0.02,0.006-0.027,0.006
				c-0.025,0-0.049-0.008-0.064-0.023l-10.162-11.094h-3.51v16.305h3.465V49.863c0-0.035,0.021-0.065,0.053-0.078
				c0.014-0.006,0.021-0.006,0.031-0.006c0.025,0,0.049,0.01,0.064,0.025l10.16,11.062h3.506V44.561h-3.459L170.385,55.598
				L170.385,55.598z"/>
		</g>
	</g>
	<g>
		<path fill="#FFFFFF" d="M25.05,43.691c-0.073,2.072,2.173,3.656,2.205,3.679c0.278,0.211,0.507,0.362,0.75,0.491
			c0.055,0.029,0.114,0.055,0.167,0.074l0.076,0.039l0.095,0.055c0.066,0.037,0.126,0.072,0.192,0.109
			c0.145,0.077,0.287,0.146,0.429,0.211h0.002l0.028,0.012c0.063,0.029,0.124,0.057,0.185,0.084c0.093,0.039,0.185,0.08,0.291,0.117
			c0.265,0.099,0.523,0.184,0.863,0.276c0.021,0.009,0.04,0.015,0.064,0.021l0.231,0.058c0.167,0.043,0.334,0.084,0.506,0.121
			c0.096,0.021,0.196,0.035,0.294,0.058l0.212,0.035l0.049,0.01l0.169,0.02l0.171,0.021c0.014,0,0.03,0.002,0.068,0.004l0.343,0.035
			c0.121,0.014,0.274,0.022,0.438,0.027c0.058,0.001,0.116,0.003,0.173,0.003l0.061,0.003c0.032,0.002,0.065,0.004,0.099,0.004
			h0.062c0.125,0.004,0.246,0.004,0.333,0.004c0.002,0,0.002,0,0.003,0c0.012,0,0.029,0,0.174-0.011l0.042-0.002h0.006l0.053-0.002
			c0.038,0,0.086-0.004,0.127-0.009c0.039-0.008,0.078-0.016,0.142-0.02l0.082-0.011l0.165-0.015c0.021-0.006,0.05-0.008,0.075-0.01
			c0.044-0.004,0.093-0.008,0.189-0.023l0.105-0.016l0.185-0.021c0.019,0,0.042-0.006,0.087-0.021l0.104-0.016l0.044-0.014
			c0.018-0.006,0.035-0.01,0.042-0.01l0,0c0.062-0.017,0.101-0.023,0.135-0.026c0.085-0.019,0.156-0.034,0.237-0.062l0.042-0.013
			h0.001l0.062-0.019c0.035-0.016,0.067-0.022,0.074-0.022c0,0,0,0,0,0.002c0.022-0.008,0.039-0.014,0.058-0.017l0.052,0.16
			l-0.007-0.176l0.039-0.012h0.006c0.02-0.004,0.028-0.004,0.063-0.017l0.169-0.05l0.022-0.017l0.025-0.008
			c0.067-0.019,0.117-0.03,0.163-0.051l0.04-0.013l0.003-0.002c0.062-0.021,0.106-0.037,0.156-0.062
			c0.018-0.005,0.029-0.011,0.068-0.026c0.042-0.015,0.077-0.025,0.108-0.041l0.05-0.021c0.04-0.019,0.082-0.038,0.131-0.06
			l0.038-0.019l0.011-0.006l0.106-0.052l0.044-0.018c0.038-0.027,0.072-0.051,0.106-0.068c0.027-0.022,0.06-0.053,0.067-0.053
			c0.025-0.021,0.046-0.043,0.072-0.058c0.053-0.04,0.109-0.088,0.158-0.125c0.037-0.028,0.07-0.054,0.088-0.065l0.049-0.037
			c0.02-0.018,0.038-0.026,0.039-0.026c0,0,0,0.001-0.001,0.002c0.187-0.132,0.329-0.251,0.445-0.382
			c0.057-0.047,0.114-0.106,0.149-0.147c0.075-0.082,0.305-0.336,0.391-0.47c0.095-0.145,0.208-0.342,0.249-0.469l0.062-0.161
			c0.034-0.089,0.065-0.171,0.097-0.271c0.047-0.107,0.072-0.227,0.097-0.381l0.018-0.09c0.006-0.086,0.012-0.171,0.012-0.268
			l-0.001-0.078c0-0.018,0-0.036-0.003-0.063c-0.004-0.052-0.013-0.088-0.019-0.135l-0.017-0.076
			c-0.015-0.064-0.028-0.132-0.036-0.164l-0.034-0.07c-0.021-0.051-0.041-0.096-0.083-0.16c-0.04-0.075-0.09-0.147-0.153-0.231
			c-0.059-0.093-0.129-0.17-0.231-0.257c-0.09-0.087-0.208-0.182-0.354-0.282l-0.083-0.047l-0.058-0.035
			c-0.033-0.021-0.079-0.047-0.141-0.073c-0.018-0.011-0.046-0.021-0.072-0.035c-0.031-0.021-0.065-0.039-0.108-0.062
			c-0.092-0.053-0.193-0.103-0.3-0.155l-0.2-0.109c-0.32-0.164-0.72-0.332-1.181-0.525l-0.142-0.061
			c-0.54-0.232-1.181-0.463-1.738-0.657c-0.613-0.224-1.304-0.479-2.069-0.716c-0.084-0.018-0.168-0.043-0.244-0.068
			c-0.167-0.052-0.333-0.104-0.471-0.152l-0.063-0.021c-0.047-0.015-0.096-0.026-0.137-0.046c-0.129-0.041-0.264-0.08-0.415-0.125
			c-0.021-0.01-0.04-0.014-0.092-0.023c-0.026-0.011-0.054-0.021-0.086-0.037l-0.09-0.027l-0.125-0.04l-0.137-0.042l-0.184-0.059
			c-0.125-0.045-0.25-0.089-0.346-0.134c-0.032-0.009-0.062-0.019-0.07-0.022c-0.064-0.019-0.121-0.037-0.179-0.064
			c-0.008-0.001-0.016-0.003-0.025-0.006l-0.002,0.004l-0.018-0.012h-0.142v-0.059c-0.112-0.046-0.213-0.086-0.316-0.136
			c-0.027-0.021-0.073-0.041-0.117-0.062l-0.04-0.018l-0.005-0.002l-0.096-0.051l-0.051-0.031c-0.024-0.004-0.051-0.018-0.072-0.027
			c-0.008-0.004-0.014-0.008-0.021-0.012l-0.017,0.006l-0.048-0.031l-0.03-0.02l-0.024,0.002l-0.033-0.029
			c-0.017-0.012-0.025-0.018-0.052-0.029l-0.05-0.021l-0.015-0.014l-0.038-0.004l-0.05-0.039c-0.027-0.016-0.044-0.023-0.042-0.023
			h0.001l-0.114-0.07c-0.005,0-0.014-0.002-0.02-0.006C26.138,41.018,25.102,42.323,25.05,43.691z"/>
		<path fill="#FFFFFF" d="M37.318,19.792c0-3.825-2.376-6.927-5.29-6.927c-2.926,0-5.292,3.104-5.292,6.927s2.365,6.956,5.292,6.956
			C34.941,26.748,37.318,23.613,37.318,19.792z"/>
		<path fill="#FFFFFF" d="M2.07,1.047v59.979h60.003V1.047H2.07L2.07,1.047z M15.73,18.396c-1.2,0-2.283-0.584-3.136-1.688
			c-0.313-0.441-0.457-0.73-0.328-0.993c0.071-0.161,0.222-0.266,0.428-0.271c0.18,0,0.417,0.094,0.703,0.279
			c0.361,0.246,0.808,0.373,1.322,0.373l0.066-0.002c0.779-0.02,1.586-0.31,2.398-0.867c1.172-0.869,1.759-1.066,2.288-1.094h0.075
			c0.305,0,0.566,0.018,0.821,0.055c-0.497-0.53-1.006-0.756-1.676-0.756l-0.069,0.002c-0.484,0.012-1.236,0.301-2.158,0.836
			c-1.104,0.588-2.057,0.908-2.818,0.92l-0.076,0.002c-1.606,0-2.605-1.254-2.938-3.795c-0.042-0.537-0.037-1.209,0.208-1.463
			c0.1-0.111,0.232-0.174,0.369-0.176h0.009h0.001c0.353,0,0.61,0.311,0.969,1.168c0.465,1.143,1.188,1.389,1.337,1.389
			c0.266-0.004,0.829-0.144,2.011-0.791c0.991-0.487,1.876-0.742,2.623-0.764h0.064c1.128,0,2.204,0.461,3.088,1.34
			c0.072,0.064,0.127,0.119,0.716,0.895c0.757-0.613,1.615-1.152,2.551-1.611c0.096-0.054,0.166-0.076,0.225-0.076l0.136,0.019
			l0.044,0.099c0.018,0.038,0.074,0.153-0.116,0.404c-0.327,0.416-0.653,0.884-1.003,1.468c-0.45,0.794-0.817,1.597-1.093,2.44
			c-0.271,0.888-0.458,1.773-0.551,2.638c-0.1,0.854-0.109,1.761-0.025,2.662c0.087,0.892,0.264,1.756,0.521,2.629
			c0.25,0.845,0.602,1.679,1.044,2.483c0.279,0.47,0.534,0.828,0.77,1.152c0.288,0.377,0.369,0.57,0.304,0.719
			c-0.019,0.041-0.075,0.131-0.213,0.131c-0.2,0-0.554-0.203-0.65-0.262c-4.831-2.566-6.703-6.758-4.931-11.002
			c-0.099,0.055-0.194,0.117-0.29,0.195c-1.146,0.864-2.118,1.295-2.94,1.314h-0.083v-0.002H15.73L15.73,18.396z M43.025,49.502
			c-0.331,0.303-0.406,0.333-0.485,0.333l-0.118-0.004l-0.048-0.097c-0.043-0.09-0.052-0.164,0.276-0.567
			c0.253-0.397,0.42-0.716,0.638-1.213c0.085-0.146,0.23-0.565,0.345-1.019c0.097-0.492,0.151-0.918,0.162-1.345
			c0.003-0.056,0.004-0.125,0.004-0.187v-0.129V45.15c-0.004-0.049-0.007-0.098-0.011-0.146c-0.002-0.043-0.003-0.084-0.007-0.133
			c-0.013-0.166-0.029-0.334-0.061-0.513c-0.044-0.324-0.119-0.631-0.243-0.981c-0.102-0.284-0.23-0.571-0.417-0.95
			c-0.166-0.302-0.359-0.591-0.584-0.861c-0.177-0.221-0.414-0.508-0.707-0.774c-0.225-0.213-0.492-0.454-0.808-0.679l-0.122-0.082
			l-0.146-0.1c-0.091-0.06-0.156-0.103-0.227-0.14l-0.136-0.076c-0.12-0.065-0.244-0.136-0.374-0.19
			c-0.247-0.127-0.518-0.269-0.797-0.403c-0.66-0.3-1.284-0.565-1.885-0.817c-0.267-0.097-0.55-0.201-0.841-0.308
			c-0.479-0.179-0.986-0.362-1.516-0.547l-0.705-0.231c-0.645-0.211-1.29-0.433-2.034-0.658c-0.019-0.006-0.036-0.01-0.075-0.021
			c-0.052-0.008-0.096-0.019-0.135-0.039c-0.072-0.015-0.136-0.032-0.229-0.062c-0.092-0.028-0.202-0.066-0.297-0.119l-0.088-0.034
			c-0.056-0.017-0.115-0.041-0.169-0.063c-0.139-0.054-0.248-0.098-0.348-0.142c-0.061-0.022-0.109-0.052-0.138-0.065l-0.021-0.014
			l-0.018-0.018l-0.053-0.021l-0.01-0.006l-0.062-0.037l-0.004-0.002c-0.023-0.006-0.062-0.021-0.099-0.059l0.116-0.129
			l-0.167,0.106c-0.044-0.022-0.086-0.056-0.126-0.078l-0.036-0.022l-0.042-0.021c-0.103-0.051-0.204-0.098-0.318-0.179
			c-0.058-0.049-0.127-0.1-0.203-0.161c-0.077-0.043-0.159-0.094-0.246-0.162l-0.014-0.01l-0.02-0.019
			c-0.067-0.047-0.119-0.098-0.165-0.141l-0.04-0.037c-0.048-0.057-0.087-0.102-0.093-0.111c-0.026-0.027-0.063-0.072-0.074-0.098
			c-0.019-0.029-0.054-0.095-0.063-0.132c-0.025-0.043-0.06-0.11-0.076-0.146c-0.014-0.026-0.042-0.086-0.063-0.147
			c-0.012-0.032-0.023-0.069-0.039-0.114l-0.03-0.074l-0.027-0.088c-0.018-0.051-0.034-0.099-0.034-0.104
			c-0.008-0.022-0.039-0.103-0.063-0.341c-0.02-0.123-0.02-0.36,0.001-0.479c0.011-0.088,0.045-0.357,0.088-0.498
			c0.024-0.1,0.118-0.414,0.175-0.525l0.051-0.137c0.053-0.146,0.126-0.34,0.193-0.479c0.016-0.034,0.061-0.118,0.116-0.205
			l0.083-0.141c0.014-0.02,0.027-0.039,0.042-0.039c-0.016,0-0.033,0-0.051,0.006c-0.035,0.023-0.06,0.053-0.087,0.068
			c-0.028,0.027-0.053,0.053-0.082,0.07l-0.192,0.16c-0.045,0.053-0.086,0.086-0.125,0.117l-0.025,0.02
			c-0.045,0.043-0.086,0.088-0.122,0.127l-0.052,0.057l-0.061,0.066c-0.019,0.021-0.036,0.043-0.04,0.043l-0.071,0.102l-0.031,0.043
			l-0.054,0.074l-0.064,0.086c-0.041,0.058-0.086,0.121-0.125,0.166c-0.042,0.047-0.078,0.107-0.114,0.172
			c-0.069,0.107-0.129,0.218-0.196,0.347l-0.02,0.049l-0.013,0.015h-0.001l-0.001,0.004l-0.006,0.011
			c-0.006,0.013-0.012,0.021-0.019,0.03l-0.013,0.039l-0.012,0.013l-0.008,0.017l-0.014,0.022c-0.002,0.008-0.008,0.019-0.014,0.032
			l-0.003,0.011l-0.011,0.019l-0.021,0.055l-0.008,0.004v0.002l-0.002,0.002c-0.001,0.006-0.003,0.015-0.005,0.019l-0.009-0.002
			l-0.005,0.007l-0.009-0.007l-0.015,0.009c0.005-0.005,0.009-0.007,0.015-0.011l-0.011-0.011l-0.129-0.044l0.147,0.114
			l-0.011,0.033c-0.001,0.008-0.004,0.019-0.005,0.025l-0.001,0.006l-0.004,0.01v0.012l-0.002,0.006v0.076l-0.026,0.016
			l-0.009,0.059l-0.002,0.002l-0.009,0.041l-0.012,0.061l-0.007,0.039l-0.003,0.015l-0.002,0.039v0.011
			c-0.003,0.02-0.008,0.051-0.014,0.074L27.4,33.792l0.165,0.052l-0.005,0.086l-0.003,0.02v0.058v0.062v0.049v0.051l0.001,0.046
			v0.005l0.003,0.076v0.006l0.006,0.036v0.019l0.009,0.051v0.01l0.011,0.045v0.021l0.001,0.037v0.019l0.002,0.017l0.014,0.01v0.093
			l0.008,0.026l0.002,0.037l0.01,0.034l0.002,0.015l0.012,0.049l0.002,0.014l0.005,0.04l0.006,0.017l0.011,0.014v0.033l0.013,0.041
			l0.002,0.012l0.001,0.005l0.014,0.01v0.054c0.011,0.021,0.018,0.043,0.038,0.1c0.016,0.037,0.032,0.074,0.058,0.125l0.053,0.082
			c0.013,0.018,0.033,0.049,0.038,0.063c0.021,0.032,0.046,0.071,0.078,0.117l0.032,0.053l0.002,0.006l0.032,0.043v0.008
			l0.004,0.009c0.029,0.049,0.057,0.094,0.106,0.165c0.011,0.018,0.024,0.037,0.038,0.055l-0.124,0.124l0.164-0.073l0.033,0.043
			l0.01,0.014c0.01,0.019,0.021,0.033,0.058,0.076l0.027,0.041l0.008,0.013l0.055,0.065l0.055,0.067
			c0.035,0.048,0.059,0.069,0.084,0.088c0.015,0.017,0.028,0.032,0.042,0.048c0.016,0.018,0.031,0.032,0.044,0.043l0.039,0.036
			c0.022,0.021,0.052,0.048,0.076,0.065l-0.111,0.131l0.153-0.096l0.052,0.045c0.046,0.037,0.092,0.076,0.141,0.111l0.092,0.066
			c0.018,0.013,0.036,0.021,0.055,0.036c0.029,0.021,0.059,0.038,0.094,0.063c0.021,0.016,0.047,0.032,0.09,0.057
			c0.053,0.027,0.098,0.058,0.149,0.08c0.07,0.037,0.134,0.07,0.214,0.104l0.054,0.031c0.011,0.007,0.021,0.014,0.036,0.021
			c0.022,0.008,0.044,0.02,0.061,0.03l0.051,0.026l0,0l0.029,0.018l0.01,0.008c0.026,0.014,0.05,0.028,0.067,0.036l0.031-0.005
			l0.036,0.043l0.019,0.02l0.087,0.035l0.135,0.058c0.067,0.03,0.152,0.063,0.246,0.104l0.083,0.033l0.14,0.033v0.021
			c0.39,0.158,0.617,0.229,0.804,0.285l0.099,0.029c1.657,0.518,2.79,0.887,3.765,1.244l0.323,0.115l0.841,0.279
			c1.444,0.573,2.539,1.092,3.318,1.59c0.27,0.183,0.481,0.34,0.66,0.494c0.208,0.17,0.389,0.353,0.555,0.519
			c0.096,0.106,0.186,0.216,0.271,0.327c0.104,0.146,0.197,0.298,0.28,0.447c0.027,0.047,0.056,0.098,0.086,0.155l0.033,0.063
			l0.042,0.078c0.014,0.028,0.03,0.063,0.055,0.111l0.052,0.105c0.024,0.053,0.045,0.097,0.062,0.142l0.027,0.06
			c0.014,0.021,0.026,0.045,0.053,0.1c0.006,0.021,0.019,0.064,0.04,0.115c0.016,0.045,0.032,0.099,0.039,0.131
			c0.018,0.057,0.033,0.115,0.048,0.168c0.01,0.043,0.018,0.081,0.039,0.148c0.004,0.051,0.012,0.084,0.022,0.125
			c0.018,0.07,0.026,0.129,0.029,0.182c0.018,0.084,0.027,0.188,0.037,0.296c0.005,0.052,0.01,0.106,0.012,0.163l0.008,0.1v0.164
			v0.064v0.063c0,0.028-0.001,0.056-0.003,0.087l-0.003,0.064c-0.005,0.094-0.011,0.197-0.018,0.291
			c-0.005,0.066-0.016,0.135-0.022,0.195l-0.011,0.08c-0.005,0.037-0.014,0.076-0.02,0.109l-0.013,0.053l-0.013,0.063
			c-0.005,0.032-0.013,0.069-0.018,0.088c-0.019,0.091-0.04,0.168-0.058,0.248l-0.021,0.088c-0.016,0.056-0.033,0.104-0.049,0.149
			l-0.027,0.084l-0.014,0.054l-0.004,0.012c-0.008,0.019-0.018,0.037-0.021,0.037c-0.001,0-0.002,0-0.002-0.001
			c-0.016,0.059-0.032,0.104-0.052,0.15c-0.016,0.033-0.028,0.065-0.042,0.097c-0.009,0.024-0.018,0.049-0.021,0.056l-0.03,0.079
			l-0.001,0.005v0.112h-0.006v0.039h-0.054c-0.014,0.038-0.024,0.069-0.034,0.073c-0.01,0.021-0.017,0.041-0.025,0.059
			c-0.013,0.021-0.021,0.044-0.038,0.071c-0.022,0.039-0.04,0.079-0.056,0.118l-0.037,0.086l-0.023,0.052
			c-0.021,0.045-0.042,0.088-0.051,0.097c-0.02,0.055-0.047,0.104-0.082,0.174l-0.053,0.09l-0.019,0.031l-0.035,0.062l-0.001,0.001
			c-0.001,0.001-0.001,0.001-0.001,0.001l-0.013,0.036l-0.004,0.078l-0.067,0.013l-0.022,0.035l-0.003,0.006
			c-0.02,0.021-0.034,0.043-0.061,0.079l-0.125,0.156c-0.04,0.051-0.081,0.099-0.113,0.139c-0.026,0.033-0.05,0.064-0.07,0.095
			l-0.019,0.033l-0.007,0.007l-0.098,0.116l-0.054,0.063l-0.001,0.104h-0.089l-0.02,0.021l-0.024,0.021
			c-0.025,0.022-0.047,0.045-0.068,0.063l-0.036,0.035l-0.043,0.043l-0.055,0.053l-0.066,0.055l-0.038,0.04l-0.055,0.055
			c-0.053,0.046-0.104,0.091-0.148,0.132c-0.101,0.104-0.211,0.201-0.325,0.303l-0.008,0.006l-0.016,0.031l-0.053,0.024
			c-0.013,0.011-0.024,0.019-0.031,0.019c-0.001,0-0.002-0.002-0.002-0.004c-0.029,0.033-0.061,0.055-0.073,0.058l-0.042,0.03
			l-0.004,0.002c-0.026,0.023-0.06,0.047-0.075,0.056c-0.039,0.03-0.083,0.063-0.133,0.099l-0.051,0.032l-0.037,0.026l-0.007,0.008
			l-0.03,0.021l0.001,0.024l-0.012,0.006l-0.013,0.04h-0.079l-0.019,0.02l-0.017,0.013L38.984,51
			c-0.012,0.007-0.023,0.018-0.039,0.021c-0.018,0.019-0.041,0.037-0.057,0.037l-0.02,0.01c-0.017,0.011-0.031,0.019-0.042,0.022
			c-0.014,0.013-0.032,0.022-0.054,0.036c-0.025,0.02-0.052,0.029-0.088,0.048l-0.037,0.021l-0.002,0.002
			c-0.02,0.012-0.039,0.021-0.043,0.023c-0.044,0.022-0.078,0.041-0.09,0.043c-0.019,0.014-0.041,0.021-0.071,0.037
			c-0.018,0.014-0.042,0.026-0.077,0.041l-0.028,0.028h-0.029l-0.041,0.017l-0.008,0.008l-0.01,0.014l-0.024,0.013
			c-0.009,0.004-0.019,0.009-0.034,0.017l-0.042,0.022l-0.019,0.002c-0.001,0-0.002,0.001-0.003,0.001l-0.02,0.021h-0.029
			c-0.007,0.004-0.016,0.007-0.021,0.01c-0.048,0.023-0.131,0.063-0.238,0.102l-0.045,0.018l-0.013,0.015l-0.028,0.006l-0.054,0.021
			l-0.014,0.004c-0.041,0.021-0.076,0.025-0.13,0.046c-0.02,0.008-0.033,0.015-0.038,0.015c-0.033,0.024-0.067,0.036-0.088,0.043
			l-0.007,0.004l-0.021,0.008l-0.028,0.014l-0.014,0.003l-0.038,0.015l-0.001,0.002l-0.041,0.014l-0.077,0.029l-0.141,0.047
			c-0.068,0.017-0.141,0.033-0.254,0.067c-0.017,0.011-0.038,0.015-0.058,0.017l-0.016,0.004l-0.012,0.002l-0.043,0.013
			l-0.004,0.002L36.6,52.02l-0.076,0.021l-0.132,0.026l-0.067,0.018l-0.045,0.014h-0.011c-0.051,0.008-0.108,0.018-0.204,0.039
			l-0.05,0.006c-0.021,0.008-0.054,0.018-0.063,0.018c-0.001,0-0.002,0-0.002-0.002l-0.055,0.013h-0.007
			c-0.007,0.002-0.013,0.002-0.02,0.003l-0.01,0.004h-0.01l-0.062,0.016l-0.064,0.015l-0.054,0.013l-0.043,0.012
			c-0.026,0.006-0.052,0.01-0.073,0.015l-0.024,0.01h-0.019l-0.01,0.003h-0.005l-0.008,0.002h-0.013H35.47l-0.009,0.004
			l-0.014,0.006l-0.045,0.006v-0.002l-0.012,0.007h-0.033l-0.016,0.002l-0.076,0.01l-0.008,0.002
			c-0.022,0.004-0.048,0.011-0.062,0.011c-0.06,0.012-0.115,0.014-0.162,0.016c-0.02,0.002-0.038,0.005-0.054,0.008
			c-0.017,0.001-0.028,0.005-0.042,0.007c-0.03,0.009-0.059,0.011-0.084,0.011c-0.027,0.008-0.051,0.01-0.068,0.01
			c-0.002,0-0.003,0-0.004,0c-0.015,0.004-0.033,0.006-0.079,0.011l-0.054,0.005c-0.02,0.003-0.042,0.006-0.046,0.006
			c-0.002,0-0.002,0,0.003-0.001c-0.017,0.005-0.04,0.011-0.064,0.015c-0.018,0.002-0.033,0.006-0.044,0.006
			c-0.004,0-0.008,0-0.01-0.002c-0.028,0.008-0.055,0.012-0.076,0.012c-0.003,0-0.006,0-0.01,0s-0.012,0.002-0.019,0.002
			c-0.01,0-0.018-0.002-0.026-0.006l-0.035,0.013l-0.025,0.002l-0.045,0.005l-0.005,0.001l-0.057,0.005l-0.048,0.002h-0.003
			l-0.046,0.004c-0.024,0.002-0.04,0.002-0.055,0.002l0,0l-0.048,0.008l-0.037,0.003v-0.003h-0.034
			c-0.027,0.007-0.054,0.008-0.071,0.008c-0.001,0-0.002,0-0.004,0c-0.047,0.002-0.082,0.002-0.133,0.002h-0.045l-0.02,0.003h-0.024
			h-0.051h-0.05l-0.054-0.001l-0.045-0.002h-0.19l-0.173-0.003c-0.039,0-0.083,0-0.112-0.002c-0.096-0.002-0.197-0.007-0.288-0.015
			l-0.281-0.017l-0.226-0.013c-0.166-0.02-0.333-0.039-0.49-0.061l-0.139-0.017c-0.101-0.013-0.209-0.022-0.324-0.04
			c-0.323-0.055-0.614-0.102-0.805-0.137c-0.309-0.041-0.886-0.195-1.323-0.334l-0.229-0.08c-0.118-0.038-0.236-0.077-0.344-0.116
			c-0.42-0.158-0.802-0.315-1.125-0.478c-0.195-0.093-0.381-0.188-0.465-0.233c-0.611-0.332-0.927-0.531-1.237-0.771
			c-0.067-0.039-1.662-0.968-2.642-2.515c-1.057-1.687-1.338-3.283-0.843-4.711c0.55-1.604,1.917-2.705,2.965-3.347
			c-2.506,0.75-4.058,1.916-4.569,3.457c-0.886,2.6,1.402,5.588,2.124,6.435c0.087,0.082,0.219,0.201,0.161,0.347l-0.075,0.123
			h-0.118c-0.08,0-0.183-0.039-0.233-0.06c-1.487-0.746-6.195-3.478-5.149-7.606c1.157-3.697,6.984-4.171,8.525-4.229
			c-0.057-0.071-0.105-0.142-0.149-0.207c-0.168-0.242-0.319-0.466-0.454-0.683c-0.113-0.188-0.206-0.367-0.285-0.554
			c-0.017-0.032-0.03-0.069-0.043-0.104c-0.02-0.031-0.035-0.068-0.048-0.106l-0.04-0.121c-0.017-0.036-0.029-0.081-0.039-0.118
			l-0.023-0.084l-0.015-0.055c-0.017-0.038-0.026-0.074-0.048-0.148l-0.01-0.043v-0.006c-0.01-0.031-0.017-0.063-0.017-0.072
			c-0.025-0.084-0.045-0.154-0.065-0.267l-0.017-0.082v-0.001l-0.026-0.098l-0.011-0.055l-0.001-0.006
			c-0.006-0.027-0.009-0.057-0.013-0.088c-0.006-0.021-0.01-0.044-0.017-0.105c-0.001-0.016-0.003-0.026-0.004-0.041
			c-0.007-0.024-0.007-0.043-0.005-0.045c-0.006-0.021-0.008-0.043-0.013-0.084l-0.007-0.043v-0.004
			c-0.005-0.024-0.01-0.055-0.012-0.082c-0.012-0.119-0.021-0.252-0.025-0.393c-0.004-0.1-0.004-0.197-0.004-0.303
			c0-0.057,0.001-0.084,0.008-0.133c0.013-0.082,0.031-0.196,0.085-0.465l0.001-0.026l0.006-0.021
			c0.002-0.01,0.009-0.029,0.015-0.064c0.06-0.248,0.124-0.438,0.184-0.604l0.015-0.033l0.004-0.006
			c0.019-0.07,0.046-0.14,0.073-0.203l0.026-0.065c0.037-0.09,0.077-0.161,0.111-0.224l0.038-0.063L25,32.109v-0.002l0.001-0.002
			l0.003-0.004V32.1l0.009-0.013l0.071-0.112l0.085-0.134c0.018-0.032,0.039-0.055,0.068-0.094l0.075-0.108
			c0.033-0.047,0.063-0.089,0.103-0.152c0.032-0.041,0.062-0.07,0.09-0.1c0.019-0.017,0.034-0.035,0.047-0.052l0.162-0.183
			l0.105-0.139l0.02-0.031l0.03-0.016c0.017-0.01,0.034-0.033,0.053-0.048c0.016-0.019,0.03-0.026,0.043-0.038
			c0.033-0.037,0.056-0.059,0.089-0.092c0.095-0.089,0.162-0.148,0.224-0.202l0.053-0.045c0.106-0.078,0.201-0.158,0.291-0.233
			l0.01-0.016l0.021-0.02c0.079-0.059,0.17-0.123,0.236-0.166l0.056-0.037l0.053-0.037l0.146-0.096
			c0.1-0.062,0.216-0.135,0.338-0.222l0.027-0.017l0.018-0.008c0.026-0.01,0.066-0.022,0.233-0.102
			c0.042-0.021,0.09-0.046,0.287-0.136c0.026-0.015,0.05-0.024,0.107-0.056l0.196-0.101c0.046-0.022,0.104-0.052,0.33-0.153
			c0.017-0.006,0.031-0.012,0.054-0.021c-0.241-0.118-0.481-0.255-0.715-0.419c-0.56-0.357-1.059-0.764-1.513-1.237
			c-0.458-0.47-0.854-0.946-1.21-1.518c-0.406-0.659-0.743-1.392-1.03-2.179c-0.342-0.998-0.556-2.047-0.632-3.102
			c-0.075-1.074-0.004-2.128,0.213-3.184c0.209-1.069,0.56-2.082,1.022-3.006c0.224-0.42,0.5-0.867,0.815-1.287
			c0.324-0.461,0.706-0.869,1.008-1.178c0.445-0.41,0.822-0.718,1.218-0.979c0.396-0.271,0.855-0.515,1.34-0.729
			c0.517-0.173,1.008-0.314,1.507-0.408c0.423-0.074,0.843-0.111,1.277-0.111c0.101,0,0.201,0.001,0.299,0.005
			c0.491,0.019,0.987,0.093,1.521,0.231c0.498,0.133,1.002,0.295,1.453,0.524c0.462,0.229,0.895,0.497,1.327,0.827
			c0.503,0.391,0.961,0.868,1.464,1.466c0.433,0.548,0.811,1.14,1.127,1.729c0.438,0.857,0.764,1.797,0.973,2.783
			c0.205,0.969,0.292,1.938,0.256,2.933c-0.033,0.968-0.192,1.958-0.469,2.916c-0.266,0.911-0.664,1.81-1.193,2.67
			c-0.25,0.407-0.635,0.938-0.914,1.229c-0.254,0.291-0.48,0.529-0.707,0.746c-0.02,0.021-0.073,0.064-0.637,0.5
			c-0.082,0.061-0.219,0.151-0.32,0.219l-0.108,0.074c-0.264,0.16-0.583,0.352-0.625,0.373c-0.306,0.16-0.688,0.35-0.87,0.428
			c-0.284,0.133-0.714,0.332-0.771,0.357c-0.025,0.01-0.052,0.02-0.106,0.051c-0.03,0.016-0.057,0.027-0.112,0.055
			c-0.036,0.021-0.08,0.041-0.082,0.043c-0.058,0.027-0.22,0.115-0.266,0.148c-0.017,0.01-0.031,0.018-0.039,0.021
			c-0.047,0.037-0.089,0.066-0.13,0.094c-0.028,0.02-0.053,0.039-0.101,0.08c-0.013,0.01-0.027,0.018-0.037,0.029l-0.066,0.054
			l-0.008,0.008c-0.059,0.042-0.133,0.099-0.173,0.132c-0.002,0.002-0.253,0.246-0.347,0.328c-0.013,0.018-0.03,0.038-0.05,0.064
			c-0.054,0.066-0.125,0.158-0.159,0.212c-0.091,0.088-0.162,0.188-0.245,0.349l-0.028,0.059l-0.001,0.002
			c-0.027,0.041-0.042,0.074-0.058,0.115c-0.049,0.106-0.054,0.16-0.063,0.262c-0.042,0.201-0.02,0.355,0.003,0.48
			c0.007,0.153,0.032,0.219,0.061,0.277c0.096,0.217,0.178,0.326,0.233,0.382l0.042,0.046l0.056,0.063l0.04,0.035
			c0.014,0.013,0.027,0.026,0.065,0.054L32.201,33.4l0.112-0.131l0.035,0.024l0.009,0.007l0.037,0.021l0.01,0.008
			c0.016,0.016,0.033,0.021,0.088,0.052c0.053,0.041,0.09,0.063,0.084,0.065l0.062,0.025l0.011,0.01l0.063,0.029
			c0.03,0.014,0.055,0.024,0.088,0.036c0.022,0.007,0.045,0.015,0.068,0.024l0.053,0.01L32.95,33.6l0.058,0.021
			c0.031,0.005,0.06,0.016,0.09,0.025c0.012,0.006,0.024,0.01,0.051,0.016c0.083,0.027,0.152,0.055,0.253,0.089
			c0.054,0.019,0.111,0.031,0.179,0.045c0.132,0.03,0.27,0.073,0.413,0.118c0.139,0.053,0.285,0.098,0.435,0.145l0.055,0.02
			c0.433,0.145,0.824,0.273,1.226,0.413c0.391,0.106,9.545,2.682,10.729,7.838C46.982,44.561,45.825,47.02,43.025,49.502z
			 M53.435,11.402c-0.333,2.527-1.331,3.787-2.967,3.787l-0.077-0.002c-0.73-0.015-1.68-0.332-2.807-0.92
			c-0.928-0.535-1.676-0.822-2.14-0.836l-0.071-0.002c-0.667,0-1.178,0.228-1.674,0.758c0.255-0.037,0.521-0.054,0.828-0.054h0.085
			c0.514,0.027,1.084,0.224,2.237,1.087c0.834,0.563,1.655,0.854,2.437,0.873l0.067,0.002c0.506,0,0.927-0.125,1.289-0.375
			c0.198-0.125,0.477-0.277,0.724-0.277h0.001c0.177,0.009,0.335,0.104,0.419,0.268c0.14,0.27-0.011,0.557-0.342,1.004
			c-0.847,1.1-1.903,1.684-3.108,1.684h-0.089c-0.846-0.021-1.817-0.45-2.943-1.319c-0.089-0.074-0.185-0.138-0.281-0.192
			c1.749,4.256-0.104,8.457-4.951,11.016c-0.098,0.062-0.439,0.264-0.635,0.264c-0.144,0-0.204-0.089-0.224-0.126
			c-0.072-0.147,0.016-0.347,0.31-0.722c0.006-0.01,0.542-0.771,0.778-1.16c0.447-0.826,0.798-1.665,1.043-2.49
			c0.241-0.878,0.405-1.742,0.489-2.629c0.087-0.896,0.079-1.803-0.018-2.663c-0.091-0.851-0.265-1.737-0.526-2.637
			c-0.267-0.841-0.635-1.64-1.09-2.437c-0.351-0.592-0.676-1.06-1.023-1.477c-0.19-0.235-0.131-0.352-0.116-0.389
			c0.036-0.076,0.109-0.125,0.198-0.125c0.063,0,0.144,0.022,0.255,0.08c0.934,0.459,1.78,0.998,2.5,1.602
			c0.566-0.756,0.638-0.825,0.708-0.895c0.916-0.879,1.995-1.342,3.099-1.342h0.063c0.739,0.02,1.633,0.277,2.659,0.771
			c1.172,0.642,1.706,0.781,1.97,0.785c0.008,0,0.804-0.082,1.358-1.389c0.363-0.854,0.619-1.17,0.978-1.17h0.006h0.002
			c0.133,0.002,0.269,0.064,0.37,0.176C53.418,10.139,53.49,10.609,53.435,11.402z"/>
	</g>
</g>
<g>
	<path fill="#FFFFFF" d="M25.05,116.672c-0.073,2.07,2.173,3.656,2.205,3.678c0.278,0.211,0.507,0.363,0.75,0.492
		c0.055,0.029,0.114,0.055,0.167,0.074l0.076,0.039l0.095,0.055c0.066,0.037,0.126,0.072,0.192,0.109
		c0.145,0.076,0.287,0.145,0.429,0.211h0.002l0.028,0.012c0.063,0.029,0.124,0.057,0.185,0.084c0.093,0.039,0.185,0.08,0.291,0.117
		c0.265,0.098,0.523,0.184,0.863,0.275c0.021,0.01,0.04,0.016,0.064,0.021l0.231,0.057c0.167,0.043,0.334,0.084,0.506,0.121
		c0.096,0.02,0.196,0.035,0.294,0.057l0.212,0.035l0.049,0.01l0.169,0.02l0.171,0.021c0.014,0,0.03,0.002,0.068,0.006l0.343,0.033
		c0.121,0.014,0.274,0.023,0.438,0.029c0.058,0,0.116,0.002,0.173,0.002l0.061,0.002c0.032,0.002,0.065,0.004,0.099,0.004h0.062
		c0.125,0.004,0.246,0.004,0.333,0.004c0.002,0,0.002,0,0.003,0c0.012,0,0.029,0,0.174-0.01l0.042-0.002h0.006l0.053-0.002
		c0.038,0,0.086-0.004,0.127-0.008c0.039-0.008,0.078-0.018,0.142-0.021l0.082-0.01l0.165-0.014c0.021-0.004,0.05-0.008,0.075-0.012
		c0.044-0.004,0.093-0.008,0.189-0.021l0.105-0.014l0.185-0.023c0.019,0,0.042-0.006,0.087-0.018l0.104-0.02l0.044-0.012
		c0.018-0.006,0.035-0.01,0.042-0.01l0,0c0.062-0.018,0.101-0.023,0.135-0.027c0.085-0.018,0.156-0.035,0.237-0.061l0.042-0.014
		h0.001l0.062-0.018c0.035-0.016,0.067-0.023,0.074-0.023c0,0,0,0,0,0.002c0.022-0.008,0.039-0.014,0.058-0.016l0.052,0.16
		l-0.007-0.178l0.039-0.01l0.006-0.002c0.02-0.002,0.028-0.004,0.063-0.016l0.169-0.049l0.022-0.018l0.025-0.008
		c0.067-0.02,0.117-0.031,0.163-0.051l0.04-0.014h0.003c0.062-0.021,0.106-0.039,0.156-0.063c0.018-0.004,0.029-0.01,0.068-0.025
		c0.042-0.016,0.077-0.025,0.108-0.043l0.05-0.02c0.04-0.018,0.082-0.037,0.131-0.059l0.038-0.02l0.011-0.006l0.106-0.051
		l0.044-0.02c0.038-0.027,0.072-0.051,0.106-0.066c0.027-0.023,0.06-0.055,0.067-0.055c0.025-0.02,0.046-0.043,0.072-0.057
		c0.053-0.039,0.109-0.088,0.158-0.125c0.037-0.029,0.07-0.053,0.088-0.066l0.049-0.035c0.02-0.018,0.038-0.027,0.039-0.027
		c0,0,0,0.002-0.001,0.002c0.187-0.131,0.329-0.25,0.445-0.381c0.057-0.047,0.114-0.107,0.149-0.148
		c0.075-0.082,0.305-0.336,0.391-0.469c0.095-0.146,0.208-0.342,0.249-0.469l0.062-0.162c0.034-0.088,0.065-0.17,0.097-0.271
		c0.047-0.105,0.072-0.225,0.097-0.381l0.018-0.088c0.006-0.086,0.012-0.172,0.012-0.268l-0.001-0.078c0-0.018,0-0.037-0.003-0.064
		c-0.004-0.053-0.013-0.09-0.019-0.135l-0.017-0.078c-0.015-0.063-0.028-0.131-0.036-0.164l-0.034-0.068
		c-0.021-0.053-0.041-0.098-0.083-0.158c-0.04-0.076-0.09-0.148-0.153-0.232c-0.059-0.092-0.129-0.17-0.231-0.256
		c-0.09-0.088-0.208-0.184-0.354-0.283l-0.083-0.047l-0.058-0.035c-0.033-0.021-0.079-0.047-0.141-0.074
		c-0.018-0.01-0.046-0.02-0.072-0.037c-0.031-0.018-0.065-0.037-0.108-0.061c-0.092-0.051-0.193-0.102-0.3-0.156l-0.2-0.107
		c-0.32-0.166-0.72-0.334-1.181-0.527l-0.142-0.059c-0.54-0.234-1.181-0.465-1.738-0.658c-0.613-0.223-1.304-0.479-2.069-0.715
		c-0.084-0.02-0.168-0.045-0.244-0.07c-0.167-0.051-0.333-0.104-0.471-0.15l-0.063-0.02c-0.047-0.014-0.096-0.027-0.137-0.045
		c-0.129-0.041-0.264-0.08-0.415-0.125c-0.021-0.01-0.04-0.016-0.092-0.025c-0.026-0.01-0.054-0.02-0.086-0.037l-0.09-0.027
		l-0.125-0.041l-0.137-0.041l-0.184-0.059c-0.125-0.045-0.25-0.088-0.346-0.133c-0.032-0.008-0.062-0.018-0.07-0.023
		c-0.064-0.018-0.121-0.037-0.179-0.064c-0.008-0.002-0.016-0.004-0.025-0.006l-0.002,0.004l-0.018-0.012h-0.142v-0.059
		c-0.112-0.045-0.213-0.086-0.316-0.135c-0.027-0.02-0.073-0.041-0.117-0.061l-0.04-0.02l-0.005-0.004l-0.096-0.049l-0.051-0.031
		c-0.024-0.004-0.051-0.018-0.072-0.027c-0.008-0.002-0.014-0.006-0.021-0.012l-0.017,0.008l-0.048-0.031l-0.03-0.021l-0.024,0.004
		L28.506,113c-0.017-0.014-0.025-0.021-0.052-0.031l-0.05-0.023l-0.015-0.012l-0.038-0.004l-0.05-0.039
		c-0.027-0.016-0.044-0.025-0.042-0.025h0.001l-0.114-0.068c-0.005,0-0.014-0.002-0.02-0.008
		C26.138,113.998,25.102,115.301,25.05,116.672z"/>
	<path fill="#FFFFFF" d="M37.318,92.77c0-3.822-2.376-6.928-5.29-6.928c-2.926,0-5.292,3.104-5.292,6.928s2.365,6.957,5.292,6.957
		C34.941,99.727,37.318,96.592,37.318,92.77z"/>
	<path fill="#FFFFFF" d="M32.07,70.999c-17.673,0-32,14.326-32,32.001c0,17.672,14.327,32,32,32c17.673,0,32-14.328,32-32
		C64.07,85.325,49.745,70.999,32.07,70.999z M15.729,91.379v-0.002h0.002c-1.2,0-2.283-0.586-3.136-1.689
		c-0.313-0.441-0.457-0.73-0.328-0.992c0.071-0.161,0.222-0.266,0.428-0.271c0.18,0,0.417,0.094,0.703,0.277
		c0.361,0.246,0.808,0.373,1.322,0.373l0.066-0.002c0.779-0.018,1.586-0.309,2.398-0.867c1.172-0.869,1.759-1.064,2.288-1.092h0.075
		c0.305,0,0.566,0.018,0.821,0.053c-0.497-0.529-1.006-0.756-1.676-0.756l-0.069,0.003c-0.484,0.011-1.236,0.3-2.158,0.835
		c-1.104,0.588-2.057,0.908-2.818,0.922l-0.076,0.002c-1.606,0-2.605-1.255-2.938-3.797c-0.042-0.535-0.037-1.209,0.208-1.463
		c0.1-0.111,0.232-0.174,0.369-0.176h0.009h0.001c0.353,0,0.61,0.311,0.969,1.168c0.465,1.145,1.188,1.391,1.337,1.391
		c0.266-0.004,0.829-0.145,2.011-0.791c0.991-0.488,1.876-0.742,2.623-0.766h0.064c1.128,0,2.204,0.463,3.088,1.341
		c0.072,0.065,0.127,0.118,0.716,0.896c0.757-0.611,1.615-1.152,2.551-1.609c0.096-0.057,0.166-0.077,0.225-0.077l0.136,0.019
		l0.044,0.1c0.018,0.037,0.074,0.152-0.116,0.404c-0.327,0.416-0.653,0.883-1.003,1.469c-0.45,0.793-0.817,1.596-1.093,2.438
		c-0.271,0.89-0.458,1.775-0.551,2.64c-0.1,0.854-0.109,1.76-0.025,2.662c0.087,0.891,0.264,1.756,0.521,2.629
		c0.25,0.842,0.602,1.678,1.044,2.484c0.279,0.469,0.534,0.83,0.77,1.148c0.288,0.379,0.369,0.57,0.304,0.725
		c-0.019,0.039-0.075,0.129-0.213,0.129c-0.2,0-0.554-0.203-0.65-0.262c-4.831-2.566-6.703-6.762-4.931-11.004
		c-0.099,0.054-0.194,0.115-0.29,0.193c-1.146,0.865-2.118,1.295-2.94,1.316H15.729L15.729,91.379z M43.025,122.48
		c-0.331,0.303-0.406,0.332-0.485,0.332l-0.118-0.004l-0.048-0.096c-0.043-0.092-0.052-0.164,0.276-0.568
		c0.253-0.395,0.42-0.715,0.638-1.213c0.085-0.146,0.23-0.564,0.345-1.02c0.097-0.49,0.151-0.918,0.162-1.344
		c0.003-0.055,0.004-0.125,0.004-0.186v-0.129v-0.125c-0.004-0.049-0.007-0.1-0.011-0.146c-0.002-0.043-0.003-0.084-0.007-0.133
		c-0.013-0.166-0.029-0.334-0.061-0.512c-0.044-0.324-0.119-0.631-0.243-0.982c-0.102-0.285-0.23-0.572-0.417-0.951
		c-0.166-0.301-0.359-0.59-0.584-0.859c-0.177-0.223-0.414-0.51-0.707-0.775c-0.225-0.213-0.492-0.455-0.808-0.68l-0.122-0.082
		l-0.146-0.1c-0.091-0.059-0.156-0.102-0.227-0.139l-0.136-0.076c-0.12-0.064-0.244-0.137-0.374-0.189
		c-0.247-0.129-0.518-0.271-0.797-0.404c-0.66-0.301-1.284-0.564-1.885-0.818c-0.267-0.096-0.55-0.199-0.841-0.307
		c-0.479-0.178-0.986-0.363-1.516-0.547l-0.705-0.232c-0.645-0.211-1.29-0.432-2.034-0.656c-0.019-0.008-0.036-0.012-0.075-0.021
		c-0.052-0.008-0.096-0.02-0.135-0.039c-0.072-0.016-0.136-0.033-0.229-0.061c-0.092-0.029-0.202-0.068-0.297-0.121l-0.088-0.033
		c-0.056-0.018-0.115-0.041-0.169-0.063c-0.139-0.055-0.248-0.1-0.348-0.143c-0.061-0.021-0.109-0.051-0.138-0.064l-0.021-0.014
		l-0.018-0.018l-0.053-0.023l-0.01-0.006l-0.062-0.037l-0.004-0.002c-0.023-0.006-0.062-0.02-0.099-0.057l0.116-0.133l-0.167,0.107
		c-0.044-0.023-0.086-0.055-0.126-0.076l-0.036-0.021l-0.042-0.021c-0.103-0.051-0.204-0.1-0.318-0.18
		c-0.058-0.049-0.127-0.098-0.203-0.16c-0.077-0.043-0.159-0.094-0.246-0.162l-0.014-0.01l-0.02-0.018
		c-0.067-0.047-0.119-0.1-0.165-0.143l-0.04-0.037c-0.048-0.057-0.087-0.102-0.093-0.109c-0.026-0.029-0.063-0.074-0.074-0.1
		c-0.019-0.027-0.054-0.094-0.063-0.133c-0.025-0.043-0.06-0.107-0.076-0.146c-0.014-0.023-0.042-0.086-0.063-0.145
		c-0.012-0.033-0.023-0.068-0.039-0.115l-0.03-0.074l-0.027-0.088c-0.018-0.053-0.034-0.098-0.034-0.105
		c-0.008-0.025-0.039-0.102-0.063-0.34c-0.02-0.125-0.02-0.361,0.001-0.479c0.011-0.088,0.045-0.357,0.088-0.498
		c0.024-0.1,0.118-0.414,0.175-0.525l0.051-0.137c0.053-0.145,0.126-0.34,0.193-0.479c0.016-0.035,0.061-0.119,0.116-0.205
		l0.083-0.141c0.014-0.021,0.027-0.037,0.042-0.037c-0.016,0-0.033,0-0.051,0.004c-0.035,0.023-0.06,0.053-0.087,0.068
		c-0.028,0.023-0.053,0.053-0.082,0.068l-0.192,0.16c-0.045,0.055-0.086,0.086-0.125,0.117l-0.025,0.021
		c-0.045,0.043-0.086,0.088-0.122,0.125l-0.052,0.057l-0.061,0.064c-0.019,0.023-0.036,0.047-0.04,0.047l-0.071,0.102l-0.031,0.043
		l-0.054,0.074l-0.064,0.086c-0.041,0.057-0.086,0.121-0.125,0.166c-0.042,0.047-0.078,0.105-0.114,0.172
		c-0.069,0.107-0.129,0.217-0.196,0.346l-0.02,0.049l-0.013,0.016h-0.001l-0.001,0.004l-0.006,0.01
		c-0.006,0.012-0.012,0.02-0.019,0.031l-0.013,0.039l-0.012,0.012l-0.008,0.02l-0.014,0.02c-0.002,0.008-0.008,0.02-0.014,0.033
		l-0.003,0.01l-0.011,0.021l-0.021,0.053l-0.008,0.004v0.002l-0.002,0.002c-0.001,0.006-0.003,0.014-0.005,0.02l-0.009-0.004
		l-0.005,0.006l-0.009-0.006l-0.015,0.008c0.005-0.004,0.009-0.006,0.015-0.01l-0.011-0.01l-0.129-0.045l0.147,0.115l-0.011,0.033
		c-0.001,0.008-0.004,0.018-0.005,0.023l-0.001,0.006l-0.004,0.012v0.012l-0.002,0.006v0.076l-0.026,0.016l-0.009,0.057
		l-0.002,0.002l-0.009,0.041l-0.012,0.063l-0.007,0.041l-0.003,0.014l-0.002,0.039v0.012c-0.003,0.018-0.008,0.051-0.014,0.072
		L27.4,106.77l0.165,0.053l-0.005,0.086l-0.003,0.02v0.057v0.063v0.049v0.051l0.001,0.047v0.006l0.003,0.074v0.006l0.006,0.037v0.02
		l0.009,0.051v0.01l0.011,0.045v0.021l0.001,0.039v0.016l0.002,0.018l0.014,0.01v0.094l0.008,0.027l0.002,0.035l0.01,0.035
		l0.002,0.016l0.012,0.049l0.002,0.014l0.005,0.039l0.006,0.02l0.011,0.014v0.033l0.013,0.041l0.002,0.012l0.001,0.004l0.014,0.01
		v0.055c0.011,0.02,0.018,0.043,0.038,0.1c0.016,0.037,0.032,0.074,0.058,0.125l0.053,0.082c0.013,0.016,0.033,0.047,0.038,0.063
		c0.021,0.031,0.046,0.07,0.078,0.115l0.032,0.055l0.002,0.006l0.032,0.043v0.01l0.004,0.008c0.029,0.051,0.057,0.094,0.106,0.166
		c0.011,0.018,0.024,0.037,0.038,0.055l-0.124,0.123l0.164-0.072l0.033,0.043l0.01,0.012c0.01,0.018,0.021,0.033,0.058,0.076
		l0.027,0.041l0.008,0.012l0.055,0.066l0.055,0.068c0.035,0.047,0.059,0.07,0.084,0.088c0.015,0.016,0.028,0.031,0.042,0.047
		c0.016,0.018,0.031,0.033,0.044,0.043l0.039,0.037c0.022,0.021,0.052,0.047,0.076,0.066l-0.111,0.129l0.153-0.094l0.052,0.045
		c0.046,0.037,0.092,0.074,0.141,0.109l0.092,0.064c0.018,0.016,0.036,0.023,0.055,0.037c0.029,0.021,0.059,0.039,0.094,0.064
		c0.021,0.016,0.047,0.033,0.09,0.057c0.053,0.027,0.098,0.057,0.149,0.08c0.07,0.037,0.134,0.07,0.214,0.105l0.054,0.031
		c0.011,0.006,0.021,0.014,0.036,0.02c0.022,0.008,0.044,0.018,0.061,0.031l0.051,0.027l0.029,0.016l0.01,0.008
		c0.026,0.014,0.05,0.029,0.067,0.037l0.031-0.006l0.036,0.043l0.019,0.02l0.087,0.035l0.135,0.057
		c0.067,0.031,0.152,0.064,0.246,0.105l0.083,0.031l0.14,0.033v0.02c0.39,0.16,0.617,0.23,0.804,0.285l0.099,0.031
		c1.657,0.516,2.79,0.887,3.765,1.244l0.323,0.117l0.841,0.279c1.444,0.57,2.539,1.092,3.318,1.588
		c0.27,0.182,0.481,0.34,0.66,0.494c0.208,0.172,0.389,0.354,0.555,0.52c0.096,0.107,0.186,0.215,0.271,0.328
		c0.104,0.143,0.197,0.295,0.28,0.447c0.027,0.045,0.056,0.098,0.086,0.152l0.033,0.064l0.042,0.076
		c0.014,0.029,0.03,0.064,0.055,0.113l0.052,0.107c0.024,0.051,0.045,0.094,0.062,0.139l0.027,0.059
		c0.014,0.023,0.026,0.047,0.053,0.102c0.006,0.021,0.019,0.063,0.04,0.117c0.016,0.043,0.032,0.098,0.039,0.129
		c0.018,0.057,0.033,0.115,0.048,0.168c0.01,0.043,0.018,0.082,0.039,0.146c0.004,0.053,0.012,0.084,0.022,0.127
		c0.018,0.07,0.026,0.131,0.029,0.182c0.018,0.084,0.027,0.188,0.037,0.297c0.005,0.051,0.01,0.104,0.012,0.162l0.008,0.1v0.164
		v0.064v0.064c0,0.027-0.001,0.057-0.003,0.086l-0.003,0.064c-0.005,0.094-0.011,0.199-0.018,0.291
		c-0.005,0.068-0.016,0.135-0.022,0.197l-0.011,0.08c-0.005,0.037-0.014,0.074-0.02,0.107l-0.013,0.055l-0.013,0.063
		c-0.005,0.033-0.013,0.07-0.018,0.088c-0.019,0.092-0.04,0.168-0.058,0.248l-0.021,0.088c-0.016,0.055-0.033,0.104-0.049,0.15
		l-0.027,0.084l-0.014,0.053l-0.004,0.012c-0.008,0.021-0.018,0.037-0.021,0.037c-0.001,0-0.002,0-0.002,0
		c-0.016,0.057-0.032,0.102-0.052,0.15c-0.016,0.033-0.028,0.066-0.042,0.096c-0.009,0.025-0.018,0.049-0.021,0.057l-0.03,0.078
		l-0.001,0.006v0.111h-0.006v0.039h-0.054c-0.014,0.039-0.024,0.07-0.034,0.074c-0.01,0.021-0.017,0.041-0.025,0.059
		c-0.013,0.021-0.021,0.043-0.038,0.07c-0.022,0.039-0.04,0.08-0.056,0.119l-0.037,0.086l-0.023,0.051
		c-0.021,0.045-0.042,0.088-0.051,0.096c-0.02,0.057-0.047,0.105-0.082,0.174l-0.053,0.094l-0.019,0.027l-0.035,0.063l-0.001,0.002
		c-0.001,0-0.001,0-0.001,0l-0.013,0.037l-0.004,0.078l-0.067,0.012l-0.022,0.035l-0.003,0.006c-0.02,0.02-0.034,0.043-0.061,0.08
		l-0.125,0.156c-0.04,0.051-0.081,0.098-0.113,0.139c-0.026,0.033-0.05,0.066-0.07,0.094l-0.019,0.033l-0.007,0.008l-0.098,0.115
		l-0.054,0.063l-0.001,0.105h-0.089l-0.02,0.021l-0.024,0.02c-0.025,0.021-0.047,0.045-0.068,0.063l-0.036,0.035l-0.043,0.043
		l-0.055,0.055l-0.066,0.055l-0.038,0.039l-0.055,0.055c-0.053,0.045-0.104,0.09-0.148,0.131c-0.101,0.105-0.211,0.203-0.325,0.303
		l-0.008,0.006l-0.016,0.031l-0.053,0.025c-0.013,0.01-0.024,0.018-0.031,0.018c-0.001,0-0.002-0.002-0.002-0.004
		c-0.029,0.035-0.061,0.055-0.073,0.057l-0.042,0.031l-0.004,0.002c-0.026,0.023-0.06,0.047-0.075,0.055
		c-0.039,0.031-0.083,0.064-0.133,0.1l-0.051,0.031l-0.037,0.027l-0.007,0.008l-0.03,0.021l0.001,0.023l-0.012,0.006l-0.013,0.041
		h-0.079l-0.019,0.02l-0.017,0.012l-0.069,0.049c-0.012,0.006-0.023,0.016-0.039,0.021c-0.018,0.018-0.041,0.037-0.057,0.037
		l-0.02,0.01c-0.017,0.01-0.031,0.018-0.042,0.021c-0.014,0.014-0.032,0.023-0.054,0.037c-0.025,0.02-0.052,0.029-0.088,0.047
		l-0.037,0.021l-0.002,0.002c-0.02,0.012-0.039,0.02-0.043,0.021c-0.044,0.023-0.078,0.041-0.09,0.043
		c-0.019,0.016-0.041,0.021-0.071,0.037c-0.018,0.018-0.042,0.027-0.077,0.041l-0.028,0.029h-0.029l-0.041,0.018l-0.008,0.006
		l-0.01,0.016l-0.024,0.012c-0.009,0.004-0.019,0.01-0.034,0.018l-0.042,0.021l-0.019,0.002c-0.001,0-0.002,0.002-0.003,0.002
		l-0.02,0.021h-0.029c-0.007,0.004-0.016,0.006-0.021,0.01c-0.048,0.021-0.131,0.061-0.238,0.1l-0.045,0.018l-0.013,0.014
		l-0.028,0.006l-0.054,0.021l-0.014,0.004c-0.041,0.02-0.076,0.025-0.13,0.045c-0.02,0.008-0.033,0.014-0.038,0.014
		c-0.033,0.025-0.067,0.037-0.088,0.043l-0.007,0.004l-0.021,0.01l-0.028,0.014l-0.014,0.002l-0.038,0.016l-0.001,0.002
		l-0.041,0.014l-0.077,0.029l-0.141,0.047c-0.068,0.016-0.141,0.033-0.254,0.066c-0.017,0.012-0.038,0.016-0.058,0.018l-0.016,0.004
		l-0.012,0.002l-0.043,0.012l-0.004,0.002L36.6,125l-0.076,0.02l-0.132,0.029l-0.067,0.016l-0.045,0.014h-0.011
		c-0.051,0.008-0.108,0.018-0.204,0.037l-0.05,0.008c-0.021,0.008-0.054,0.018-0.063,0.018c-0.001,0-0.002,0-0.002-0.002
		l-0.055,0.012h-0.007c-0.007,0.002-0.013,0.002-0.02,0.004l-0.01,0.002h-0.01l-0.062,0.018l-0.064,0.014l-0.054,0.014l-0.043,0.012
		c-0.026,0.006-0.052,0.01-0.073,0.014l-0.024,0.01h-0.019l-0.01,0.002h-0.005l-0.008,0.002h-0.013l-0.003,0.002l-0.009,0.004
		l-0.014,0.006l-0.045,0.006v-0.002l-0.012,0.006h-0.033l-0.016,0.002l-0.076,0.01l-0.008,0.002
		c-0.022,0.004-0.048,0.012-0.062,0.012c-0.06,0.012-0.115,0.014-0.162,0.016c-0.02,0.002-0.038,0.004-0.054,0.008
		c-0.017,0-0.028,0.004-0.042,0.006c-0.03,0.008-0.059,0.012-0.084,0.014c-0.027,0.006-0.051,0.01-0.068,0.01
		c-0.002,0-0.003,0-0.004,0c-0.015,0.004-0.033,0.006-0.079,0.008l-0.054,0.006c-0.02,0.002-0.042,0.006-0.046,0.006
		c-0.002,0-0.002,0,0.003-0.002c-0.017,0.006-0.04,0.014-0.064,0.016c-0.018,0.002-0.033,0.006-0.044,0.006
		c-0.004,0-0.008,0-0.01-0.002c-0.028,0.008-0.055,0.012-0.076,0.012c-0.003,0-0.006,0-0.01,0s-0.012,0.002-0.019,0.002
		c-0.01,0-0.018-0.002-0.026-0.006l-0.035,0.012l-0.025,0.002l-0.045,0.006h-0.005l-0.057,0.006l-0.048,0.002h-0.003l-0.046,0.004
		c-0.024,0.002-0.04,0.002-0.055,0.002l-0.048,0.01h-0.037h-0.034c-0.027,0.004-0.054,0.006-0.071,0.006c-0.001,0-0.002,0-0.004,0
		c-0.047,0.002-0.082,0.002-0.133,0.002h-0.045l-0.02,0.002h-0.024h-0.051h-0.05h-0.054l-0.045-0.002h-0.19l-0.173-0.002
		c-0.039,0-0.083-0.002-0.112-0.004c-0.096-0.002-0.197-0.006-0.288-0.014l-0.281-0.018l-0.226-0.012
		c-0.166-0.018-0.333-0.039-0.49-0.061l-0.139-0.018c-0.101-0.01-0.209-0.021-0.324-0.039c-0.323-0.055-0.614-0.102-0.805-0.137
		c-0.309-0.041-0.886-0.195-1.323-0.334l-0.229-0.08c-0.118-0.039-0.236-0.078-0.344-0.117c-0.42-0.158-0.802-0.314-1.125-0.477
		c-0.195-0.092-0.381-0.189-0.465-0.234c-0.611-0.332-0.927-0.531-1.237-0.77c-0.067-0.039-1.662-0.969-2.642-2.516
		c-1.057-1.686-1.338-3.281-0.843-4.711c0.55-1.604,1.917-2.705,2.965-3.348c-2.506,0.752-4.058,1.918-4.569,3.457
		c-0.886,2.602,1.402,5.59,2.124,6.436c0.087,0.082,0.219,0.201,0.161,0.348l-0.075,0.125h-0.118c-0.08,0-0.183-0.041-0.233-0.063
		c-1.487-0.746-6.195-3.477-5.149-7.605c1.157-3.697,6.984-4.17,8.525-4.23c-0.057-0.072-0.105-0.141-0.149-0.207
		c-0.168-0.242-0.319-0.465-0.454-0.682c-0.113-0.189-0.206-0.367-0.285-0.555c-0.017-0.031-0.03-0.068-0.043-0.104
		c-0.02-0.033-0.035-0.07-0.048-0.109l-0.04-0.121c-0.017-0.035-0.029-0.078-0.039-0.117l-0.023-0.084l-0.015-0.055
		c-0.017-0.039-0.026-0.074-0.048-0.148l-0.01-0.041v-0.006c-0.01-0.031-0.017-0.064-0.017-0.074
		c-0.025-0.082-0.045-0.154-0.065-0.266l-0.017-0.082v-0.002l-0.026-0.098l-0.011-0.053l-0.001-0.006
		c-0.006-0.027-0.009-0.059-0.013-0.088c-0.006-0.021-0.01-0.047-0.017-0.105c-0.001-0.016-0.003-0.029-0.004-0.043
		c-0.007-0.025-0.007-0.043-0.005-0.045c-0.006-0.023-0.008-0.043-0.013-0.084l-0.007-0.045v-0.002
		c-0.005-0.027-0.01-0.059-0.012-0.082c-0.012-0.121-0.021-0.252-0.025-0.395c-0.004-0.1-0.004-0.197-0.004-0.305
		c0-0.055,0.001-0.084,0.008-0.131c0.013-0.082,0.031-0.197,0.085-0.467l0.001-0.025l0.006-0.021
		c0.002-0.01,0.009-0.027,0.015-0.063c0.06-0.248,0.124-0.439,0.184-0.605l0.015-0.029l0.004-0.008
		c0.019-0.07,0.046-0.139,0.073-0.201l0.026-0.066c0.037-0.09,0.077-0.16,0.111-0.223l0.038-0.064l0.01-0.02v-0.002l0.001-0.004
		l0.003-0.004l0.009-0.014l0.071-0.113l0.085-0.133c0.018-0.031,0.039-0.055,0.068-0.094l0.075-0.107
		c0.033-0.049,0.063-0.09,0.103-0.152c0.032-0.043,0.062-0.072,0.09-0.102c0.019-0.016,0.034-0.035,0.047-0.051l0.162-0.184
		l0.105-0.143l0.02-0.025l0.03-0.02c0.017-0.01,0.034-0.029,0.053-0.049c0.016-0.016,0.03-0.025,0.043-0.037
		c0.033-0.037,0.056-0.059,0.089-0.092c0.095-0.09,0.162-0.148,0.224-0.201l0.053-0.045c0.106-0.078,0.201-0.158,0.291-0.23
		l0.01-0.02l0.021-0.02c0.079-0.057,0.17-0.121,0.236-0.166l0.056-0.037l0.053-0.037l0.146-0.094c0.1-0.063,0.216-0.137,0.338-0.223
		l0.027-0.025l0.018-0.008c0.026-0.01,0.066-0.021,0.233-0.102c0.042-0.021,0.09-0.045,0.287-0.137
		c0.026-0.014,0.05-0.023,0.107-0.057l0.196-0.1c0.046-0.023,0.104-0.051,0.33-0.152c0.017-0.006,0.031-0.012,0.054-0.02
		c-0.241-0.117-0.481-0.256-0.715-0.42c-0.56-0.355-1.059-0.764-1.513-1.236c-0.458-0.471-0.854-0.945-1.21-1.518
		c-0.406-0.658-0.743-1.393-1.03-2.18c-0.342-0.997-0.556-2.045-0.632-3.102c-0.075-1.072-0.004-2.127,0.213-3.182
		c0.209-1.07,0.56-2.084,1.022-3.008c0.224-0.42,0.5-0.865,0.815-1.285c0.324-0.461,0.706-0.869,1.008-1.18
		c0.445-0.408,0.822-0.717,1.218-0.979c0.396-0.27,0.855-0.514,1.34-0.73c0.517-0.172,1.008-0.313,1.507-0.407
		c0.423-0.074,0.843-0.111,1.277-0.111c0.101,0,0.201,0.002,0.299,0.007c0.491,0.019,0.987,0.094,1.521,0.229
		c0.498,0.135,1.002,0.297,1.453,0.526c0.462,0.228,0.895,0.496,1.327,0.824c0.503,0.393,0.961,0.869,1.464,1.467
		c0.433,0.549,0.811,1.14,1.127,1.73c0.438,0.855,0.764,1.797,0.973,2.783c0.205,0.969,0.292,1.936,0.256,2.932
		c-0.033,0.969-0.192,1.957-0.469,2.916c-0.266,0.912-0.664,1.809-1.193,2.67c-0.25,0.408-0.635,0.938-0.914,1.23
		c-0.254,0.289-0.48,0.529-0.707,0.746c-0.02,0.021-0.073,0.064-0.637,0.5c-0.082,0.059-0.219,0.15-0.32,0.219l-0.108,0.074
		c-0.264,0.16-0.583,0.35-0.625,0.373c-0.306,0.16-0.688,0.348-0.87,0.428c-0.284,0.131-0.714,0.332-0.771,0.357
		c-0.025,0.01-0.052,0.021-0.106,0.051c-0.03,0.014-0.057,0.027-0.112,0.053c-0.036,0.023-0.08,0.043-0.082,0.043
		c-0.058,0.027-0.22,0.117-0.266,0.15c-0.017,0.01-0.031,0.018-0.039,0.021c-0.047,0.037-0.089,0.064-0.13,0.094
		c-0.028,0.02-0.053,0.039-0.101,0.08c-0.013,0.01-0.027,0.018-0.037,0.027l-0.066,0.055l-0.008,0.008
		c-0.059,0.043-0.133,0.098-0.173,0.131c-0.002,0.002-0.253,0.248-0.347,0.33c-0.013,0.018-0.03,0.037-0.05,0.064
		c-0.054,0.064-0.125,0.154-0.159,0.211c-0.091,0.088-0.162,0.188-0.245,0.348l-0.028,0.059l-0.001,0.002
		c-0.027,0.041-0.042,0.074-0.058,0.115c-0.049,0.107-0.054,0.16-0.063,0.262c-0.042,0.201-0.02,0.355,0.003,0.48
		c0.007,0.154,0.032,0.219,0.061,0.277c0.096,0.219,0.178,0.324,0.233,0.383l0.042,0.047l0.056,0.061l0.04,0.035
		c0.014,0.012,0.027,0.027,0.065,0.053l-0.069,0.162l0.112-0.133l0.035,0.025l0.009,0.008l0.037,0.02l0.01,0.008
		c0.016,0.014,0.033,0.021,0.088,0.051c0.053,0.041,0.09,0.064,0.084,0.066l0.062,0.027l0.011,0.008l0.063,0.029
		c0.03,0.016,0.055,0.025,0.088,0.037c0.022,0.008,0.045,0.014,0.068,0.023l0.053,0.012l0.029,0.018l0.058,0.02
		c0.031,0.006,0.06,0.016,0.09,0.025c0.012,0.008,0.024,0.012,0.051,0.018c0.083,0.025,0.152,0.053,0.253,0.088
		c0.054,0.02,0.111,0.031,0.179,0.045c0.132,0.031,0.27,0.072,0.413,0.119c0.139,0.051,0.285,0.096,0.435,0.145l0.055,0.021
		c0.433,0.143,0.824,0.273,1.226,0.412c0.391,0.107,9.545,2.682,10.729,7.838C46.982,117.541,45.825,120,43.025,122.48z
		 M53.435,84.381c-0.333,2.527-1.331,3.786-2.967,3.786l-0.077-0.001c-0.73-0.014-1.68-0.332-2.807-0.922
		c-0.928-0.533-1.676-0.822-2.14-0.835l-0.071-0.002c-0.667,0-1.178,0.228-1.674,0.758c0.255-0.038,0.521-0.054,0.828-0.054h0.085
		c0.514,0.027,1.084,0.223,2.237,1.086c0.834,0.563,1.655,0.855,2.437,0.873l0.067,0.002c0.506,0,0.927-0.125,1.289-0.373
		c0.198-0.126,0.477-0.277,0.724-0.277h0.001c0.177,0.008,0.335,0.104,0.419,0.266c0.14,0.271-0.011,0.56-0.342,1.004
		c-0.847,1.103-1.903,1.687-3.108,1.687h-0.089c-0.846-0.021-1.817-0.45-2.943-1.319c-0.089-0.074-0.185-0.14-0.281-0.193
		c1.749,4.256-0.104,8.457-4.951,11.016c-0.098,0.061-0.439,0.262-0.635,0.262c-0.144,0-0.204-0.088-0.224-0.125
		c-0.072-0.148,0.016-0.346,0.31-0.721c0.006-0.012,0.542-0.77,0.778-1.162c0.447-0.824,0.798-1.664,1.043-2.49
		c0.241-0.877,0.405-1.742,0.489-2.629c0.087-0.896,0.079-1.803-0.018-2.662c-0.091-0.852-0.265-1.736-0.526-2.637
		c-0.267-0.842-0.635-1.641-1.09-2.438c-0.351-0.592-0.676-1.059-1.023-1.477c-0.19-0.234-0.131-0.352-0.116-0.389
		c0.036-0.076,0.109-0.123,0.198-0.123c0.063,0,0.144,0.021,0.255,0.079c0.934,0.46,1.78,0.998,2.5,1.601
		c0.566-0.757,0.638-0.824,0.708-0.895c0.916-0.879,1.995-1.344,3.099-1.344h0.063c0.739,0.021,1.633,0.277,2.659,0.771
		c1.172,0.645,1.706,0.783,1.97,0.787c0.008,0,0.804-0.082,1.358-1.391c0.363-0.854,0.619-1.172,0.978-1.172h0.006h0.002
		c0.133,0.002,0.269,0.066,0.37,0.179C53.418,83.116,53.49,83.588,53.435,84.381z"/>
</g>
</svg>
