<svg xmlns="http://www.w3.org/2000/svg" width="96" height="96" viewBox="0 0 96 96"><path fill-rule="evenodd" clip-rule="evenodd" fill="#FFF" d="M48 96C21.49 96 0 74.51 0 48S21.49 0 48 0s48 21.49 48 48-21.49 48-48 48zM37.919 23.384a17.997 17.997 0 0 0-3.656 2.346c-.93-1.233-1.016-1.314-1.107-1.398-1.176-1.128-2.633-1.806-4.219-1.775-.982.024-2.178.364-3.553 1.022-1.34.735-2.297 1.104-2.865 1.115-.25.002-1.357-.321-2.086-2.063-.527-1.256-.828-1.504-1.143-1.499a.463.463 0 0 0-.334.163c-.291.316-.271 1.307-.229 1.875.447 3.402 1.771 5.103 3.947 5.053 1.004-.018 2.277-.445 3.797-1.279 1.342-.771 2.383-1.164 3.094-1.181 1.133-.025 2.047.348 3.02 1.637-.596-.15-1.137-.203-1.842-.198-.631.034-1.393.269-3.006 1.5-1.186.796-2.359 1.216-3.486 1.241-.791.017-1.48-.166-2.047-.55-.256-.163-.607-.353-.854-.343a.408.408 0 0 0-.371.231c-.123.238-.006.525.439 1.126 1.141 1.479 2.604 2.267 4.244 2.228 1.117-.028 2.406-.603 3.949-1.765a2.54 2.54 0 0 1 .986-.509c-2.775 5.967-.244 11.896 6.496 15.489 0 0 1.637.991.473-.452a20.9 20.9 0 0 1-1.078-1.656 17.791 17.791 0 0 1-1.461-3.472 20.159 20.159 0 0 1-.727-3.701 18.198 18.198 0 0 1 .039-3.756c.133-1.249.395-2.48.764-3.678.387-1.193.9-2.353 1.525-3.448.432-.721.883-1.403 1.43-2.055.002.001.398-.516-.139-.248zm18.48 1.878c-.615-.729-1.273-1.401-2.016-1.975a10.321 10.321 0 0 0-1.787-1.113 10.263 10.263 0 0 0-1.957-.748 10.148 10.148 0 0 0-2.08-.309c-.73-.022-1.422.019-2.123.145-.693.125-1.357.322-2.029.59a11.25 11.25 0 0 0-1.84.977c-.598.397-1.123.838-1.643 1.322-.48.491-.955 1.011-1.361 1.586a12.671 12.671 0 0 0-1.115 1.787 14.861 14.861 0 0 0-1.412 4.075 16.13 16.13 0 0 0-.291 4.361c.105 1.436.402 2.881.863 4.251.375 1.041.85 2.033 1.434 2.948.48.773 1.016 1.456 1.635 2.088a10.71 10.71 0 0 0 2.039 1.665c.473.329.945.585 1.453.78-.172.085-.18.088-.193.092-.281.114-.34.145-.4.166-.283.128-.357.161-.422.194-.291.153-.35.182-.408.209a9.06 9.06 0 0 0-.402.198c-.283.127-.322.138-.359.149-.26.184-.496.329-.668.443-.047.028-.086.058-.146.099a8.802 8.802 0 0 0-.316.224.05.05 0 0 1-.018.02c-.109.097-.26.227-.436.35-.094.082-.195.171-.35.318-.023.028-.057.053-.123.131-.043.03-.105.103-.176.145-.102.13-.213.275-.371.485-.055.066-.117.12-.193.214-.063.103-.145.207-.232.336-.027.041-.057.077-.094.133-.057.095-.137.215-.209.333-.006.015-.018.025-.023.038-.063.111-.137.218-.209.38-.045.104-.1.221-.137.339-.012.026-.021.053-.031.079a6.475 6.475 0 0 0-.254.801l-.023.104c-.08.423-.107.58-.121.691-.004.033-.008.065-.008.131 0 .143.002.278.008.409.004.19.016.365.033.523.004.065.014.12.021.171.006.032.006.058.01.087l.006.034c0 .016.002.025.01.035 0 .043.01.092.016.146.002.027.008.058.012.09.004.028.008.063.014.091a.835.835 0 0 1 .016.082c.018.094.035.169.047.227.006.035.014.063.02.097.021.104.047.189.08.299.01.054.027.107.041.161.02.061.033.118.059.181.021.072.049.153.07.223.016.064.041.123.063.177.016.048.035.099.049.145a.52.52 0 0 0 .055.108c.02.059.051.121.076.182.102.226.23.463.377.711.182.289.385.593.619.923.146.23.33.446.531.649 0 0-10.334-.021-12.111 5.713-1.438 5.598 5.191 9.358 7.004 10.27 0 0 .523.217.1-.177-1.746-2.058-8.91-11.605 5.639-14.647 0 0-9.912 3.655-4.83 11.78 1.334 2.142 3.594 3.423 3.594 3.423.455.345.896.612 1.699 1.052a17.372 17.372 0 0 0 2.158.964c.242.088.527.172.813.269.678.212 1.412.415 1.791.477.275.063.67.128 1.111.2.221.03.441.054.629.075.219.029.447.056.674.079.227.014.434.026.682.036.127.01.26.014.391.018.064.003.137.003.201.005.068.002.141.002.209.002h.277c.051 0 .096.004.139.004h.139c.018 0 .035 0 .055-.004h.064c.066 0 .117 0 .178-.004.02 0 .043 0 .068-.003l.049-.001h.023c.008-.003.014-.003.023-.003l.051-.003c.016-.001.037-.001.057-.008.018 0 .031 0 .051-.002l.021-.002.074-.004.133-.007c.023-.003.049-.007.072-.007.014-.004.029-.004.047-.008l.035-.003c.016 0 .035 0 .051-.002a.79.79 0 0 0 .082-.009c.021 0 .033-.002.043-.003.008 0 .025-.004.053-.01.025 0 .047-.006.072-.011.029 0 .068-.009.104-.013l.117-.01c.02 0 .037-.004.057-.004.023 0 .043-.007.063-.011.043-.004.086-.006.119-.015.045-.004.09-.018.156-.021.068-.004.133-.009.207-.019l.137-.021c.016-.003.043-.003.066-.006.01-.005.02-.005.031-.006h.016l.006-.002h.014a.428.428 0 0 0 .043-.004c.01-.003.023-.003.031-.007.023-.007.037-.007.053-.013l.016-.001h.016c.004-.001.01-.001.014-.004.004 0 .014-.004.02-.004.041-.007.1-.02.172-.035.072-.015.123-.022.168-.033.043-.009.076-.018.102-.025h.016l.006-.001.008-.002h.012l.018-.003c.014-.001.025-.004.035-.006.039-.005.072-.021.105-.034.035-.007.066-.013.1-.018.102-.025.193-.045.273-.06.037-.007.068-.02.1-.026a.628.628 0 0 1 .063-.015c.133-.035.215-.061.279-.075.033-.011.059-.021.082-.025l.078-.021.031-.005c.012-.002.023-.002.029-.004.012-.005.025-.007.041-.012.127-.042.242-.075.346-.098.113-.037.203-.068.283-.097.039-.015.07-.021.098-.031.029-.01.053-.019.078-.025a.138.138 0 0 0 .043-.015c.02-.007.049-.011.068-.025.047-.03.096-.043.141-.061.025-.009.045-.018.064-.021a.23.23 0 0 0 .066-.018c.02-.008.051-.023.084-.033.012-.003.031-.014.049-.018a.24.24 0 0 1 .057-.021c.023-.014.045-.021.063-.031.121-.04.225-.085.287-.115.029-.014.051-.023.063-.032.006 0 .01-.007.012-.007l.006-.001.008-.001c.016-.005.035-.01.066-.023.012-.003.025-.015.043-.025a.246.246 0 0 0 .035-.011c.01-.007.018-.018.029-.02.016-.012.033-.018.047-.028l.07-.034c.008-.009.016-.011.02-.011.006-.007.014-.009.018-.011.016-.004.027-.014.041-.015a.153.153 0 0 0 .057-.036c.033-.016.063-.028.092-.046.043-.019.084-.036.139-.066.018-.009.047-.028.076-.041.023-.015.049-.035.08-.05.025-.012.049-.022.07-.036.031-.014.057-.036.082-.054a.406.406 0 0 0 .057-.035.266.266 0 0 1 .049-.019c.012-.004.023-.019.037-.032.033-.015.061-.036.086-.051a.746.746 0 0 1 .068-.048c.01-.009.02-.013.027-.02.012-.009.023-.018.037-.021a.152.152 0 0 0 .031-.036c.004-.005.008-.007.012-.007.002-.002.004-.003.008-.003l.002-.004c.01-.002.016-.008.025-.015l.031-.028c.027-.013.059-.045.086-.061.018-.015.029-.021.045-.032.086-.062.162-.108.221-.158a.724.724 0 0 0 .096-.068c.031-.024.055-.037.08-.057.023-.018.045-.029.063-.047.021-.019.049-.03.07-.046a.264.264 0 0 1 .059-.051.067.067 0 0 1 .031-.023c.004-.002.008-.002.01-.005.154-.135.299-.264.436-.403.07-.069.146-.136.223-.2.033-.041.07-.073.107-.107.037-.034.072-.068.115-.103l.115-.114c.043-.041.088-.078.139-.129a.218.218 0 0 1 .055-.058.252.252 0 0 1 .033-.039c.004-.003.012-.008.016-.02a.023.023 0 0 0 .006-.009c.004-.001.006-.002.006-.006.004-.001.004-.001.004-.006.006-.003.008-.01.014-.012.08-.088.162-.192.25-.295.039-.055.078-.118.129-.18.049-.057.1-.116.15-.183.053-.068.107-.133.172-.218.027-.036.055-.079.092-.123l.053-.078c.006-.008.012-.024.021-.04a.024.024 0 0 0 .012-.021l.012-.006.004-.009.002-.002c.004-.001.004-.002.008-.011.006-.002.008-.006.014-.02a.087.087 0 0 0 .018-.032c.012-.013.021-.021.029-.04.039-.06.078-.125.127-.199.033-.062.072-.126.105-.201.041-.064.08-.143.121-.224.047-.088.086-.185.137-.281.029-.063.051-.132.084-.2a.404.404 0 0 0 .045-.111.184.184 0 0 0 .025-.066.147.147 0 0 0 .014-.028c.002-.002.004-.009.008-.013 0-.011.004-.011.004-.013l.004-.006.002-.001c0-.002.004-.004.004-.004v-.001-.005l.004-.014c.014-.043.027-.086.051-.147.027-.057.055-.139.096-.23.018-.043.039-.097.055-.161.01-.02.027-.05.039-.076.01-.029.016-.054.029-.104.029-.088.066-.172.094-.282.035-.147.074-.283.109-.446.012-.06.025-.142.041-.213.012-.06.029-.133.041-.208a8.93 8.93 0 0 0 .043-.365c.012-.121.018-.262.029-.395 0-.063.006-.121.006-.188v-.091-.043-.047-.057-.169c-.006-.116-.018-.236-.025-.341a3.984 3.984 0 0 0-.043-.379 1.881 1.881 0 0 0-.041-.244c-.016-.064-.031-.121-.043-.205-.031-.111-.061-.252-.102-.389-.016-.054-.035-.125-.053-.183a.854.854 0 0 1-.063-.174c-.029-.063-.063-.148-.092-.215-.049-.116-.102-.217-.154-.344-.031-.052-.063-.119-.088-.17-.027-.052-.063-.118-.088-.169a3.884 3.884 0 0 0-.111-.193 5.353 5.353 0 0 0-.404-.596 9.102 9.102 0 0 0-.365-.438 11.648 11.648 0 0 0-.736-.69 8.23 8.23 0 0 0-.891-.663c-1.068-.681-2.58-1.388-4.561-2.166-.512-.187-1.051-.38-1.6-.582-1.527-.558-3.24-1.108-5.207-1.71-.313-.099-.668-.193-1.41-.505 0-.002-.004-.002-.014-.003-.201-.081-.365-.147-.496-.209a6.766 6.766 0 0 1-.32-.135c-.021-.008-.029-.021-.041-.029l-.027-.02c-.008-.004-.018-.013-.033-.017-.014-.004-.025-.011-.041-.018a.56.56 0 0 0-.066-.041.523.523 0 0 1-.063-.032c-.02-.009-.045-.025-.066-.038a.234.234 0 0 0-.061-.031c-.053-.025-.098-.058-.146-.081a6.653 6.653 0 0 1-.293-.146c-.068-.032-.137-.071-.213-.111-.025-.016-.053-.026-.082-.046-.023-.023-.049-.039-.074-.056-.068-.052-.15-.092-.205-.134-.041-.027-.09-.058-.146-.098-.066-.048-.139-.1-.209-.157-.027-.021-.055-.041-.082-.064l-.057-.047c-.049-.042-.092-.078-.135-.119-.01-.013-.049-.043-.102-.099-.018-.018-.031-.039-.049-.054a.83.83 0 0 1-.143-.158c-.045-.053-.088-.11-.141-.175a.687.687 0 0 0-.045-.063c-.023-.026-.041-.049-.059-.066-.023-.04-.047-.066-.072-.107a.343.343 0 0 1-.057-.068c-.035-.048-.07-.095-.09-.132-.061-.079-.115-.169-.172-.26-.004-.011-.01-.015-.01-.023-.02-.023-.037-.064-.055-.09-.045-.061-.084-.123-.123-.182a.244.244 0 0 0-.035-.063c-.029-.063-.061-.123-.088-.179a3.312 3.312 0 0 1-.113-.249c-.004-.023-.01-.04-.016-.061-.008-.022-.014-.036-.016-.056-.008-.017-.008-.027-.014-.037l-.004-.025a.106.106 0 0 0-.006-.022c-.004-.006-.004-.012-.006-.021l-.004-.024a.074.074 0 0 1-.01-.04c-.006-.016-.006-.028-.014-.043a.708.708 0 0 1-.016-.092c-.004-.019-.006-.038-.01-.053-.002-.016-.006-.026-.008-.039a.278.278 0 0 1-.006-.024.294.294 0 0 0-.012-.054c-.002-.022-.006-.04-.008-.07a.033.033 0 0 0-.006-.019v-.02c-.004-.002-.004-.012-.004-.016l-.002-.019a.502.502 0 0 0-.008-.054l-.002-.031a.42.42 0 0 1-.006-.069c-.004-.026-.008-.049-.008-.075a.38.38 0 0 1-.014-.082.415.415 0 0 1-.008-.083.544.544 0 0 1-.008-.099c0-.032-.006-.074-.006-.117-.002-.031-.002-.06-.002-.085v-.065-.05-.031-.014-.004-.025c0-.009 0-.021.002-.032 0-.018.006-.039.006-.052 0-.032.002-.056.008-.088 0-.024.002-.04.008-.062.002-.014.002-.038.006-.053a.513.513 0 0 0 .014-.083l.004-.039.006-.039c.006-.02.008-.047.01-.072.012-.06.023-.122.033-.184.004-.01.004-.021.006-.031a.085.085 0 0 0 .008-.028c0-.008.002-.014.006-.028 0-.008.002-.014.004-.023l.004-.022c.008-.01.008-.021.016-.027v-.016c.004-.008.006-.012.006-.017.002-.009.01-.016.01-.03.004-.005.006-.016.006-.027.01-.023.012-.038.02-.061l.025-.097c.01-.023.014-.047.02-.064a.104.104 0 0 1 .021-.032c.004-.013.006-.017.014-.021.006-.017.014-.027.021-.047.008-.012.014-.033.02-.052.006-.012.012-.029.018-.036.006-.014.014-.025.016-.032.006-.008.01-.018.012-.021.006-.007.008-.014.012-.021.002-.008.006-.016.01-.026a.048.048 0 0 0 .014-.024l.008-.008a.052.052 0 0 1 .008-.011v-.006c.014-.028.027-.057.045-.082.096-.189.184-.347.279-.501.059-.094.115-.187.18-.263.047-.056.104-.139.154-.211.064-.089.125-.16.174-.227.049-.07.09-.133.135-.193l.162-.182c.066-.067.145-.165.244-.261.066-.056.137-.094.217-.179.09-.068.199-.156.314-.243.078-.062.141-.129.258-.216.082-.031.172-.104.266-.166.057-.041.127-.075.193-.118.139-.073.314-.154.557-.251l-.037.075c-.154.187-.176.216-.195.24-.068.084-.1.12-.135.181-.084.064-.178.218-.246.32a.742.742 0 0 0-.068.097c-.092.15-.234.38-.266.451-.141.27-.285.665-.361.842a5.268 5.268 0 0 0-.24.696 4.998 4.998 0 0 0-.111.648 2.464 2.464 0 0 0-.004.594c.014.135.043.328.076.423.018.063.064.196.092.287.02.044.031.08.043.11.018.05.033.089.045.129.033.072.066.146.084.179.033.071.102.186.125.229a.87.87 0 0 0 .061.129c.02.03.053.072.086.104.027.033.074.09.139.157.07.064.146.14.25.216.01.009.021.02.037.026.248.202.473.359.643.5.15.102.299.171.451.247.072.046.15.093.229.138.041.021.082.041.119.064.021.02.045.026.068.037.02.006.039.019.061.032l.059.034c.016.002.027.013.049.021a.251.251 0 0 1 .076.048c.031.02.092.052.172.084.117.05.273.116.479.193.135.061.256.097.359.14.139.071.277.122.393.159.121.037.213.063.316.084a.535.535 0 0 0 .145.045c.051.011.104.021.154.042 1.383.419 2.623.839 3.797 1.219 1.18.41 2.26.821 3.262 1.178.98.399 1.857.783 2.641 1.139.404.195.783.396 1.121.589l.697.383c.104.059.201.122.332.208.121.077.24.161.363.244.43.306.801.622 1.176.949.377.35.697.721 1.002 1.101.316.387.594.802.82 1.225.229.449.432.882.598 1.343.158.479.279.936.346 1.438.045.245.068.486.084.722.014.135.014.256.021.382 0 .067.002.135.004.188v.188a11.161 11.161 0 0 1-.236 2.15c-.15.608-.355 1.22-.492 1.496-.277.636-.514 1.1-.896 1.697 0 0-.924 1.142.158.161 15.132-13.564-10.073-20.525-10.073-20.525-.555-.191-1.098-.377-1.703-.575-.232-.074-.463-.145-.676-.225a7.663 7.663 0 0 0-.543-.155c-.088-.013-.172-.038-.26-.063-.127-.043-.23-.084-.365-.125-.064-.012-.123-.037-.182-.049l-.059-.022a.43.43 0 0 1-.104-.036c-.016-.005-.037-.007-.055-.011-.012-.005-.025-.007-.031-.011-.033-.017-.066-.023-.1-.036-.064-.024-.139-.061-.24-.108-.014-.01-.023-.018-.041-.022-.043-.023-.102-.066-.191-.127a1.056 1.056 0 0 1-.125-.077.427.427 0 0 0-.049-.028c-.018-.013-.041-.031-.057-.041-.035-.022-.063-.039-.088-.06-.045-.032-.088-.077-.141-.12-.049-.054-.102-.111-.152-.171-.123-.122-.248-.32-.365-.59a1.05 1.05 0 0 1-.104-.468 1.713 1.713 0 0 1 0-.721c.008-.099.008-.202.102-.41a.958.958 0 0 1 .1-.187.333.333 0 0 1 .053-.105c.1-.192.201-.334.332-.51.045-.079.268-.348.303-.397.1-.08.48-.457.482-.459.072-.061.18-.143.266-.204.025-.021.047-.041.078-.063.033-.027.072-.059.109-.085.043-.033.084-.061.129-.093.059-.036.117-.075.184-.123.023-.017.051-.032.084-.052l.383-.206c.021-.009.092-.043.102-.05l.152-.08c.064-.03.123-.062.188-.084.043-.022.639-.301 1.035-.482.234-.104.752-.358 1.188-.584.051-.029.486-.288.846-.509.105-.068.416-.274.574-.393.324-.248.813-.624.846-.66.393-.349.717-.691 1.006-1.021.365-.419.887-1.134 1.24-1.698a15.116 15.116 0 0 0 1.613-3.622c.365-1.29.59-2.636.641-3.994a16.524 16.524 0 0 0-.352-4.017 15.016 15.016 0 0 0-1.32-3.776 13.985 13.985 0 0 0-1.521-2.385zm20.955-3.968a.47.47 0 0 0-.336-.163c-.317-.005-.619.243-1.139 1.499-.733 1.742-1.836 2.065-2.09 2.063-.57-.011-1.523-.38-2.861-1.115-1.381-.658-2.569-.998-3.557-1.022-1.582-.031-3.043.647-4.221 1.775-.09.084-.18.165-1.102 1.398a18.07 18.07 0 0 0-3.623-2.329c-.572-.272-.176.233-.174.231.545.652 1 1.334 1.43 2.055a18.594 18.594 0 0 1 1.525 3.448c.366 1.198.633 2.429.77 3.678.132 1.237.142 2.506.027 3.756a19.657 19.657 0 0 1-.721 3.701 18.215 18.215 0 0 1-1.457 3.472 50.123 50.123 0 0 1-1.084 1.656c-1.156 1.465.432.474.432.474 6.769-3.591 9.318-9.532 6.535-15.511.344.089.668.245.99.509 1.543 1.162 2.832 1.737 3.945 1.765 1.643.039 3.109-.749 4.248-2.228.447-.601.564-.888.443-1.126a.425.425 0 0 0-.375-.231c-.248-.01-.601.18-.855.343-.565.384-1.26.567-2.047.55-1.123-.025-2.298-.445-3.482-1.241-1.617-1.231-2.381-1.466-3.002-1.5-.713-.005-1.258.048-1.848.198.971-1.289 1.885-1.662 3.018-1.637.715.017 1.76.41 3.096 1.181 1.522.834 2.791 1.261 3.795 1.279 2.172.05 3.502-1.651 3.949-5.053.041-.568.062-1.559-.229-1.875zM48.153 44.686c-4.174 0-7.568-4.405-7.568-9.85 0-5.447 3.395-9.858 7.568-9.858 4.172 0 7.566 4.411 7.566 9.858 0 5.445-3.395 9.85-7.566 9.85zm-5.256 17.74c.053.032.096.06.143.085a.202.202 0 0 0 .053.034c.021.01.041.021.063.035.01.004.02.011.031.015.014.007.027.011.037.021.014.008.027.013.041.02.016.006.025.013.045.023.02.009.033.021.053.032.012.003.021.011.027.015.012.007.025.007.037.014a.07.07 0 0 1 .029.018c.01.008.02.01.029.016a.074.074 0 0 1 .035.014c.023.011.039.021.061.03a.338.338 0 0 0 .072.034c.082.04.168.077.256.122.092.039.189.078.266.127.143.061.316.13.52.213.002 0 .006.003.01.007l.016.004s.002 0 .002.003l.008.001c.025.01.047.021.068.025l.033.012c.074.031.143.056.217.077a.868.868 0 0 0 .102.036c.16.069.332.128.494.187.156.048.307.091.438.136l.33.102c.025.023.059.032.098.043.045.013.086.023.135.041.184.051.371.111.555.165.098.04.186.062.275.093.195.066.42.14.646.21.109.037.219.066.326.097a55.18 55.18 0 0 1 2.91.989c.881.309 1.711.611 2.408.912.709.299 1.338.559 1.848.812.264.139.506.252.721.372.096.05.182.107.244.143.02.008.037.018.061.032.047.029.113.079.166.115.051.028.105.063.166.095.205.145.389.286.535.428.154.129.264.258.352.394.088.119.162.228.223.348.07.095.111.213.16.315.035.116.063.254.09.383.012.073.02.138.027.222.002.039.004.072.004.108l.002.06v.069c0 .113-.006.236-.016.354a8.463 8.463 0 0 1-.025.168 2.679 2.679 0 0 1-.146.557c-.061.188-.141.37-.217.581-.066.215-.254.526-.367.697-.111.173-.359.456-.561.678-.053.059-.141.15-.225.226a5.904 5.904 0 0 1-.621.563c-.025.014-.047.037-.121.092-.084.062-.24.187-.389.283l-.063.049a1.15 1.15 0 0 0-.129.095.757.757 0 0 0-.141.083c-.076.035-.156.078-.248.121-.029.011-.061.032-.094.043-.047.019-.1.041-.148.066-.068.027-.143.06-.24.095-.031.018-.061.028-.098.041a3.674 3.674 0 0 1-.213.08c-.02.008-.037.01-.057.016-.064.027-.141.046-.238.074a.332.332 0 0 1-.098.034c-.061.02-.133.041-.209.06-.031.015-.059.02-.098.028-.025.003-.053.015-.102.025-.021.007-.043.011-.068.018-.061.014-.119.036-.205.062-.021.006-.051.012-.082.021a2.234 2.234 0 0 1-.33.082c-.049.007-.088.018-.158.037-.016.004-.037.006-.066.011-.055.013-.127.031-.221.047a.86.86 0 0 1-.133.028h-.012c-.115.017-.27.034-.387.049a1.902 1.902 0 0 1-.277.035 4.276 4.276 0 0 0-.115.012c-.117.014-.229.022-.318.031a1.095 1.095 0 0 0-.164.021 2.31 2.31 0 0 1-.229.018c-.078.006-.102.008-.125.008-.211.013-.234.013-.252.013-.119 0-.293 0-.473-.004l-.088-.001c-.082 0-.164-.005-.244-.008a10.628 10.628 0 0 1-.863-.047l-.479-.046c-.023-.001-.043-.004-.061-.004-.193-.028-.385-.051-.58-.075-.006-.002-.006-.004-.006-.004-.23-.041-.467-.08-.699-.125-.357-.075-.676-.158-1.029-.247-.037-.011-.072-.02-.115-.035a15.239 15.239 0 0 1-1.188-.384c-.244-.088-.443-.183-.676-.277-.014 0-.02-.002-.025-.006a8.615 8.615 0 0 1-.65-.312c-.139-.071-.254-.146-.404-.235-.115-.06-.23-.118-.346-.19a8.545 8.545 0 0 1-1.045-.696c0-.005-7.869-5.455 1.345-10.896.053.033.109.058.164.086z"/></svg>