<?xml version="1.0" encoding="utf-8"?>
<!-- Generator: Adobe Illustrator 21.1.0, SVG Export Plug-In . SVG Version: 6.00 Build 0)  -->
<svg version="1.1" id="图层_1" xmlns="http://www.w3.org/2000/svg" xmlns:xlink="http://www.w3.org/1999/xlink" x="0px" y="0px"
	 viewBox="0 0 174 127" style="enable-background:new 0 0 174 127;" xml:space="preserve">
<style type="text/css">
	.st0{fill:#FFFFFF;}
</style>
<g>
	<g>
		<g>
			<rect x="81.8" y="14" class="st0" width="6.9" height="3.5"/>
			<path class="st0" d="M93.9,0.1h-3.5v3.5H80V0.1h-3.5v3.5h-6.9v3.5h6.9v12.2h-6.9v3.5h6.9l-6.9,7v8.7L80,22.7h10.4l10.4,15.7v-8.7
				l-6.9-7h6.9v-3.5h-6.9V7.1h6.9V3.6h-6.9V0.1L93.9,0.1z M90.5,19.2H80V7.1h10.4V19.2z"/>
			<polygon class="st0" points="87,34.9 87,31.4 94.2,31.4 91.8,27.9 87,27.9 87,24.5 83.5,24.5 83.5,27.9 78.6,27.9 76.3,31.4 
				83.5,31.4 83.5,34.9 74,34.9 71.7,38.4 98.8,38.4 96.5,34.9 			"/>
			<rect x="81.8" y="8.8" class="st0" width="6.9" height="3.5"/>
			<polygon class="st0" points="160,0.1 156.5,0.1 156.5,22.7 142.6,29.7 142.6,38.4 160,22.7 			"/>
			<path class="st0" d="M108.2,38.4h29.2V24.5h-20L108.2,38.4z M133.9,27.9v6.9h-19.2l4.6-6.9H133.9z"/>
			<polygon class="st0" points="161.7,23.6 159.6,25.5 173.9,38.4 173.9,29.7 			"/>
			<path class="st0" d="M127,0.1h-3.5v3.5H113v19.1l-6.9,7v8.7l10.4-15.7h20.9V3.6H127V0.1L127,0.1z M133.9,7.1v12.2h-17.4V7.1
				H133.9L133.9,7.1z"/>
		</g>
		<g>
			<path class="st0" d="M101.1,56.4c-0.8,0-1.5-0.7-1.5-1.5v-6.4c0-0.8,0.6-1.5,1.5-1.5h12.2l-3.5-3.5h-8.8c-2.7,0-4.9,2.2-4.9,5V55
				c0,2.7,2.2,4.9,4.9,4.9h8.8l3.5-3.5L101.1,56.4L101.1,56.4z"/>
			<path class="st0" d="M139.9,49.9v-1.4c0-0.8,0.7-1.5,1.5-1.5h12.2l-3.5-3.5h-8.8c-2.7,0-4.9,2.2-4.9,5V55c0,2.7,2.2,4.9,4.9,4.9
				h8.8l3.5-3.5h-12.2c-0.8,0-1.5-0.7-1.5-1.5v-1.4c0,0,0-0.1,0.1-0.1h13.7V50L139.9,49.9C139.9,50,139.9,50,139.9,49.9z"/>
			<path class="st0" d="M127.1,53.5C127.1,53.5,127.2,53.5,127.1,53.5l1.5-0.1c2.7,0,4.9-2.2,4.9-4.9c0-2.7-2.2-5-4.9-5h-12.3v16.3
				h3.5V47.1c0,0,0-0.1,0.1-0.1h8.8c0.8,0,1.5,0.7,1.5,1.5c0,0.8-0.7,1.5-1.5,1.5h-2.9l-3.5,3.5l6.4,6.3h4.9L127.1,53.5
				C127.1,53.6,127.1,53.6,127.1,53.5z"/>
			<path class="st0" d="M82.1,50h-6.3l3.5,3.5h2.9c0.8,0,1.5,0.7,1.5,1.5v1.4c0,0,0,0.1-0.1,0.1h-8.8c-0.8,0-1.5-0.7-1.5-1.5v-6.4
				c0-0.8,0.7-1.5,1.5-1.5h12.2l-3.5-3.5h-8.7c-2.7,0-4.9,2.2-4.9,5V55c0,2.7,2.2,4.9,4.9,4.9H87V55C87,52.2,84.8,50,82.1,50z"/>
			<rect x="89.9" y="43.6" class="st0" width="3.5" height="16.3"/>
			<path class="st0" d="M170.3,54.6C170.3,54.6,170.3,54.7,170.3,54.6C170.2,54.7,170.2,54.7,170.3,54.6c-0.1,0.1-0.1,0.1-0.1,0.1
				L160,43.6h-3.5v16.3h3.5v-11c0,0,0-0.1,0.1-0.1c0,0,0,0,0,0c0,0,0,0,0.1,0l10.2,11.1h3.5V43.6h-3.5L170.3,54.6L170.3,54.6z"/>
		</g>
	</g>
	<g>
		<path class="st0" d="M25,42.7c-0.1,2.1,2.2,3.7,2.2,3.7c0.3,0.2,0.5,0.4,0.8,0.5c0.1,0,0.1,0.1,0.2,0.1l0.1,0l0.1,0.1
			c0.1,0,0.1,0.1,0.2,0.1c0.1,0.1,0.3,0.1,0.4,0.2h0l0,0c0.1,0,0.1,0.1,0.2,0.1c0.1,0,0.2,0.1,0.3,0.1c0.3,0.1,0.5,0.2,0.9,0.3
			c0,0,0,0,0.1,0l0.2,0.1c0.2,0,0.3,0.1,0.5,0.1c0.1,0,0.2,0,0.3,0.1l0.2,0l0,0l0.2,0l0.2,0c0,0,0,0,0.1,0l0.3,0c0.1,0,0.3,0,0.4,0
			c0.1,0,0.1,0,0.2,0l0.1,0c0,0,0.1,0,0.1,0h0.1c0.1,0,0.2,0,0.3,0c0,0,0,0,0,0c0,0,0,0,0.2,0l0,0h0l0.1,0c0,0,0.1,0,0.1,0
			c0,0,0.1,0,0.1,0l0.1,0l0.2,0c0,0,0,0,0.1,0c0,0,0.1,0,0.2,0l0.1,0l0.2,0c0,0,0,0,0.1,0l0.1,0l0,0c0,0,0,0,0,0l0,0
			c0.1,0,0.1,0,0.1,0c0.1,0,0.2,0,0.2-0.1l0,0h0l0.1,0c0,0,0.1,0,0.1,0c0,0,0,0,0,0c0,0,0,0,0.1,0l0.1,0.2l0-0.2l0,0l0,0
			c0,0,0,0,0.1,0l0.2,0l0,0l0,0c0.1,0,0.1,0,0.2-0.1l0,0l0,0c0.1,0,0.1,0,0.2-0.1c0,0,0,0,0.1,0c0,0,0.1,0,0.1,0l0,0
			c0,0,0.1,0,0.1-0.1l0,0l0,0l0.1-0.1l0,0c0,0,0.1-0.1,0.1-0.1c0,0,0.1-0.1,0.1-0.1c0,0,0,0,0.1-0.1c0.1,0,0.1-0.1,0.2-0.1
			c0,0,0.1-0.1,0.1-0.1l0,0c0,0,0,0,0,0c0,0,0,0,0,0c0.2-0.1,0.3-0.3,0.4-0.4c0.1,0,0.1-0.1,0.1-0.1c0.1-0.1,0.3-0.3,0.4-0.5
			c0.1-0.1,0.2-0.3,0.2-0.5l0.1-0.2c0-0.1,0.1-0.2,0.1-0.3c0-0.1,0.1-0.2,0.1-0.4l0-0.1c0-0.1,0-0.2,0-0.3l0-0.1c0,0,0,0,0-0.1
			c0-0.1,0-0.1,0-0.1l0-0.1c0-0.1,0-0.1,0-0.2l0-0.1c0-0.1,0-0.1-0.1-0.2c0-0.1-0.1-0.1-0.2-0.2c-0.1-0.1-0.1-0.2-0.2-0.3
			c-0.1-0.1-0.2-0.2-0.4-0.3l-0.1,0l-0.1,0c0,0-0.1,0-0.1-0.1c0,0,0,0-0.1,0c0,0-0.1,0-0.1-0.1c-0.1-0.1-0.2-0.1-0.3-0.2l-0.2-0.1
			c-0.3-0.2-0.7-0.3-1.2-0.5l-0.1-0.1c-0.5-0.2-1.2-0.5-1.7-0.7c-0.6-0.2-1.3-0.5-2.1-0.7c-0.1,0-0.2,0-0.2-0.1
			c-0.2-0.1-0.3-0.1-0.5-0.2l-0.1,0c0,0-0.1,0-0.1,0C31.1,40,31,40,30.8,40c0,0,0,0-0.1,0c0,0-0.1,0-0.1,0l-0.1,0l-0.1,0l-0.1,0
			l-0.2-0.1c-0.1,0-0.3-0.1-0.3-0.1c0,0-0.1,0-0.1,0c-0.1,0-0.1,0-0.2-0.1c0,0,0,0,0,0l0,0l0,0h-0.1v-0.1c-0.1,0-0.2-0.1-0.3-0.1
			c0,0-0.1,0-0.1-0.1l0,0l0,0l-0.1-0.1l-0.1,0c0,0-0.1,0-0.1,0c0,0,0,0,0,0l0,0l0,0l0,0l0,0l0,0c0,0,0,0-0.1,0l0,0l0,0l0,0l0,0
			c0,0,0,0,0,0h0l-0.1-0.1c0,0,0,0,0,0C26.1,40,25,41.3,25,42.7z"/>
		<path class="st0" d="M37.2,18.8c0-3.8-2.4-6.9-5.3-6.9c-2.9,0-5.3,3.1-5.3,6.9s2.4,7,5.3,7C34.9,25.8,37.2,22.6,37.2,18.8z"/>
		<path class="st0" d="M2,0.1v60h60v-60H2L2,0.1z M15.7,17.4c-1.2,0-2.3-0.6-3.1-1.7c-0.3-0.4-0.5-0.7-0.3-1
			c0.1-0.2,0.2-0.3,0.4-0.3c0.2,0,0.4,0.1,0.7,0.3c0.4,0.2,0.8,0.4,1.3,0.4l0.1,0c0.8,0,1.6-0.3,2.4-0.9c1.2-0.9,1.8-1.1,2.3-1.1
			h0.1c0.3,0,0.6,0,0.8,0.1c-0.5-0.5-1-0.8-1.7-0.8l-0.1,0c-0.5,0-1.2,0.3-2.2,0.8c-1.1,0.6-2.1,0.9-2.8,0.9l-0.1,0
			c-1.6,0-2.6-1.3-2.9-3.8c0-0.5,0-1.2,0.2-1.5c0.1-0.1,0.2-0.2,0.4-0.2h0h0c0.4,0,0.6,0.3,1,1.2c0.5,1.1,1.2,1.4,1.3,1.4
			c0.3,0,0.8-0.1,2-0.8c1-0.5,1.9-0.7,2.6-0.8h0.1c1.1,0,2.2,0.5,3.1,1.3c0.1,0.1,0.1,0.1,0.7,0.9c0.8-0.6,1.6-1.2,2.6-1.6
			c0.1-0.1,0.2-0.1,0.2-0.1l0.1,0l0,0.1c0,0,0.1,0.2-0.1,0.4c-0.3,0.4-0.7,0.9-1,1.5c-0.5,0.8-0.8,1.6-1.1,2.4
			c-0.3,0.9-0.5,1.8-0.6,2.6c-0.1,0.9-0.1,1.8,0,2.7c0.1,0.9,0.3,1.8,0.5,2.6c0.3,0.8,0.6,1.7,1,2.5c0.3,0.5,0.5,0.8,0.8,1.2
			c0.3,0.4,0.4,0.6,0.3,0.7c0,0-0.1,0.1-0.2,0.1c-0.2,0-0.6-0.2-0.7-0.3c-4.8-2.6-6.7-6.8-4.9-11c-0.1,0.1-0.2,0.1-0.3,0.2
			C17.5,17,16.6,17.4,15.7,17.4L15.7,17.4L15.7,17.4L15.7,17.4L15.7,17.4z M43,48.5c-0.3,0.3-0.4,0.3-0.5,0.3l-0.1,0l0-0.1
			c0-0.1-0.1-0.2,0.3-0.6c0.3-0.4,0.4-0.7,0.6-1.2c0.1-0.1,0.2-0.6,0.3-1c0.1-0.5,0.2-0.9,0.2-1.3c0-0.1,0-0.1,0-0.2v-0.1v-0.1
			c0,0,0-0.1,0-0.1c0,0,0-0.1,0-0.1c0-0.2,0-0.3-0.1-0.5c0-0.3-0.1-0.6-0.2-1c-0.1-0.3-0.2-0.6-0.4-1c-0.2-0.3-0.4-0.6-0.6-0.9
			c-0.2-0.2-0.4-0.5-0.7-0.8c-0.2-0.2-0.5-0.5-0.8-0.7L40.8,39l-0.1-0.1c-0.1-0.1-0.2-0.1-0.2-0.1l-0.1-0.1
			c-0.1-0.1-0.2-0.1-0.4-0.2c-0.2-0.1-0.5-0.3-0.8-0.4c-0.7-0.3-1.3-0.6-1.9-0.8c-0.3-0.1-0.5-0.2-0.8-0.3c-0.5-0.2-1-0.4-1.5-0.5
			l-0.7-0.2c-0.6-0.2-1.3-0.4-2-0.7c0,0,0,0-0.1,0c-0.1,0-0.1,0-0.1,0c-0.1,0-0.1,0-0.2-0.1c-0.1,0-0.2-0.1-0.3-0.1l-0.1,0
			c-0.1,0-0.1,0-0.2-0.1c-0.1-0.1-0.2-0.1-0.3-0.1c-0.1,0-0.1-0.1-0.1-0.1l0,0l0,0l-0.1,0l0,0l-0.1,0l0,0c0,0-0.1,0-0.1-0.1l0.1-0.1
			l-0.2,0.1c0,0-0.1-0.1-0.1-0.1l0,0l0,0c-0.1-0.1-0.2-0.1-0.3-0.2c-0.1,0-0.1-0.1-0.2-0.2c-0.1,0-0.2-0.1-0.2-0.2l0,0l0,0
			c-0.1,0-0.1-0.1-0.2-0.1l0,0c0-0.1-0.1-0.1-0.1-0.1c0,0-0.1-0.1-0.1-0.1c0,0-0.1-0.1-0.1-0.1c0,0-0.1-0.1-0.1-0.1
			c0,0,0-0.1-0.1-0.1c0,0,0-0.1,0-0.1l0-0.1l0-0.1c0-0.1,0-0.1,0-0.1c0,0,0-0.1-0.1-0.3c0-0.1,0-0.4,0-0.5c0-0.1,0-0.4,0.1-0.5
			c0-0.1,0.1-0.4,0.2-0.5l0.1-0.1c0.1-0.1,0.1-0.3,0.2-0.5c0,0,0.1-0.1,0.1-0.2l0.1-0.1c0,0,0,0,0,0c0,0,0,0-0.1,0
			c0,0-0.1,0.1-0.1,0.1c0,0-0.1,0.1-0.1,0.1l-0.2,0.2c0,0.1-0.1,0.1-0.1,0.1l0,0c0,0-0.1,0.1-0.1,0.1l-0.1,0.1l-0.1,0.1c0,0,0,0,0,0
			L28.4,31l0,0l-0.1,0.1l-0.1,0.1c0,0.1-0.1,0.1-0.1,0.2c0,0-0.1,0.1-0.1,0.2c-0.1,0.1-0.1,0.2-0.2,0.3l0,0l0,0l0,0l0,0l0,0
			c0,0,0,0,0,0l0,0l0,0l0,0l0,0c0,0,0,0,0,0l0,0l0,0l0,0.1l0,0v0l0,0c0,0,0,0,0,0l0,0l0,0l0,0l0,0c0,0,0,0,0,0l0,0l-0.1,0l0.1,0.1
			l0,0c0,0,0,0,0,0l0,0l0,0v0l0,0v0.1l0,0l0,0.1l0,0l0,0l0,0.1l0,0l0,0l0,0v0c0,0,0,0.1,0,0.1l-0.2,0l0.2,0.1l0,0.1l0,0V33v0.1v0
			v0.1l0,0v0l0,0.1v0l0,0v0l0,0.1v0l0,0v0l0,0v0l0,0l0,0v0.1l0,0l0,0l0,0l0,0l0,0l0,0l0,0l0,0l0,0v0l0,0l0,0l0,0l0,0v0.1
			c0,0,0,0,0,0.1c0,0,0,0.1,0.1,0.1l0.1,0.1c0,0,0,0,0,0.1c0,0,0,0.1,0.1,0.1l0,0.1l0,0l0,0v0l0,0c0,0,0.1,0.1,0.1,0.2
			c0,0,0,0,0,0.1L28,35l0.2-0.1l0,0l0,0c0,0,0,0,0.1,0.1l0,0l0,0l0.1,0.1l0.1,0.1c0,0,0.1,0.1,0.1,0.1c0,0,0,0,0,0c0,0,0,0,0,0l0,0
			c0,0,0.1,0,0.1,0.1l-0.1,0.1l0.2-0.1l0.1,0c0,0,0.1,0.1,0.1,0.1l0.1,0.1c0,0,0,0,0.1,0c0,0,0.1,0,0.1,0.1c0,0,0,0,0.1,0.1
			c0.1,0,0.1,0.1,0.1,0.1c0.1,0,0.1,0.1,0.2,0.1l0.1,0c0,0,0,0,0,0c0,0,0,0,0.1,0l0.1,0l0,0l0,0l0,0c0,0,0,0,0.1,0l0,0l0,0l0,0
			l0.1,0l0.1,0.1c0.1,0,0.2,0.1,0.2,0.1l0.1,0l0.1,0v0c0.4,0.2,0.6,0.2,0.8,0.3l0.1,0c1.7,0.5,2.8,0.9,3.8,1.2l0.3,0.1l0.8,0.3
			c1.4,0.6,2.5,1.1,3.3,1.6c0.3,0.2,0.5,0.3,0.7,0.5c0.2,0.2,0.4,0.4,0.6,0.5c0.1,0.1,0.2,0.2,0.3,0.3c0.1,0.1,0.2,0.3,0.3,0.4
			c0,0,0.1,0.1,0.1,0.2l0,0.1l0,0.1c0,0,0,0.1,0.1,0.1l0.1,0.1c0,0.1,0,0.1,0.1,0.1l0,0.1c0,0,0,0,0.1,0.1c0,0,0,0.1,0,0.1
			c0,0,0,0.1,0,0.1c0,0.1,0,0.1,0,0.2c0,0,0,0.1,0,0.1c0,0.1,0,0.1,0,0.1c0,0.1,0,0.1,0,0.2c0,0.1,0,0.2,0,0.3c0,0.1,0,0.1,0,0.2
			l0,0.1v0.2v0.1v0.1c0,0,0,0.1,0,0.1l0,0.1c0,0.1,0,0.2,0,0.3c0,0.1,0,0.1,0,0.2l0,0.1c0,0,0,0.1,0,0.1l0,0.1l0,0.1
			c0,0,0,0.1,0,0.1c0,0.1,0,0.2-0.1,0.2l0,0.1c0,0.1,0,0.1,0,0.1l0,0.1l0,0.1l0,0c0,0,0,0,0,0c0,0,0,0,0,0c0,0.1,0,0.1-0.1,0.1
			c0,0,0,0.1,0,0.1c0,0,0,0,0,0.1l0,0.1l0,0v0.1h0v0h-0.1c0,0,0,0.1,0,0.1c0,0,0,0,0,0.1c0,0,0,0,0,0.1c0,0,0,0.1-0.1,0.1l0,0.1
			l0,0.1c0,0,0,0.1-0.1,0.1c0,0.1,0,0.1-0.1,0.2l-0.1,0.1l0,0l0,0.1l0,0c0,0,0,0,0,0l0,0l0,0.1l-0.1,0l0,0l0,0c0,0,0,0-0.1,0.1
			L41,48.1c0,0-0.1,0.1-0.1,0.1c0,0,0,0.1-0.1,0.1l0,0l0,0l-0.1,0.1l-0.1,0.1l0,0.1h-0.1l0,0l0,0c0,0,0,0-0.1,0.1l0,0l0,0l-0.1,0.1
			l-0.1,0.1l0,0L40.2,49c-0.1,0-0.1,0.1-0.1,0.1c-0.1,0.1-0.2,0.2-0.3,0.3l0,0l0,0l-0.1,0c0,0,0,0,0,0c0,0,0,0,0,0
			c0,0-0.1,0.1-0.1,0.1l0,0l0,0c0,0-0.1,0-0.1,0.1c0,0-0.1,0.1-0.1,0.1l-0.1,0l0,0l0,0l0,0l0,0l0,0l0,0H39l0,0l0,0l-0.1,0
			c0,0,0,0,0,0c0,0,0,0-0.1,0l0,0c0,0,0,0,0,0c0,0,0,0-0.1,0c0,0-0.1,0-0.1,0l0,0l0,0c0,0,0,0,0,0c0,0-0.1,0-0.1,0c0,0,0,0-0.1,0
			c0,0,0,0-0.1,0l0,0h0l0,0l0,0l0,0l0,0c0,0,0,0,0,0l0,0l0,0c0,0,0,0,0,0l0,0h0c0,0,0,0,0,0c0,0-0.1,0.1-0.2,0.1l0,0l0,0l0,0l-0.1,0
			l0,0c0,0-0.1,0-0.1,0c0,0,0,0,0,0c0,0-0.1,0-0.1,0l0,0l0,0l0,0l0,0l0,0l0,0l0,0l-0.1,0l-0.1,0c-0.1,0-0.1,0-0.3,0.1c0,0,0,0-0.1,0
			l0,0l0,0l0,0l0,0l-0.1,0l-0.1,0l-0.1,0l-0.1,0l0,0l0,0c-0.1,0-0.1,0-0.2,0l0,0c0,0-0.1,0-0.1,0c0,0,0,0,0,0l-0.1,0h0c0,0,0,0,0,0
			l0,0h0l-0.1,0l-0.1,0l-0.1,0l0,0c0,0-0.1,0-0.1,0l0,0h0l0,0h0l0,0h0l0,0l0,0l0,0l0,0v0l0,0h0l0,0l-0.1,0l0,0c0,0,0,0-0.1,0
			c-0.1,0-0.1,0-0.2,0c0,0,0,0-0.1,0c0,0,0,0,0,0c0,0-0.1,0-0.1,0c0,0-0.1,0-0.1,0c0,0,0,0,0,0c0,0,0,0-0.1,0l-0.1,0c0,0,0,0,0,0
			c0,0,0,0,0,0c0,0,0,0-0.1,0c0,0,0,0,0,0c0,0,0,0,0,0c0,0-0.1,0-0.1,0c0,0,0,0,0,0c0,0,0,0,0,0c0,0,0,0,0,0l0,0l0,0l0,0l0,0l-0.1,0
			l0,0h0l0,0c0,0,0,0-0.1,0l0,0l0,0l0,0v0h0c0,0-0.1,0-0.1,0c0,0,0,0,0,0c0,0-0.1,0-0.1,0h0l0,0h0h-0.1h0l-0.1,0l0,0h-0.2l-0.2,0
			c0,0-0.1,0-0.1,0c-0.1,0-0.2,0-0.3,0l-0.3,0l-0.2,0c-0.2,0-0.3,0-0.5-0.1l-0.1,0c-0.1,0-0.2,0-0.3,0c-0.3-0.1-0.6-0.1-0.8-0.1
			c-0.3,0-0.9-0.2-1.3-0.3l-0.2-0.1c-0.1,0-0.2-0.1-0.3-0.1c-0.4-0.2-0.8-0.3-1.1-0.5c-0.2-0.1-0.4-0.2-0.5-0.2
			c-0.6-0.3-0.9-0.5-1.2-0.8c-0.1,0-1.7-1-2.6-2.5c-1.1-1.7-1.3-3.3-0.8-4.7c0.5-1.6,1.9-2.7,3-3.3c-2.5,0.8-4.1,1.9-4.6,3.5
			c-0.9,2.6,1.4,5.6,2.1,6.4c0.1,0.1,0.2,0.2,0.2,0.3l-0.1,0.1h-0.1c-0.1,0-0.2,0-0.2-0.1c-1.5-0.7-6.2-3.5-5.1-7.6
			c1.2-3.7,7-4.2,8.5-4.2c-0.1-0.1-0.1-0.1-0.1-0.2c-0.2-0.2-0.3-0.5-0.5-0.7c-0.1-0.2-0.2-0.4-0.3-0.6c0,0,0-0.1,0-0.1
			c0,0,0-0.1,0-0.1l0-0.1c0,0,0-0.1,0-0.1l0-0.1l0-0.1c0,0,0-0.1,0-0.1l0,0v0c0,0,0-0.1,0-0.1c0-0.1,0-0.2-0.1-0.3l0-0.1v0l0-0.1
			l0-0.1l0,0c0,0,0-0.1,0-0.1c0,0,0,0,0-0.1c0,0,0,0,0,0c0,0,0,0,0,0c0,0,0,0,0-0.1l0,0v0c0,0,0-0.1,0-0.1c0-0.1,0-0.3,0-0.4
			c0-0.1,0-0.2,0-0.3c0-0.1,0-0.1,0-0.1c0-0.1,0-0.2,0.1-0.5l0,0l0,0c0,0,0,0,0-0.1c0.1-0.2,0.1-0.4,0.2-0.6l0,0l0,0
			c0-0.1,0-0.1,0.1-0.2l0-0.1c0-0.1,0.1-0.2,0.1-0.2l0-0.1l0,0v0l0,0l0,0v0l0,0L25,31l0.1-0.1c0,0,0-0.1,0.1-0.1l0.1-0.1
			c0,0,0.1-0.1,0.1-0.2c0,0,0.1-0.1,0.1-0.1c0,0,0,0,0-0.1l0.2-0.2l0.1-0.1l0,0l0,0c0,0,0,0,0.1,0c0,0,0,0,0,0c0,0,0.1-0.1,0.1-0.1
			c0.1-0.1,0.2-0.1,0.2-0.2l0.1,0c0.1-0.1,0.2-0.2,0.3-0.2l0,0l0,0c0.1-0.1,0.2-0.1,0.2-0.2l0.1,0l0.1,0l0.1-0.1
			c0.1-0.1,0.2-0.1,0.3-0.2l0,0l0,0c0,0,0.1,0,0.2-0.1c0,0,0.1,0,0.3-0.1c0,0,0,0,0.1-0.1l0.2-0.1c0,0,0.1-0.1,0.3-0.2
			c0,0,0,0,0.1,0c-0.2-0.1-0.5-0.3-0.7-0.4c-0.6-0.4-1.1-0.8-1.5-1.2c-0.5-0.5-0.9-0.9-1.2-1.5c-0.4-0.7-0.7-1.4-1-2.2
			c-0.3-1-0.6-2-0.6-3.1c-0.1-1.1,0-2.1,0.2-3.2c0.2-1.1,0.6-2.1,1-3c0.2-0.4,0.5-0.9,0.8-1.3c0.3-0.5,0.7-0.9,1-1.2
			c0.4-0.4,0.8-0.7,1.2-1c0.4-0.3,0.9-0.5,1.3-0.7c0.5-0.2,1-0.3,1.5-0.4c0.4-0.1,0.8-0.1,1.3-0.1c0.1,0,0.2,0,0.3,0
			c0.5,0,1,0.1,1.5,0.2c0.5,0.1,1,0.3,1.5,0.5c0.5,0.2,0.9,0.5,1.3,0.8c0.5,0.4,1,0.9,1.5,1.5c0.4,0.5,0.8,1.1,1.1,1.7
			c0.4,0.9,0.8,1.8,1,2.8c0.2,1,0.3,1.9,0.3,2.9c0,1-0.2,2-0.5,2.9c-0.3,0.9-0.7,1.8-1.2,2.7c-0.3,0.4-0.6,0.9-0.9,1.2
			c-0.3,0.3-0.5,0.5-0.7,0.7c0,0-0.1,0.1-0.6,0.5c-0.1,0.1-0.2,0.2-0.3,0.2L36,27.6c-0.3,0.2-0.6,0.4-0.6,0.4
			c-0.3,0.2-0.7,0.3-0.9,0.4c-0.3,0.1-0.7,0.3-0.8,0.4c0,0-0.1,0-0.1,0.1c0,0-0.1,0-0.1,0.1c0,0-0.1,0-0.1,0c-0.1,0-0.2,0.1-0.3,0.1
			c0,0,0,0,0,0c0,0-0.1,0.1-0.1,0.1c0,0-0.1,0-0.1,0.1c0,0,0,0,0,0l-0.1,0.1l0,0c-0.1,0-0.1,0.1-0.2,0.1c0,0-0.3,0.2-0.3,0.3
			c0,0,0,0,0,0.1c-0.1,0.1-0.1,0.2-0.2,0.2c-0.1,0.1-0.2,0.2-0.2,0.3l0,0.1l0,0c0,0,0,0.1-0.1,0.1c0,0.1-0.1,0.2-0.1,0.3
			c0,0.2,0,0.4,0,0.5c0,0.2,0,0.2,0.1,0.3c0.1,0.2,0.2,0.3,0.2,0.4l0,0l0.1,0.1l0,0c0,0,0,0,0.1,0.1l-0.1,0.2l0.1-0.1l0,0l0,0l0,0
			l0,0c0,0,0,0,0.1,0.1c0.1,0,0.1,0.1,0.1,0.1l0.1,0l0,0l0.1,0c0,0,0.1,0,0.1,0c0,0,0,0,0.1,0l0.1,0l0,0l0.1,0c0,0,0.1,0,0.1,0
			c0,0,0,0,0.1,0c0.1,0,0.2,0.1,0.3,0.1c0.1,0,0.1,0,0.2,0c0.1,0,0.3,0.1,0.4,0.1c0.1,0.1,0.3,0.1,0.4,0.1l0.1,0
			c0.4,0.1,0.8,0.3,1.2,0.4c0.4,0.1,9.5,2.7,10.7,7.8C46.9,43.6,45.8,46,43,48.5z M53.4,10.4c-0.3,2.5-1.3,3.8-3,3.8l-0.1,0
			c-0.7,0-1.7-0.3-2.8-0.9c-0.9-0.5-1.7-0.8-2.1-0.8l-0.1,0c-0.7,0-1.2,0.2-1.7,0.8c0.3,0,0.5-0.1,0.8-0.1h0.1
			c0.5,0,1.1,0.2,2.2,1.1c0.8,0.6,1.7,0.9,2.4,0.9l0.1,0c0.5,0,0.9-0.1,1.3-0.4c0.2-0.1,0.5-0.3,0.7-0.3h0c0.2,0,0.3,0.1,0.4,0.3
			c0.1,0.3,0,0.6-0.3,1c-0.8,1.1-1.9,1.7-3.1,1.7l-0.1,0c-0.8,0-1.8-0.5-2.9-1.3C45.1,16,45,15.9,45,15.9c1.7,4.3-0.1,8.5-5,11
			c-0.1,0.1-0.4,0.3-0.6,0.3c-0.1,0-0.2-0.1-0.2-0.1c-0.1-0.1,0-0.3,0.3-0.7c0,0,0.5-0.8,0.8-1.2c0.4-0.8,0.8-1.7,1-2.5
			c0.2-0.9,0.4-1.7,0.5-2.6c0.1-0.9,0.1-1.8,0-2.7c-0.1-0.9-0.3-1.7-0.5-2.6c-0.3-0.8-0.6-1.6-1.1-2.4c-0.4-0.6-0.7-1.1-1-1.5
			c-0.2-0.2-0.1-0.4-0.1-0.4c0-0.1,0.1-0.1,0.2-0.1c0.1,0,0.1,0,0.3,0.1c0.9,0.5,1.8,1,2.5,1.6c0.6-0.8,0.6-0.8,0.7-0.9
			c0.9-0.9,2-1.3,3.1-1.3h0.1c0.7,0,1.6,0.3,2.7,0.8c1.2,0.6,1.7,0.8,2,0.8c0,0,0.8-0.1,1.4-1.4c0.4-0.9,0.6-1.2,1-1.2h0h0
			c0.1,0,0.3,0.1,0.4,0.2C53.3,9.1,53.4,9.6,53.4,10.4z"/>
	</g>
</g>
<g>
	<path class="st0" d="M25,108.7c-0.1,2.1,2.2,3.7,2.2,3.7c0.3,0.2,0.5,0.4,0.8,0.5c0.1,0,0.1,0.1,0.2,0.1l0.1,0l0.1,0.1
		c0.1,0,0.1,0.1,0.2,0.1c0.1,0.1,0.3,0.1,0.4,0.2h0l0,0c0.1,0,0.1,0.1,0.2,0.1c0.1,0,0.2,0.1,0.3,0.1c0.3,0.1,0.5,0.2,0.9,0.3
		c0,0,0,0,0.1,0l0.2,0.1c0.2,0,0.3,0.1,0.5,0.1c0.1,0,0.2,0,0.3,0.1l0.2,0l0,0l0.2,0l0.2,0c0,0,0,0,0.1,0l0.3,0c0.1,0,0.3,0,0.4,0
		c0.1,0,0.1,0,0.2,0l0.1,0c0,0,0.1,0,0.1,0h0.1c0.1,0,0.2,0,0.3,0c0,0,0,0,0,0c0,0,0,0,0.2,0l0,0h0l0.1,0c0,0,0.1,0,0.1,0
		c0,0,0.1,0,0.1,0l0.1,0l0.2,0c0,0,0,0,0.1,0c0,0,0.1,0,0.2,0l0.1,0l0.2,0c0,0,0,0,0.1,0l0.1,0l0,0c0,0,0,0,0,0l0,0
		c0.1,0,0.1,0,0.1,0c0.1,0,0.2,0,0.2-0.1l0,0h0l0.1,0c0,0,0.1,0,0.1,0c0,0,0,0,0,0c0,0,0,0,0.1,0l0.1,0.2l0-0.2l0,0l0,0
		c0,0,0,0,0.1,0l0.2,0l0,0l0,0c0.1,0,0.1,0,0.2-0.1l0,0h0c0.1,0,0.1,0,0.2-0.1c0,0,0,0,0.1,0c0,0,0.1,0,0.1,0l0,0c0,0,0.1,0,0.1-0.1
		l0,0l0,0l0.1-0.1l0,0c0,0,0.1-0.1,0.1-0.1c0,0,0.1-0.1,0.1-0.1c0,0,0,0,0.1-0.1c0.1,0,0.1-0.1,0.2-0.1c0,0,0.1-0.1,0.1-0.1l0,0
		c0,0,0,0,0,0c0,0,0,0,0,0c0.2-0.1,0.3-0.3,0.4-0.4c0.1,0,0.1-0.1,0.1-0.1c0.1-0.1,0.3-0.3,0.4-0.5c0.1-0.1,0.2-0.3,0.2-0.5l0.1-0.2
		c0-0.1,0.1-0.2,0.1-0.3c0-0.1,0.1-0.2,0.1-0.4l0-0.1c0-0.1,0-0.2,0-0.3l0-0.1c0,0,0,0,0-0.1c0-0.1,0-0.1,0-0.1l0-0.1
		c0-0.1,0-0.1,0-0.2l0-0.1c0-0.1,0-0.1-0.1-0.2c0-0.1-0.1-0.1-0.2-0.2c-0.1-0.1-0.1-0.2-0.2-0.3c-0.1-0.1-0.2-0.2-0.4-0.3l-0.1,0
		l-0.1,0c0,0-0.1,0-0.1-0.1c0,0,0,0-0.1,0c0,0-0.1,0-0.1-0.1c-0.1-0.1-0.2-0.1-0.3-0.2l-0.2-0.1c-0.3-0.2-0.7-0.3-1.2-0.5l-0.1-0.1
		c-0.5-0.2-1.2-0.5-1.7-0.7c-0.6-0.2-1.3-0.5-2.1-0.7c-0.1,0-0.2,0-0.2-0.1c-0.2-0.1-0.3-0.1-0.5-0.2l-0.1,0c0,0-0.1,0-0.1,0
		c-0.1,0-0.3-0.1-0.4-0.1c0,0,0,0-0.1,0c0,0-0.1,0-0.1,0l-0.1,0l-0.1,0l-0.1,0l-0.2-0.1c-0.1,0-0.3-0.1-0.3-0.1c0,0-0.1,0-0.1,0
		c-0.1,0-0.1,0-0.2-0.1c0,0,0,0,0,0l0,0l0,0h-0.1v-0.1c-0.1,0-0.2-0.1-0.3-0.1c0,0-0.1,0-0.1-0.1l0,0l0,0l-0.1,0l-0.1,0
		c0,0-0.1,0-0.1,0c0,0,0,0,0,0l0,0l0,0l0,0l0,0l0,0c0,0,0,0-0.1,0l0,0l0,0l0,0l0,0c0,0,0,0,0,0h0l-0.1-0.1c0,0,0,0,0,0
		C26.1,106,25,107.3,25,108.7z"/>
	<path class="st0" d="M37.2,84.8c0-3.8-2.4-6.9-5.3-6.9c-2.9,0-5.3,3.1-5.3,6.9c0,3.8,2.4,7,5.3,7C34.9,91.7,37.2,88.6,37.2,84.8z"
		/>
	<path class="st0" d="M32,63C14.3,63,0,77.3,0,95c0,17.7,14.3,32,32,32s32-14.3,32-32C64,77.3,49.7,63,32,63z M15.7,83.4L15.7,83.4
		L15.7,83.4c-1.2,0-2.3-0.6-3.1-1.7c-0.3-0.4-0.5-0.7-0.3-1c0.1-0.2,0.2-0.3,0.4-0.3c0.2,0,0.4,0.1,0.7,0.3c0.4,0.2,0.8,0.4,1.3,0.4
		l0.1,0c0.8,0,1.6-0.3,2.4-0.9c1.2-0.9,1.8-1.1,2.3-1.1h0.1c0.3,0,0.6,0,0.8,0.1c-0.5-0.5-1-0.8-1.7-0.8l-0.1,0
		c-0.5,0-1.2,0.3-2.2,0.8c-1.1,0.6-2.1,0.9-2.8,0.9l-0.1,0c-1.6,0-2.6-1.3-2.9-3.8c0-0.5,0-1.2,0.2-1.5c0.1-0.1,0.2-0.2,0.4-0.2h0h0
		c0.4,0,0.6,0.3,1,1.2c0.5,1.1,1.2,1.4,1.3,1.4c0.3,0,0.8-0.1,2-0.8c1-0.5,1.9-0.7,2.6-0.8h0.1c1.1,0,2.2,0.5,3.1,1.3
		c0.1,0.1,0.1,0.1,0.7,0.9c0.8-0.6,1.6-1.2,2.6-1.6c0.1-0.1,0.2-0.1,0.2-0.1l0.1,0l0,0.1c0,0,0.1,0.2-0.1,0.4
		c-0.3,0.4-0.7,0.9-1,1.5c-0.5,0.8-0.8,1.6-1.1,2.4c-0.3,0.9-0.5,1.8-0.6,2.6c-0.1,0.9-0.1,1.8,0,2.7c0.1,0.9,0.3,1.8,0.5,2.6
		c0.3,0.8,0.6,1.7,1,2.5c0.3,0.5,0.5,0.8,0.8,1.2c0.3,0.4,0.4,0.6,0.3,0.7c0,0-0.1,0.1-0.2,0.1c-0.2,0-0.6-0.2-0.7-0.3
		c-4.8-2.6-6.7-6.8-4.9-11c-0.1,0.1-0.2,0.1-0.3,0.2C17.5,82.9,16.6,83.4,15.7,83.4L15.7,83.4L15.7,83.4z M43,114.5
		c-0.3,0.3-0.4,0.3-0.5,0.3l-0.1,0l0-0.1c0-0.1-0.1-0.2,0.3-0.6c0.3-0.4,0.4-0.7,0.6-1.2c0.1-0.1,0.2-0.6,0.3-1
		c0.1-0.5,0.2-0.9,0.2-1.3c0-0.1,0-0.1,0-0.2v-0.1v-0.1c0,0,0-0.1,0-0.1c0,0,0-0.1,0-0.1c0-0.2,0-0.3-0.1-0.5c0-0.3-0.1-0.6-0.2-1
		c-0.1-0.3-0.2-0.6-0.4-1c-0.2-0.3-0.4-0.6-0.6-0.9c-0.2-0.2-0.4-0.5-0.7-0.8c-0.2-0.2-0.5-0.5-0.8-0.7l-0.1-0.1l-0.1-0.1
		c-0.1-0.1-0.2-0.1-0.2-0.1l-0.1-0.1c-0.1-0.1-0.2-0.1-0.4-0.2c-0.2-0.1-0.5-0.3-0.8-0.4c-0.7-0.3-1.3-0.6-1.9-0.8
		c-0.3-0.1-0.5-0.2-0.8-0.3c-0.5-0.2-1-0.4-1.5-0.5l-0.7-0.2c-0.6-0.2-1.3-0.4-2-0.7c0,0,0,0-0.1,0c-0.1,0-0.1,0-0.1,0
		c-0.1,0-0.1,0-0.2-0.1c-0.1,0-0.2-0.1-0.3-0.1l-0.1,0c-0.1,0-0.1,0-0.2-0.1c-0.1-0.1-0.2-0.1-0.3-0.1c-0.1,0-0.1-0.1-0.1-0.1l0,0
		l0,0l-0.1,0l0,0l-0.1,0l0,0c0,0-0.1,0-0.1-0.1l0.1-0.1l-0.2,0.1c0,0-0.1-0.1-0.1-0.1l0,0l0,0c-0.1-0.1-0.2-0.1-0.3-0.2
		c-0.1,0-0.1-0.1-0.2-0.2c-0.1,0-0.2-0.1-0.2-0.2l0,0l0,0c-0.1,0-0.1-0.1-0.2-0.1l0,0c0-0.1-0.1-0.1-0.1-0.1c0,0-0.1-0.1-0.1-0.1
		c0,0-0.1-0.1-0.1-0.1c0,0-0.1-0.1-0.1-0.1c0,0,0-0.1-0.1-0.1c0,0,0-0.1,0-0.1l0-0.1l0-0.1c0-0.1,0-0.1,0-0.1c0,0,0-0.1-0.1-0.3
		c0-0.1,0-0.4,0-0.5c0-0.1,0-0.4,0.1-0.5c0-0.1,0.1-0.4,0.2-0.5l0.1-0.1c0.1-0.1,0.1-0.3,0.2-0.5c0,0,0.1-0.1,0.1-0.2l0.1-0.1
		c0,0,0,0,0,0c0,0,0,0-0.1,0c0,0-0.1,0.1-0.1,0.1c0,0-0.1,0.1-0.1,0.1l-0.2,0.2c0,0.1-0.1,0.1-0.1,0.1l0,0c0,0-0.1,0.1-0.1,0.1
		l-0.1,0.1l-0.1,0.1c0,0,0,0,0,0L28.4,97l0,0l-0.1,0.1l-0.1,0.1c0,0.1-0.1,0.1-0.1,0.2c0,0-0.1,0.1-0.1,0.2
		c-0.1,0.1-0.1,0.2-0.2,0.3l0,0l0,0h0l0,0l0,0c0,0,0,0,0,0l0,0l0,0l0,0l0,0c0,0,0,0,0,0l0,0l0,0l0,0.1l0,0v0l0,0c0,0,0,0,0,0l0,0
		l0,0l0,0l0,0c0,0,0,0,0,0l0,0l-0.1,0l0.1,0.1l0,0c0,0,0,0,0,0l0,0l0,0v0l0,0v0.1l0,0l0,0.1l0,0l0,0l0,0.1l0,0l0,0l0,0v0
		c0,0,0,0.1,0,0.1l-0.2,0l0.2,0.1l0,0.1l0,0V99v0.1v0v0.1l0,0v0l0,0.1v0l0,0v0l0,0.1v0l0,0v0l0,0v0l0,0l0,0v0.1l0,0l0,0l0,0l0,0l0,0
		l0,0l0,0l0,0l0,0v0l0,0l0,0l0,0l0,0v0.1c0,0,0,0,0,0.1c0,0,0,0.1,0.1,0.1l0.1,0.1c0,0,0,0,0,0.1c0,0,0,0.1,0.1,0.1l0,0.1l0,0l0,0v0
		l0,0c0,0.1,0.1,0.1,0.1,0.2c0,0,0,0,0,0.1L28,101l0.2-0.1l0,0l0,0c0,0,0,0,0.1,0.1l0,0l0,0l0.1,0.1l0.1,0.1c0,0,0.1,0.1,0.1,0.1
		c0,0,0,0,0,0c0,0,0,0,0,0l0,0c0,0,0.1,0,0.1,0.1l-0.1,0.1l0.2-0.1l0.1,0c0,0,0.1,0.1,0.1,0.1l0.1,0.1c0,0,0,0,0.1,0
		c0,0,0.1,0,0.1,0.1c0,0,0,0,0.1,0.1c0.1,0,0.1,0.1,0.1,0.1c0.1,0,0.1,0.1,0.2,0.1l0.1,0c0,0,0,0,0,0c0,0,0,0,0.1,0l0.1,0l0,0l0,0
		c0,0,0,0,0.1,0l0,0l0,0l0,0l0.1,0l0.1,0.1c0.1,0,0.2,0.1,0.2,0.1l0.1,0l0.1,0v0c0.4,0.2,0.6,0.2,0.8,0.3l0.1,0
		c1.7,0.5,2.8,0.9,3.8,1.2l0.3,0.1l0.8,0.3c1.4,0.6,2.5,1.1,3.3,1.6c0.3,0.2,0.5,0.3,0.7,0.5c0.2,0.2,0.4,0.4,0.6,0.5
		c0.1,0.1,0.2,0.2,0.3,0.3c0.1,0.1,0.2,0.3,0.3,0.4c0,0,0.1,0.1,0.1,0.2l0,0.1l0,0.1c0,0,0,0.1,0.1,0.1l0.1,0.1c0,0.1,0,0.1,0.1,0.1
		l0,0.1c0,0,0,0,0.1,0.1c0,0,0,0.1,0,0.1c0,0,0,0.1,0,0.1c0,0.1,0,0.1,0,0.2c0,0,0,0.1,0,0.1c0,0.1,0,0.1,0,0.1c0,0.1,0,0.1,0,0.2
		c0,0.1,0,0.2,0,0.3c0,0.1,0,0.1,0,0.2l0,0.1v0.2v0.1v0.1c0,0,0,0.1,0,0.1l0,0.1c0,0.1,0,0.2,0,0.3c0,0.1,0,0.1,0,0.2l0,0.1
		c0,0,0,0.1,0,0.1l0,0.1l0,0.1c0,0,0,0.1,0,0.1c0,0.1,0,0.2-0.1,0.2l0,0.1c0,0.1,0,0.1,0,0.1l0,0.1l0,0.1l0,0c0,0,0,0,0,0
		c0,0,0,0,0,0c0,0.1,0,0.1-0.1,0.1c0,0,0,0.1,0,0.1c0,0,0,0,0,0.1l0,0.1l0,0v0.1h0v0h-0.1c0,0,0,0.1,0,0.1c0,0,0,0,0,0.1
		c0,0,0,0,0,0.1c0,0,0,0.1-0.1,0.1l0,0.1l0,0.1c0,0,0,0.1-0.1,0.1c0,0.1,0,0.1-0.1,0.2l-0.1,0.1l0,0l0,0.1l0,0c0,0,0,0,0,0l0,0
		l0,0.1l-0.1,0l0,0l0,0c0,0,0,0-0.1,0.1l-0.1,0.2c0,0.1-0.1,0.1-0.1,0.1c0,0,0,0.1-0.1,0.1l0,0l0,0l-0.1,0.1l-0.1,0.1l0,0.1h-0.1
		l0,0l0,0c0,0,0,0-0.1,0.1l0,0l0,0l-0.1,0.1l-0.1,0.1l0,0l-0.1,0.1c-0.1,0-0.1,0.1-0.1,0.1c-0.1,0.1-0.2,0.2-0.3,0.3l0,0l0,0l-0.1,0
		c0,0,0,0,0,0c0,0,0,0,0,0c0,0-0.1,0.1-0.1,0.1l0,0l0,0c0,0-0.1,0-0.1,0.1c0,0-0.1,0.1-0.1,0.1l-0.1,0l0,0l0,0l0,0l0,0l0,0l0,0H39
		l0,0l0,0l-0.1,0c0,0,0,0,0,0c0,0,0,0-0.1,0l0,0c0,0,0,0,0,0c0,0,0,0-0.1,0c0,0-0.1,0-0.1,0l0,0l0,0c0,0,0,0,0,0c0,0-0.1,0-0.1,0
		c0,0,0,0-0.1,0c0,0,0,0-0.1,0l0,0h0l0,0l0,0l0,0l0,0c0,0,0,0,0,0l0,0l0,0c0,0,0,0,0,0l0,0h0c0,0,0,0,0,0c0,0-0.1,0.1-0.2,0.1l0,0
		l0,0l0,0l-0.1,0l0,0c0,0-0.1,0-0.1,0c0,0,0,0,0,0c0,0-0.1,0-0.1,0l0,0l0,0l0,0l0,0l0,0l0,0l0,0l-0.1,0l-0.1,0c-0.1,0-0.1,0-0.3,0.1
		c0,0,0,0-0.1,0l0,0l0,0l0,0l0,0l-0.1,0l-0.1,0l-0.1,0l-0.1,0l0,0h0c-0.1,0-0.1,0-0.2,0l0,0c0,0-0.1,0-0.1,0c0,0,0,0,0,0l-0.1,0h0
		c0,0,0,0,0,0l0,0h0l-0.1,0l-0.1,0l-0.1,0l0,0c0,0-0.1,0-0.1,0l0,0h0l0,0h0l0,0h0l0,0l0,0l0,0l0,0v0l0,0h0l0,0l-0.1,0l0,0
		c0,0,0,0-0.1,0c-0.1,0-0.1,0-0.2,0c0,0,0,0-0.1,0c0,0,0,0,0,0c0,0-0.1,0-0.1,0c0,0-0.1,0-0.1,0c0,0,0,0,0,0c0,0,0,0-0.1,0l-0.1,0
		c0,0,0,0,0,0c0,0,0,0,0,0c0,0,0,0-0.1,0c0,0,0,0,0,0c0,0,0,0,0,0c0,0-0.1,0-0.1,0c0,0,0,0,0,0c0,0,0,0,0,0c0,0,0,0,0,0l0,0l0,0l0,0
		h0l-0.1,0l0,0h0l0,0c0,0,0,0-0.1,0l0,0h0h0c0,0-0.1,0-0.1,0c0,0,0,0,0,0c0,0-0.1,0-0.1,0h0l0,0h0h-0.1h0h-0.1l0,0h-0.2l-0.2,0
		c0,0-0.1,0-0.1,0c-0.1,0-0.2,0-0.3,0l-0.3,0l-0.2,0c-0.2,0-0.3,0-0.5-0.1l-0.1,0c-0.1,0-0.2,0-0.3,0c-0.3-0.1-0.6-0.1-0.8-0.1
		c-0.3,0-0.9-0.2-1.3-0.3l-0.2-0.1c-0.1,0-0.2-0.1-0.3-0.1c-0.4-0.2-0.8-0.3-1.1-0.5c-0.2-0.1-0.4-0.2-0.5-0.2
		c-0.6-0.3-0.9-0.5-1.2-0.8c-0.1,0-1.7-1-2.6-2.5c-1.1-1.7-1.3-3.3-0.8-4.7c0.5-1.6,1.9-2.7,3-3.3c-2.5,0.8-4.1,1.9-4.6,3.5
		c-0.9,2.6,1.4,5.6,2.1,6.4c0.1,0.1,0.2,0.2,0.2,0.3l-0.1,0.1h-0.1c-0.1,0-0.2,0-0.2-0.1c-1.5-0.7-6.2-3.5-5.1-7.6
		c1.2-3.7,7-4.2,8.5-4.2c-0.1-0.1-0.1-0.1-0.1-0.2c-0.2-0.2-0.3-0.5-0.5-0.7c-0.1-0.2-0.2-0.4-0.3-0.6c0,0,0-0.1,0-0.1
		c0,0,0-0.1,0-0.1l0-0.1c0,0,0-0.1,0-0.1l0-0.1l0-0.1c0,0,0-0.1,0-0.1l0,0v0c0,0,0-0.1,0-0.1c0-0.1,0-0.2-0.1-0.3l0-0.1v0l0-0.1
		l0-0.1l0,0c0,0,0-0.1,0-0.1c0,0,0,0,0-0.1c0,0,0,0,0,0c0,0,0,0,0,0c0,0,0,0,0-0.1l0,0v0c0,0,0-0.1,0-0.1c0-0.1,0-0.3,0-0.4
		c0-0.1,0-0.2,0-0.3c0-0.1,0-0.1,0-0.1c0-0.1,0-0.2,0.1-0.5l0,0l0,0c0,0,0,0,0-0.1c0.1-0.2,0.1-0.4,0.2-0.6l0,0l0,0
		c0-0.1,0-0.1,0.1-0.2l0-0.1c0-0.1,0.1-0.2,0.1-0.2l0-0.1l0,0v0l0,0l0,0l0,0l0.1-0.1l0.1-0.1c0,0,0-0.1,0.1-0.1l0.1-0.1
		c0,0,0.1-0.1,0.1-0.2c0,0,0.1-0.1,0.1-0.1c0,0,0,0,0-0.1l0.2-0.2l0.1-0.1l0,0l0,0c0,0,0,0,0.1,0c0,0,0,0,0,0c0,0,0.1-0.1,0.1-0.1
		c0.1-0.1,0.2-0.1,0.2-0.2l0.1,0c0.1-0.1,0.2-0.2,0.3-0.2l0,0l0,0c0.1-0.1,0.2-0.1,0.2-0.2l0.1,0l0.1,0l0.1-0.1
		c0.1-0.1,0.2-0.1,0.3-0.2l0,0l0,0c0,0,0.1,0,0.2-0.1c0,0,0.1,0,0.3-0.1c0,0,0,0,0.1-0.1l0.2-0.1c0,0,0.1-0.1,0.3-0.2c0,0,0,0,0.1,0
		c-0.2-0.1-0.5-0.3-0.7-0.4c-0.6-0.4-1.1-0.8-1.5-1.2c-0.5-0.5-0.9-0.9-1.2-1.5c-0.4-0.7-0.7-1.4-1-2.2c-0.3-1-0.6-2-0.6-3.1
		c-0.1-1.1,0-2.1,0.2-3.2c0.2-1.1,0.6-2.1,1-3c0.2-0.4,0.5-0.9,0.8-1.3c0.3-0.5,0.7-0.9,1-1.2c0.4-0.4,0.8-0.7,1.2-1
		c0.4-0.3,0.9-0.5,1.3-0.7c0.5-0.2,1-0.3,1.5-0.4c0.4-0.1,0.8-0.1,1.3-0.1c0.1,0,0.2,0,0.3,0c0.5,0,1,0.1,1.5,0.2
		c0.5,0.1,1,0.3,1.5,0.5c0.5,0.2,0.9,0.5,1.3,0.8c0.5,0.4,1,0.9,1.5,1.5c0.4,0.5,0.8,1.1,1.1,1.7c0.4,0.9,0.8,1.8,1,2.8
		c0.2,1,0.3,1.9,0.3,2.9c0,1-0.2,2-0.5,2.9c-0.3,0.9-0.7,1.8-1.2,2.7c-0.3,0.4-0.6,0.9-0.9,1.2c-0.3,0.3-0.5,0.5-0.7,0.7
		c0,0-0.1,0.1-0.6,0.5c-0.1,0.1-0.2,0.1-0.3,0.2L36,93.6c-0.3,0.2-0.6,0.4-0.6,0.4c-0.3,0.2-0.7,0.3-0.9,0.4
		c-0.3,0.1-0.7,0.3-0.8,0.4c0,0-0.1,0-0.1,0.1c0,0-0.1,0-0.1,0.1c0,0-0.1,0-0.1,0c-0.1,0-0.2,0.1-0.3,0.1c0,0,0,0,0,0
		c0,0-0.1,0.1-0.1,0.1c0,0-0.1,0-0.1,0.1c0,0,0,0,0,0l-0.1,0.1l0,0c-0.1,0-0.1,0.1-0.2,0.1c0,0-0.3,0.2-0.3,0.3c0,0,0,0,0,0.1
		c-0.1,0.1-0.1,0.2-0.2,0.2c-0.1,0.1-0.2,0.2-0.2,0.3l0,0.1l0,0c0,0,0,0.1-0.1,0.1c0,0.1-0.1,0.2-0.1,0.3c0,0.2,0,0.4,0,0.5
		c0,0.2,0,0.2,0.1,0.3c0.1,0.2,0.2,0.3,0.2,0.4l0,0l0.1,0.1l0,0c0,0,0,0,0.1,0.1l-0.1,0.2l0.1-0.1l0,0l0,0l0,0l0,0c0,0,0,0,0.1,0.1
		c0.1,0,0.1,0.1,0.1,0.1l0.1,0l0,0l0.1,0c0,0,0.1,0,0.1,0c0,0,0,0,0.1,0l0.1,0l0,0l0.1,0c0,0,0.1,0,0.1,0c0,0,0,0,0.1,0
		c0.1,0,0.2,0.1,0.3,0.1c0.1,0,0.1,0,0.2,0c0.1,0,0.3,0.1,0.4,0.1c0.1,0.1,0.3,0.1,0.4,0.1l0.1,0c0.4,0.1,0.8,0.3,1.2,0.4
		c0.4,0.1,9.5,2.7,10.7,7.8C46.9,109.5,45.8,112,43,114.5z M53.4,76.4c-0.3,2.5-1.3,3.8-3,3.8l-0.1,0c-0.7,0-1.7-0.3-2.8-0.9
		c-0.9-0.5-1.7-0.8-2.1-0.8l-0.1,0c-0.7,0-1.2,0.2-1.7,0.8c0.3,0,0.5-0.1,0.8-0.1h0.1c0.5,0,1.1,0.2,2.2,1.1
		c0.8,0.6,1.7,0.9,2.4,0.9l0.1,0c0.5,0,0.9-0.1,1.3-0.4c0.2-0.1,0.5-0.3,0.7-0.3h0c0.2,0,0.3,0.1,0.4,0.3c0.1,0.3,0,0.6-0.3,1
		c-0.8,1.1-1.9,1.7-3.1,1.7h-0.1c-0.8,0-1.8-0.5-2.9-1.3C45.1,82,45,81.9,45,81.9c1.7,4.3-0.1,8.5-5,11c-0.1,0.1-0.4,0.3-0.6,0.3
		c-0.1,0-0.2-0.1-0.2-0.1c-0.1-0.1,0-0.3,0.3-0.7c0,0,0.5-0.8,0.8-1.2c0.4-0.8,0.8-1.7,1-2.5c0.2-0.9,0.4-1.7,0.5-2.6
		c0.1-0.9,0.1-1.8,0-2.7c-0.1-0.9-0.3-1.7-0.5-2.6c-0.3-0.8-0.6-1.6-1.1-2.4c-0.4-0.6-0.7-1.1-1-1.5c-0.2-0.2-0.1-0.4-0.1-0.4
		c0-0.1,0.1-0.1,0.2-0.1c0.1,0,0.1,0,0.3,0.1c0.9,0.5,1.8,1,2.5,1.6c0.6-0.8,0.6-0.8,0.7-0.9c0.9-0.9,2-1.3,3.1-1.3h0.1
		c0.7,0,1.6,0.3,2.7,0.8c1.2,0.6,1.7,0.8,2,0.8c0,0,0.8-0.1,1.4-1.4c0.4-0.9,0.6-1.2,1-1.2h0h0c0.1,0,0.3,0.1,0.4,0.2
		C53.3,75.1,53.4,75.6,53.4,76.4z"/>
</g>
</svg>
