<?xml version="1.0" encoding="utf-8"?>
<!-- Generator: Adobe Illustrator 21.1.0, SVG Export Plug-In . SVG Version: 6.00 Build 0)  -->
<svg version="1.1" id="图层_1" xmlns="http://www.w3.org/2000/svg" xmlns:xlink="http://www.w3.org/1999/xlink" x="0px" y="0px"
	 viewBox="0 0 64 64" style="enable-background:new 0 0 64 64;" xml:space="preserve">
<style type="text/css">
	.st0{display:none;}
	.st1{display:inline;fill:none;stroke:#FFFFFF;stroke-width:2;stroke-miterlimit:10;}
	.st2{display:inline;fill:#FFFFFF;stroke:#FFFFFF;stroke-width:2;stroke-miterlimit:10;}
	.st3{fill:#FFFFFF;}
	.st4{fill:#276327;}
</style>
<g id="图层_1_1_" class="st0">
	<path class="st1" d="M128-11H-30c-6.6,0-12-5.4-12-12l0,0c0-6.6,5.4-12,12-12h158"/>
	<path class="st2" d="M128-11h18c6.6,0,12-5.4,12-12l0,0c0-6.6-5.4-12-12-12h-18V-11z"/>
</g>
<g id="图层_2">
	<circle class="st3" cx="32" cy="32" r="32"/>
	<g>
		<path class="st4" d="M35.8,35.6c-0.4-0.1-0.8-0.3-1.3-0.4c-0.2-0.1-0.3-0.1-0.5-0.2c-0.1,0-0.3-0.1-0.4-0.1c-0.1,0-0.1,0-0.2,0
			c-0.1,0-0.2-0.1-0.3-0.1c0,0-0.1,0-0.1,0c0,0,0,0,0,0c0,0-0.1,0-0.1,0c0,0,0,0,0,0c0,0,0,0,0,0c0,0,0,0-0.1,0c0,0-0.1,0-0.2-0.1
			c0,0,0,0,0,0c0,0-0.1,0-0.1-0.1c0,0-0.1,0-0.1-0.1c0,0,0,0,0,0c0,0,0,0,0,0c0,0,0,0-0.1,0c0,0-0.1-0.1-0.1-0.1
			c0,0-0.1-0.1-0.1-0.1c-0.1-0.1-0.2-0.2-0.3-0.4c0-0.1-0.1-0.2-0.1-0.3c0-0.1-0.1-0.3,0-0.5c0-0.1,0-0.1,0.1-0.3c0,0,0-0.1,0.1-0.1
			c0,0,0-0.1,0-0.1c0.1-0.1,0.2-0.2,0.2-0.4c0-0.1,0.2-0.3,0.2-0.3c0.1-0.1,0.4-0.3,0.4-0.3c0.1,0,0.1-0.1,0.2-0.1c0,0,0,0,0.1,0
			c0,0,0.1,0,0.1-0.1c0,0,0.1,0,0.1-0.1c0,0,0.1-0.1,0.1-0.1c0,0,0,0,0.1,0c0,0,0.2-0.1,0.3-0.2c0,0,0.1,0,0.1,0c0,0,0.1,0,0.1-0.1
			c0,0,0.1,0,0.1-0.1c0,0,0.5-0.2,0.8-0.4c0.2-0.1,0.6-0.3,0.9-0.4c0,0,0.4-0.2,0.6-0.4c0.1,0,0.3-0.2,0.4-0.3
			c0.2-0.2,0.6-0.5,0.6-0.5c0.3-0.3,0.5-0.5,0.8-0.7c0.3-0.3,0.7-0.8,0.9-1.2c0.5-0.8,0.9-1.7,1.2-2.7c0.3-0.9,0.4-1.9,0.5-2.9
			c0-1-0.1-2-0.3-2.9c-0.2-1-0.5-1.9-1-2.8c-0.3-0.6-0.7-1.2-1.1-1.7c-0.5-0.5-1-1-1.5-1.4c-0.4-0.3-0.9-0.6-1.3-0.8
			c-0.5-0.2-1-0.4-1.5-0.5c-0.5-0.1-1-0.2-1.6-0.2c-0.5,0-1.1,0-1.6,0.1c-0.5,0.1-1,0.2-1.5,0.4c-0.5,0.2-0.9,0.4-1.4,0.7
			c-0.4,0.3-0.8,0.6-1.2,1c-0.4,0.4-0.7,0.7-1,1.2c-0.3,0.4-0.6,0.8-0.8,1.3c-0.5,0.9-0.9,1.9-1.1,3c-0.2,1-0.3,2.1-0.2,3.2
			c0.1,1.1,0.3,2.1,0.6,3.1c0.3,0.8,0.6,1.5,1.1,2.2c0.4,0.6,0.8,1.1,1.2,1.5c0.5,0.5,0.9,0.9,1.5,1.2c0.4,0.2,0.7,0.4,1.1,0.6
			C28.9,30,28.9,30,28.9,30c-0.2,0.1-0.3,0.1-0.3,0.1c-0.2,0.1-0.3,0.1-0.3,0.1C28,30.4,28,30.4,28,30.5c-0.2,0.1-0.3,0.1-0.3,0.1
			c-0.2,0.1-0.2,0.1-0.3,0.1C27.2,30.9,27,31,26.9,31c0,0-0.1,0-0.1,0.1c-0.1,0-0.2,0.1-0.2,0.2c0,0,0,0,0,0
			c-0.1,0.1-0.2,0.2-0.3,0.3c-0.1,0.1-0.1,0.1-0.3,0.2c0,0,0,0-0.1,0.1c0,0-0.1,0.1-0.1,0.1c-0.1,0.1-0.2,0.2-0.3,0.4
			c0,0-0.1,0.1-0.1,0.2c0,0.1-0.1,0.2-0.2,0.2c0,0,0,0.1-0.1,0.1c0,0.1-0.1,0.2-0.2,0.2c0,0,0,0,0,0c0,0.1-0.1,0.2-0.2,0.3
			c0,0.1-0.1,0.2-0.1,0.2c0,0,0,0,0,0.1c-0.1,0.1-0.1,0.3-0.2,0.6c0,0,0,0.1,0,0.1c-0.1,0.3-0.1,0.4-0.1,0.5c0,0,0,0,0,0.1
			c0,0.1,0,0.2,0,0.3c0,0.1,0,0.3,0,0.4c0,0,0,0.1,0,0.1c0,0,0,0,0,0.1c0,0,0,0,0,0c0,0,0,0,0,0c0,0,0,0.1,0,0.1c0,0,0,0,0,0.1
			c0,0,0,0,0,0.1c0,0,0,0,0,0.1c0,0.1,0,0.1,0,0.2c0,0,0,0,0,0.1c0,0.1,0,0.1,0.1,0.2c0,0,0,0.1,0,0.1c0,0,0,0.1,0,0.1
			c0,0.1,0,0.1,0.1,0.2c0,0,0,0.1,0,0.1c0,0,0,0.1,0,0.1c0,0,0,0.1,0,0.1c0,0,0,0.1,0.1,0.1c0.1,0.2,0.2,0.3,0.3,0.5
			c0.1,0.2,0.3,0.4,0.5,0.7c0.1,0.2,0.2,0.3,0.4,0.5c0,0-7.7,0-9,4.2c-1.1,4.1,3.9,6.9,5.2,7.5c0,0,0.4,0.2,0.1-0.1
			c-1.3-1.5-6.7-8.5,4.2-10.7c0,0-7.4,2.7-3.6,8.6c1,1.6,2.7,2.5,2.7,2.5c0.3,0.3,0.7,0.4,1.3,0.8c0.1,0,0.3,0.1,0.5,0.2
			c0.4,0.2,0.8,0.3,1.1,0.5c0.2,0.1,0.4,0.1,0.6,0.2c0.5,0.2,1.1,0.3,1.3,0.3c0.2,0,0.5,0.1,0.8,0.1c0.2,0,0.3,0,0.5,0.1
			c0.2,0,0.3,0,0.5,0.1c0.2,0,0.3,0,0.5,0c0.1,0,0.2,0,0.3,0c0,0,0.1,0,0.2,0c0.1,0,0.1,0,0.2,0c0.1,0,0.1,0,0.2,0c0,0,0.1,0,0.1,0
			c0,0,0,0,0,0c0,0,0,0,0,0s0,0,0,0c0,0,0,0,0,0c0,0,0,0,0,0c0,0,0,0,0,0c0,0,0,0,0,0c0,0,0,0,0,0c0,0,0,0,0,0c0,0,0.1,0,0.1,0
			c0,0,0,0,0.1,0c0,0,0,0,0,0c0,0,0,0,0,0c0,0,0,0,0,0c0,0,0,0,0,0c0,0,0,0,0,0c0,0,0,0,0,0c0,0,0,0,0,0c0,0,0,0,0.1,0
			c0,0,0.1,0,0.1,0c0,0,0,0,0.1,0c0,0,0,0,0,0c0,0,0,0,0,0c0,0,0,0,0,0c0,0,0,0,0.1,0c0,0,0,0,0,0c0,0,0,0,0,0c0,0,0,0,0.1,0
			c0,0,0.1,0,0.1,0c0,0,0.1,0,0.1,0c0,0,0,0,0,0c0,0,0,0,0,0c0,0,0.1,0,0.1,0c0,0,0.1,0,0.1,0c0.1,0,0.1,0,0.2,0c0,0,0.1,0,0.1,0
			c0,0,0,0,0,0c0,0,0,0,0,0c0,0,0,0,0,0c0,0,0,0,0,0c0,0,0,0,0,0c0,0,0,0,0,0c0,0,0,0,0,0c0,0,0,0,0,0c0,0,0,0,0,0c0,0,0,0,0,0
			c0,0,0,0,0,0s0,0,0,0c0,0,0,0,0,0c0,0,0,0,0,0c0,0,0,0,0,0c0,0,0.1,0,0.1,0c0.1,0,0.1,0,0.1,0c0,0,0.1,0,0.1,0c0,0,0,0,0,0
			c0,0,0,0,0,0c0,0,0,0,0,0c0,0,0,0,0,0s0,0,0,0c0,0,0,0,0,0c0,0,0.1,0,0.1,0c0,0,0,0,0.1,0c0.1,0,0.1,0,0.2,0c0,0,0.1,0,0.1,0
			c0,0,0,0,0,0c0.1,0,0.2,0,0.2-0.1c0,0,0,0,0.1,0c0,0,0,0,0.1,0c0,0,0,0,0,0c0,0,0,0,0,0c0,0,0,0,0,0c0.1,0,0.2-0.1,0.3-0.1
			c0.1,0,0.2,0,0.2-0.1c0,0,0.1,0,0.1,0c0,0,0,0,0.1,0c0,0,0,0,0,0c0,0,0,0,0.1,0c0,0,0.1,0,0.1,0c0,0,0,0,0,0c0,0,0,0,0,0
			c0,0,0,0,0.1,0c0,0,0,0,0,0c0,0,0,0,0,0c0,0,0,0,0,0c0.1,0,0.2-0.1,0.2-0.1c0,0,0,0,0,0c0,0,0,0,0,0c0,0,0,0,0,0c0,0,0,0,0,0
			c0,0,0,0,0,0c0,0,0,0,0,0c0,0,0,0,0,0c0,0,0,0,0,0c0,0,0,0,0,0c0,0,0,0,0.1,0c0,0,0,0,0,0c0,0,0,0,0,0c0,0,0,0,0,0c0,0,0,0,0,0
			c0,0,0,0,0.1,0c0,0,0.1,0,0.1,0c0,0,0,0,0.1,0c0,0,0,0,0.1,0c0,0,0,0,0.1,0c0,0,0,0,0.1,0c0,0,0,0,0,0c0,0,0,0,0,0c0,0,0,0,0,0
			c0,0,0,0,0.1,0c0,0,0,0,0.1,0c0,0,0,0,0,0c0,0,0,0,0,0c0,0,0,0,0,0c0,0,0,0,0,0c0,0,0,0,0,0c0,0,0,0,0,0c0,0,0,0,0,0c0,0,0,0,0,0
			c0,0,0,0,0.1,0c0,0,0,0,0,0c0.1,0,0.1-0.1,0.2-0.1c0,0,0.1,0,0.1,0c0,0,0,0,0.1,0c0,0,0,0,0,0c0,0,0,0,0.1,0c0,0,0,0,0,0
			c0,0,0,0,0,0c0,0,0,0,0,0c0.1-0.1,0.2-0.2,0.3-0.3c0.1-0.1,0.1-0.1,0.2-0.1c0,0,0.1-0.1,0.1-0.1c0,0,0.1,0,0.1-0.1
			c0,0,0.1-0.1,0.1-0.1c0,0,0.1-0.1,0.1-0.1c0,0,0,0,0,0c0,0,0,0,0,0c0,0,0,0,0,0c0,0,0,0,0,0c0,0,0,0,0,0c0,0,0,0,0,0c0,0,0,0,0,0
			c0.1-0.1,0.1-0.1,0.2-0.2c0,0,0.1-0.1,0.1-0.1c0,0,0.1-0.1,0.1-0.1c0,0,0.1-0.1,0.1-0.2c0,0,0-0.1,0.1-0.1c0,0,0,0,0-0.1
			c0,0,0,0,0,0c0,0,0,0,0,0c0,0,0,0,0,0c0,0,0,0,0,0c0,0,0,0,0,0c0,0,0,0,0,0c0,0,0,0,0,0c0,0,0,0,0,0c0,0,0,0,0,0
			c0,0,0.1-0.1,0.1-0.1c0,0,0.1-0.1,0.1-0.1c0,0,0.1-0.1,0.1-0.2c0-0.1,0.1-0.1,0.1-0.2c0,0,0-0.1,0.1-0.1c0,0,0-0.1,0-0.1
			c0,0,0,0,0,0c0,0,0,0,0,0c0,0,0,0,0,0c0,0,0,0,0,0c0,0,0,0,0,0c0,0,0,0,0,0c0,0,0,0,0,0v0c0,0,0,0,0,0c0,0,0,0,0,0
			c0,0,0-0.1,0-0.1c0,0,0-0.1,0.1-0.2c0,0,0-0.1,0-0.1c0,0,0,0,0-0.1c0,0,0,0,0-0.1c0-0.1,0-0.1,0.1-0.2c0-0.1,0.1-0.2,0.1-0.3
			c0,0,0-0.1,0-0.2c0,0,0-0.1,0-0.2c0-0.1,0-0.2,0-0.3c0-0.1,0-0.2,0-0.3c0,0,0-0.1,0-0.1c0,0,0,0,0-0.1c0,0,0,0,0,0c0,0,0,0,0,0
			c0,0,0,0,0,0c0,0,0-0.1,0-0.1c0-0.1,0-0.2,0-0.2c0-0.1,0-0.2,0-0.3c0-0.1,0-0.1,0-0.2c0,0,0-0.1,0-0.2c0-0.1,0-0.2-0.1-0.3
			c0,0,0-0.1,0-0.1c0,0,0-0.1,0-0.1c0,0,0-0.1-0.1-0.2c0-0.1-0.1-0.2-0.1-0.3c0,0,0-0.1-0.1-0.1c0,0,0-0.1-0.1-0.1
			c0-0.1-0.1-0.1-0.1-0.1c-0.1-0.1-0.2-0.3-0.3-0.4c-0.1-0.1-0.2-0.2-0.3-0.3c-0.2-0.2-0.4-0.3-0.5-0.5c-0.2-0.2-0.4-0.3-0.7-0.5
			c-0.8-0.5-1.9-1-3.4-1.6c-0.4-0.1-0.8-0.3-1.2-0.4c-1.1-0.4-2.4-0.8-3.9-1.3c-0.2-0.1-0.5-0.1-1.1-0.4c0,0,0,0,0,0
			c-0.2-0.1-0.3-0.1-0.4-0.2c-0.1,0-0.2-0.1-0.2-0.1c0,0,0,0,0,0c0,0,0,0,0,0c0,0,0,0,0,0c0,0,0,0,0,0c0,0,0,0,0,0c0,0,0,0,0,0
			c0,0,0,0,0,0c0,0,0,0,0,0c0,0-0.1,0-0.1-0.1c-0.1,0-0.1-0.1-0.2-0.1c-0.1,0-0.1-0.1-0.2-0.1c0,0,0,0-0.1,0c0,0,0,0-0.1,0
			c-0.1,0-0.1-0.1-0.2-0.1c0,0-0.1,0-0.1-0.1c0,0-0.1-0.1-0.2-0.1c0,0,0,0-0.1,0c0,0,0,0,0,0c0,0-0.1-0.1-0.1-0.1c0,0,0,0-0.1-0.1
			c0,0,0,0,0,0c0,0-0.1-0.1-0.1-0.1c0,0-0.1-0.1-0.1-0.1c0,0,0,0,0,0c0,0,0,0,0,0c0,0,0,0-0.1-0.1c0,0,0,0,0,0c0,0-0.1-0.1-0.1-0.1
			c0-0.1-0.1-0.1-0.1-0.2c0,0,0,0,0,0c0,0,0,0,0-0.1c0,0-0.1-0.1-0.1-0.1c0,0,0,0,0,0c0,0,0-0.1-0.1-0.1c0,0,0-0.1-0.1-0.1
			c0,0,0,0,0-0.1c0,0,0,0,0,0c0,0,0,0,0,0c0,0,0,0,0,0c0,0,0,0,0,0c0,0,0,0,0,0c0,0,0,0,0,0c0,0,0,0,0,0c0,0,0,0,0,0c0,0,0,0,0,0
			c0,0,0,0,0-0.1c0,0,0,0,0,0c0,0,0,0,0,0c0,0,0,0,0,0c0,0,0,0,0,0c0,0,0,0,0-0.1c0,0,0,0,0,0c0,0,0,0,0,0c0,0,0,0,0,0c0,0,0,0,0,0
			c0,0,0,0,0,0c0,0,0,0,0,0c0,0,0,0,0-0.1c0,0,0,0,0-0.1c0,0,0,0,0-0.1c0,0,0,0,0-0.1c0,0,0,0,0-0.1c0,0,0-0.1,0-0.1c0,0,0,0,0-0.1
			c0,0,0,0,0,0c0,0,0,0,0,0c0,0,0,0,0,0c0,0,0,0,0,0v0c0,0,0,0,0,0c0,0,0,0,0,0c0,0,0,0,0,0c0,0,0,0,0,0c0,0,0,0,0-0.1c0,0,0,0,0,0
			c0,0,0,0,0,0c0,0,0,0,0-0.1c0,0,0,0,0,0c0,0,0,0,0,0c0,0,0,0,0-0.1c0,0,0-0.1,0-0.1c0,0,0,0,0,0c0,0,0,0,0,0c0,0,0,0,0,0
			c0,0,0,0,0,0c0,0,0,0,0,0c0,0,0,0,0,0c0,0,0,0,0,0c0,0,0,0,0,0c0,0,0,0,0,0c0,0,0,0,0,0c0,0,0,0,0,0c0,0,0,0,0-0.1c0,0,0,0,0,0
			c0,0,0,0,0,0c0,0,0,0,0,0c0,0,0,0,0,0c0,0,0,0,0,0c0,0,0,0,0,0c0,0,0,0,0,0c0,0,0,0,0,0c0,0,0,0,0,0c0,0,0,0,0,0c0,0,0,0,0,0
			c0,0,0,0,0,0c0,0,0,0,0,0c0,0,0,0,0,0c0,0,0,0,0-0.1c0.1-0.1,0.1-0.3,0.2-0.4c0-0.1,0.1-0.1,0.1-0.2c0,0,0.1-0.1,0.1-0.2
			c0-0.1,0.1-0.1,0.1-0.2c0-0.1,0.1-0.1,0.1-0.1c0,0,0.1-0.1,0.1-0.1c0,0,0.1-0.1,0.2-0.2c0,0,0.1-0.1,0.2-0.1
			c0.1,0,0.1-0.1,0.2-0.2c0.1,0,0.1-0.1,0.2-0.2c0.1,0,0.1-0.1,0.2-0.1c0,0,0.1-0.1,0.1-0.1c0.1-0.1,0.2-0.1,0.4-0.2c0,0,0,0,0,0.1
			c-0.1,0.1-0.1,0.2-0.1,0.2c-0.1,0.1-0.1,0.1-0.1,0.1c-0.1,0-0.1,0.2-0.2,0.2c0,0,0,0-0.1,0.1c-0.1,0.1-0.2,0.3-0.2,0.3
			c-0.1,0.2-0.2,0.5-0.3,0.6c-0.1,0.1-0.1,0.4-0.2,0.5c0,0.1-0.1,0.4-0.1,0.5c0,0.1,0,0.3,0,0.4c0,0.1,0,0.2,0.1,0.3
			c0,0,0,0.1,0.1,0.2c0,0,0,0.1,0,0.1c0,0,0,0.1,0,0.1c0,0.1,0,0.1,0.1,0.1c0,0.1,0.1,0.1,0.1,0.2c0,0,0,0.1,0,0.1
			c0,0,0,0.1,0.1,0.1c0,0,0.1,0.1,0.1,0.1c0.1,0,0.1,0.1,0.2,0.2c0,0,0,0,0,0c0.2,0.1,0.4,0.3,0.5,0.4c0.1,0.1,0.2,0.1,0.3,0.2
			c0.1,0,0.1,0.1,0.2,0.1c0,0,0.1,0,0.1,0c0,0,0,0,0.1,0c0,0,0,0,0,0c0,0,0,0,0,0c0,0,0,0,0,0c0,0,0,0,0.1,0c0,0,0.1,0,0.1,0.1
			c0.1,0,0.2,0.1,0.4,0.1c0.1,0,0.2,0.1,0.3,0.1c0.1,0.1,0.2,0.1,0.3,0.1c0.1,0,0.2,0,0.2,0.1c0,0,0.1,0,0.1,0c0,0,0.1,0,0.1,0
			c1,0.3,2,0.6,2.8,0.9c0.9,0.3,1.7,0.6,2.4,0.9c0.7,0.3,1.4,0.6,2,0.8c0.3,0.1,0.6,0.3,0.8,0.4c0.2,0.1,0.4,0.2,0.5,0.3
			c0.1,0,0.2,0.1,0.2,0.2c0.1,0.1,0.2,0.1,0.3,0.2c0.3,0.2,0.6,0.5,0.9,0.7c0.3,0.3,0.5,0.5,0.7,0.8c0.2,0.3,0.4,0.6,0.6,0.9
			c0.2,0.3,0.3,0.6,0.4,1c0.1,0.4,0.2,0.7,0.3,1.1c0,0.2,0.1,0.4,0.1,0.5c0,0.1,0,0.2,0,0.3c0,0,0,0.1,0,0.1c0,0,0,0.1,0,0.1
			c0,0.1,0,0.1,0,0.2c0,0.5-0.1,0.9-0.2,1.4c-0.1,0.4-0.3,0.9-0.4,1.1c-0.2,0.5-0.4,0.8-0.7,1.2c0,0-0.7,0.8,0.1,0.1
			C54.6,40.7,35.8,35.6,35.8,35.6z M28,40.7c0,0,0.1,0,0.1,0.1c0,0,0.1,0,0.1,0.1c0,0,0,0,0,0c0,0,0,0,0,0c0,0,0,0,0,0c0,0,0,0,0,0
			c0,0,0,0,0,0c0,0,0,0,0,0c0,0,0,0,0,0c0,0,0,0,0,0c0,0,0,0,0,0c0,0,0,0,0,0c0,0,0,0,0,0c0,0,0,0,0,0c0,0,0,0,0,0c0,0,0,0,0.1,0
			c0.1,0,0.1,0.1,0.2,0.1c0.1,0,0.1,0.1,0.2,0.1c0.1,0,0.2,0.1,0.4,0.2c0,0,0,0,0,0c0,0,0,0,0,0c0,0,0,0,0,0c0,0,0,0,0,0
			c0,0,0,0,0.1,0c0,0,0,0,0,0c0.1,0,0.1,0,0.2,0.1c0,0,0,0,0.1,0c0.1,0.1,0.2,0.1,0.4,0.1c0.1,0,0.2,0.1,0.3,0.1
			c0.1,0,0.2,0.1,0.2,0.1c0,0,0,0,0.1,0c0,0,0.1,0,0.1,0c0.1,0,0.3,0.1,0.4,0.1c0.1,0,0.1,0,0.2,0.1c0.1,0,0.3,0.1,0.5,0.2
			c0.1,0,0.2,0,0.2,0.1c0.8,0.2,1.5,0.5,2.2,0.7c0.7,0.2,1.3,0.4,1.8,0.7c0.5,0.2,1,0.4,1.4,0.6c0.2,0.1,0.4,0.2,0.5,0.3
			c0.1,0,0.1,0.1,0.2,0.1c0,0,0,0,0,0c0,0,0.1,0.1,0.1,0.1c0,0,0.1,0,0.1,0.1c0.2,0.1,0.3,0.2,0.4,0.3c0.1,0.1,0.2,0.2,0.3,0.3
			c0.1,0.1,0.1,0.2,0.2,0.3c0.1,0.1,0.1,0.2,0.1,0.2c0,0.1,0,0.2,0.1,0.3c0,0.1,0,0.1,0,0.2c0,0,0,0.1,0,0.1c0,0,0,0,0,0
			c0,0,0,0,0,0c0,0,0,0,0,0c0,0.1,0,0.2,0,0.3c0,0,0,0.1,0,0.1c0,0.1-0.1,0.3-0.1,0.4c0,0.1-0.1,0.3-0.2,0.4c0,0.2-0.2,0.4-0.3,0.5
			c-0.1,0.1-0.3,0.3-0.4,0.5c0,0-0.1,0.1-0.2,0.2c-0.1,0.1-0.3,0.3-0.5,0.4c0,0,0,0-0.1,0.1c-0.1,0-0.2,0.1-0.3,0.2c0,0,0,0,0,0
			c0,0-0.1,0-0.1,0.1c0,0-0.1,0-0.1,0.1c-0.1,0-0.1,0.1-0.2,0.1c0,0,0,0-0.1,0c0,0-0.1,0-0.1,0c-0.1,0-0.1,0-0.2,0.1c0,0,0,0-0.1,0
			c0,0-0.1,0-0.2,0.1c0,0,0,0,0,0c0,0-0.1,0-0.2,0.1c0,0,0,0-0.1,0c0,0-0.1,0-0.2,0c0,0,0,0-0.1,0c0,0,0,0-0.1,0c0,0,0,0-0.1,0
			c0,0-0.1,0-0.2,0c0,0,0,0-0.1,0c-0.1,0-0.1,0-0.2,0.1c0,0-0.1,0-0.1,0c0,0,0,0,0,0c0,0-0.1,0-0.2,0c0,0-0.1,0-0.1,0c0,0,0,0,0,0
			c-0.1,0-0.2,0-0.3,0c-0.1,0-0.2,0-0.2,0c0,0-0.1,0-0.1,0c-0.1,0-0.2,0-0.2,0c-0.1,0-0.1,0-0.1,0c-0.1,0-0.1,0-0.2,0
			c-0.1,0-0.1,0-0.1,0c-0.2,0-0.2,0-0.2,0c-0.1,0-0.2,0-0.4,0c0,0,0,0-0.1,0c-0.1,0-0.1,0-0.2,0c-0.1,0-0.1,0-0.2,0
			c-0.2,0-0.3,0-0.5,0c-0.1,0-0.2,0-0.4,0c0,0,0,0,0,0c-0.1,0-0.3,0-0.4-0.1c0,0,0,0,0,0c-0.2,0-0.3-0.1-0.5-0.1
			c-0.3-0.1-0.5-0.1-0.8-0.2c0,0-0.1,0-0.1,0c-0.3-0.1-0.6-0.2-0.9-0.3c-0.2-0.1-0.3-0.1-0.5-0.2c0,0,0,0,0,0
			c-0.2-0.1-0.3-0.1-0.5-0.2c-0.1-0.1-0.2-0.1-0.3-0.2c-0.1,0-0.2-0.1-0.3-0.1c-0.3-0.2-0.5-0.3-0.8-0.5
			C26.9,48.7,21.1,44.7,28,40.7z M26.3,20.6c0-4,2.5-7.2,5.7-7.2c3.1,0,5.7,3.2,5.7,7.2c0,4-2.5,7.2-5.7,7.2
			C28.9,27.8,26.3,24.5,26.3,20.6z"/>
		<path class="st4" d="M24.4,12.2c-1,0.5-1.9,1.1-2.7,1.7c-0.7-0.9-0.8-1-0.8-1c-0.9-0.8-2-1.3-3.2-1.3c-0.7,0-1.6,0.3-2.7,0.7
			c-1,0.5-1.7,0.8-2.1,0.8c-0.2,0-1-0.2-1.6-1.5c-0.4-0.9-0.6-1.1-0.9-1.1c-0.1,0-0.2,0-0.2,0.1C10,10.9,10,11.6,10,12
			c0.3,2.5,1.3,3.7,2.9,3.7c0.7,0,1.7-0.3,2.8-0.9c1-0.6,1.8-0.9,2.3-0.9c0.8,0,1.5,0.3,2.3,1.2C19.9,15,19.5,15,19,15
			c-0.5,0-1,0.2-2.2,1.1C15.9,16.6,15,17,14.1,17c-0.6,0-1.1-0.1-1.5-0.4c-0.2-0.1-0.5-0.3-0.6-0.3c-0.1,0-0.2,0.1-0.3,0.2
			c-0.1,0.2,0,0.4,0.3,0.8c0.9,1.1,1.9,1.7,3.2,1.6c0.8,0,1.8-0.4,2.9-1.3c0.2-0.2,0.5-0.3,0.7-0.4c-2.1,4.4-0.2,8.7,4.9,11.4
			c0,0,1.2,0.7,0.4-0.3c-0.3-0.4-0.6-0.8-0.8-1.2c-0.5-0.8-0.8-1.7-1.1-2.5c-0.3-0.9-0.4-1.8-0.5-2.7c-0.1-0.9-0.1-1.8,0-2.8
			c0.1-0.9,0.3-1.8,0.6-2.7c0.3-0.9,0.7-1.7,1.1-2.5c0.3-0.5,0.7-1,1.1-1.5C24.5,12.3,24.8,12,24.4,12.2z"/>
		<path class="st4" d="M39.7,12.2c1,0.5,1.9,1.1,2.7,1.7c0.7-0.9,0.8-1,0.8-1c0.9-0.8,2-1.3,3.2-1.3c0.7,0,1.6,0.3,2.7,0.7
			c1,0.5,1.7,0.8,2.1,0.8c0.2,0,1-0.2,1.6-1.5c0.4-0.9,0.6-1.1,0.9-1.1c0.1,0,0.2,0,0.3,0.1c0.2,0.2,0.2,1,0.2,1.4
			c-0.3,2.5-1.3,3.7-2.9,3.7c-0.7,0-1.7-0.3-2.8-0.9c-1-0.6-1.8-0.9-2.3-0.9c-0.8,0-1.5,0.3-2.3,1.2C44.1,15,44.5,15,45,15
			c0.5,0,1,0.2,2.2,1.1c0.9,0.6,1.8,0.9,2.6,0.9c0.6,0,1.1-0.1,1.5-0.4c0.2-0.1,0.5-0.3,0.6-0.3c0.1,0,0.2,0.1,0.3,0.2
			c0.1,0.2,0,0.4-0.3,0.8c-0.9,1.1-1.9,1.7-3.2,1.6c-0.8,0-1.8-0.4-2.9-1.3c-0.2-0.2-0.5-0.3-0.7-0.4c2.1,4.4,0.2,8.7-4.9,11.4
			c0,0-1.2,0.7-0.3-0.3c0,0,0.6-0.8,0.8-1.2c0.4-0.8,0.8-1.7,1.1-2.5c0.3-0.9,0.4-1.8,0.5-2.7c0.1-0.9,0.1-1.8,0-2.8
			c-0.1-0.9-0.3-1.8-0.6-2.7c-0.3-0.9-0.7-1.7-1.1-2.5c-0.3-0.5-0.7-1-1.1-1.5C39.5,12.3,39.2,12,39.7,12.2z"/>
	</g>
</g>
</svg>
