<?xml version="1.0" encoding="utf-8"?>
<!-- Generator: Adobe Illustrator 16.0.0, SVG Export Plug-In . SVG Version: 6.00 Build 0)  -->
<!DOCTYPE svg PUBLIC "-//W3C//DTD SVG 1.1//EN" "http://www.w3.org/Graphics/SVG/1.1/DTD/svg11.dtd">
<svg version="1.1" id="图层_1" xmlns="http://www.w3.org/2000/svg" xmlns:xlink="http://www.w3.org/1999/xlink" x="0px" y="0px"
	 width="174px" height="127px" viewBox="-86.5 215.5 174 127" enable-background="new -86.5 215.5 174 127" xml:space="preserve">
	 <style xmlns="http://www.w3.org/2000/svg" type="text/css">
	.st0{fill:#FFFFFF;}
</style>
<g class="st0">
	<g>
		<g>
			<rect x="-4.738" y="229.518" width="6.947" height="3.502"/>
			<path d="M7.434,215.624H3.961v3.473H-6.486v-3.473H-9.96v3.473h-6.946v3.474h6.946v12.168h-6.946v3.472h6.946l-6.946,6.976v8.698
				l10.42-15.673H3.961l10.422,15.673v-8.698l-6.949-6.976h6.949v-3.472H7.434v-12.168h6.949v-3.473H7.434V215.624L7.434,215.624z
				 M3.959,234.741H-6.487v-12.168H3.959V234.741z"/>
			<polygon points="0.487,250.388 0.487,246.915 7.663,246.915 5.331,243.439 0.487,243.439 0.487,239.965 -3.012,239.965 
				-3.012,243.439 -7.856,243.439 -10.19,246.915 -3.012,246.915 -3.012,250.388 -12.495,250.388 -14.831,253.887 12.303,253.887 
				9.97,250.388 			"/>
			<rect x="-4.738" y="224.322" width="6.947" height="3.472"/>
			<polygon points="73.508,215.624 70.036,215.624 70.036,238.217 56.115,245.19 56.115,253.887 73.508,238.217 			"/>
			<path d="M21.708,253.887h29.208v-13.924H30.961L21.708,253.887z M47.415,243.439v6.949H28.191l4.642-6.949H47.415z"/>
			<polygon points="75.191,239.056 73.066,240.972 87.429,253.887 87.429,245.19 			"/>
			<path d="M40.472,215.624h-3.475v3.473H26.549v19.117l-6.943,6.975v8.698l10.445-15.673h20.866v-19.116H40.472V215.624
				L40.472,215.624z M47.415,222.573v12.168H30.051v-12.168H47.415L47.415,222.573z"/>
		</g>
		<g>
			<path d="M14.595,271.915c-0.819,0-1.459-0.665-1.459-1.459v-6.438c0-0.818,0.638-1.488,1.459-1.488h12.209l-3.459-3.462h-8.75
				c-2.716,0-4.946,2.237-4.946,4.952v6.436c0,2.714,2.231,4.917,4.946,4.917h8.75l3.459-3.46L14.595,271.915L14.595,271.915z"/>
			<path d="M53.352,265.421v-1.398c0-0.821,0.665-1.49,1.485-1.49h12.209l-3.458-3.462h-8.75c-2.744,0-4.948,2.237-4.948,4.952
				v6.435c0,2.715,2.205,4.917,4.948,4.917h8.75l3.458-3.459H54.837c-0.817,0-1.485-0.665-1.485-1.459v-1.404
				c0-0.05,0.038-0.088,0.086-0.088h13.729v-3.461H53.438C53.389,265.505,53.352,265.468,53.352,265.421z"/>
			<path d="M40.635,269.018c0.015-0.031,0.046-0.055,0.08-0.055h1.4c2.717,0,4.938-2.229,4.938-4.943
				c0-2.715-2.224-4.951-4.938-4.951H29.781v16.305h3.462v-12.76c0-0.048,0.039-0.085,0.086-0.085h8.786
				c0.808,0,1.462,0.669,1.462,1.487c0,0.816-0.654,1.488-1.462,1.488h-2.881l-3.55,3.546l6.353,6.321h4.904l-6.286-6.264
				C40.628,269.089,40.622,269.052,40.635,269.018z"/>
			<path d="M-4.409,265.505h-6.342l3.458,3.461h2.886c0.82,0,1.457,0.666,1.457,1.491v1.374c0,0.047-0.037,0.086-0.085,0.086h-8.758
				c-0.821,0-1.486-0.664-1.486-1.459v-6.436c0-0.82,0.665-1.488,1.486-1.488H0.414l-3.487-3.463h-8.723
				c-2.742,0-4.949,2.236-4.949,4.951v6.436c0,2.715,2.207,4.917,4.949,4.917h12.33v-4.917
				C0.536,267.71-1.698,265.505-4.409,265.505z"/>
			<rect x="3.363" y="259.068" width="3.458" height="16.305"/>
			<path d="M83.814,270.103c0,0.034-0.021,0.067-0.055,0.079c-0.011,0.004-0.019,0.006-0.028,0.006
				c-0.024,0-0.048-0.008-0.064-0.025L73.505,259.07h-3.51v16.304h3.465v-11.006c0-0.035,0.021-0.065,0.054-0.078
				c0.012-0.005,0.021-0.006,0.031-0.006c0.024,0,0.048,0.01,0.063,0.027l10.162,11.061h3.505v-16.305h-3.46L83.814,270.103
				L83.814,270.103z"/>
		</g>
	</g>
	<g>
		<path d="M-61.52,258.198c-0.073,2.071,2.173,3.656,2.205,3.678c0.278,0.211,0.507,0.363,0.75,0.492
			c0.055,0.029,0.114,0.054,0.167,0.074l0.076,0.038l0.095,0.056c0.066,0.037,0.126,0.072,0.192,0.109
			c0.145,0.077,0.287,0.145,0.429,0.211h0.002l0.028,0.011c0.063,0.029,0.124,0.057,0.185,0.085c0.093,0.039,0.185,0.08,0.291,0.117
			c0.265,0.098,0.523,0.183,0.863,0.277c0.021,0.008,0.04,0.014,0.064,0.02l0.231,0.057c0.167,0.043,0.334,0.084,0.506,0.121
			c0.096,0.02,0.196,0.035,0.294,0.057l0.212,0.035l0.049,0.01l0.169,0.019l0.171,0.022c0.014,0,0.03,0.002,0.068,0.005l0.343,0.034
			c0.121,0.014,0.274,0.023,0.438,0.028c0.058,0.001,0.116,0.003,0.173,0.003l0.061,0.002c0.032,0.002,0.065,0.004,0.099,0.004
			h0.062c0.125,0.004,0.246,0.004,0.333,0.004c0.002,0,0.002,0,0.003,0c0.012,0,0.029,0,0.174-0.01l0.042-0.002h0.006l0.053-0.002
			c0.038,0,0.086-0.004,0.127-0.008c0.039-0.008,0.078-0.016,0.142-0.02l0.082-0.01l0.165-0.015c0.021-0.004,0.05-0.007,0.075-0.009
			c0.044-0.004,0.093-0.008,0.189-0.024l0.105-0.014l0.185-0.022c0.019,0,0.042-0.006,0.087-0.019l0.104-0.017l0.044-0.013
			c0.018-0.005,0.035-0.009,0.042-0.009h0c0.062-0.016,0.101-0.024,0.135-0.027c0.085-0.019,0.156-0.035,0.237-0.061l0.042-0.012
			h0.001l0.062-0.019c0.035-0.014,0.067-0.022,0.074-0.022c0,0,0,0,0,0.002c0.022-0.008,0.039-0.014,0.058-0.017l0.052,0.161
			l-0.007-0.176l0.039-0.011l0.006-0.001c0.02-0.003,0.028-0.004,0.063-0.016l0.169-0.049l0.022-0.016l0.025-0.008
			c0.067-0.019,0.117-0.032,0.163-0.051l0.04-0.012l0.003-0.001c0.062-0.022,0.106-0.038,0.156-0.062
			c0.018-0.005,0.029-0.01,0.068-0.026c0.042-0.015,0.077-0.027,0.108-0.042l0.05-0.02c0.04-0.019,0.082-0.038,0.131-0.059
			l0.038-0.019l0.011-0.005l0.106-0.051l0.044-0.018c0.038-0.027,0.072-0.051,0.106-0.068c0.027-0.023,0.06-0.053,0.067-0.053
			c0.025-0.022,0.046-0.043,0.072-0.057c0.053-0.04,0.109-0.088,0.158-0.125c0.037-0.029,0.07-0.053,0.088-0.066l0.049-0.036
			c0.02-0.018,0.038-0.028,0.039-0.028c0,0,0,0.001-0.001,0.002c0.187-0.132,0.329-0.251,0.445-0.381
			c0.057-0.047,0.114-0.108,0.149-0.148c0.075-0.083,0.305-0.336,0.391-0.47c0.095-0.144,0.208-0.341,0.249-0.468l0.062-0.162
			c0.034-0.088,0.065-0.17,0.097-0.27c0.047-0.108,0.072-0.226,0.097-0.381l0.018-0.089c0.006-0.086,0.012-0.171,0.012-0.267
			l-0.001-0.078c0-0.018,0-0.037-0.003-0.063c-0.004-0.052-0.013-0.089-0.019-0.135l-0.017-0.077
			c-0.015-0.064-0.028-0.131-0.036-0.164l-0.034-0.07c-0.021-0.051-0.041-0.096-0.083-0.16c-0.04-0.076-0.09-0.149-0.153-0.232
			c-0.059-0.093-0.129-0.171-0.231-0.257c-0.09-0.087-0.208-0.181-0.354-0.282l-0.083-0.047l-0.058-0.035
			c-0.033-0.022-0.079-0.047-0.141-0.074c-0.018-0.01-0.046-0.02-0.072-0.036c-0.031-0.019-0.065-0.038-0.108-0.061
			c-0.092-0.052-0.193-0.102-0.3-0.156l-0.2-0.108c-0.32-0.165-0.72-0.333-1.181-0.526l-0.142-0.06
			c-0.54-0.233-1.181-0.464-1.738-0.658c-0.613-0.223-1.304-0.48-2.069-0.715c-0.084-0.019-0.168-0.044-0.244-0.07
			c-0.167-0.051-0.333-0.104-0.471-0.152l-0.063-0.021c-0.047-0.015-0.096-0.028-0.137-0.046c-0.129-0.041-0.264-0.08-0.415-0.125
			c-0.021-0.009-0.04-0.013-0.092-0.025c-0.026-0.009-0.054-0.019-0.086-0.037l-0.09-0.027l-0.125-0.04l-0.137-0.042l-0.184-0.059
			c-0.125-0.044-0.25-0.088-0.346-0.133c-0.032-0.008-0.062-0.018-0.07-0.023c-0.064-0.018-0.121-0.037-0.179-0.064
			c-0.008-0.001-0.016-0.003-0.025-0.006l-0.002,0.004l-0.018-0.012h-0.142v-0.059c-0.112-0.045-0.213-0.086-0.316-0.135
			c-0.027-0.02-0.073-0.041-0.117-0.06l-0.04-0.017l-0.005-0.003l-0.096-0.05l-0.051-0.031c-0.024-0.004-0.051-0.017-0.072-0.028
			c-0.008-0.003-0.014-0.007-0.021-0.011l-0.017,0.006l-0.048-0.033l-0.03-0.019l-0.024,0.003l-0.033-0.029
			c-0.017-0.012-0.025-0.019-0.052-0.031l-0.05-0.023l-0.015-0.012l-0.038-0.004l-0.05-0.039c-0.027-0.015-0.044-0.024-0.042-0.024
			h0.001l-0.114-0.071c-0.005,0-0.014-0.002-0.02-0.006C-60.433,255.524-61.469,256.829-61.52,258.198z"/>
		<path d="M-49.252,234.298c0-3.825-2.376-6.927-5.29-6.927c-2.926,0-5.292,3.104-5.292,6.927c0,3.823,2.365,6.956,5.292,6.956
			C-51.629,241.254-49.252,238.12-49.252,234.298z"/>
		<path d="M-84.5,215.552v59.979h60.003v-59.979H-84.5L-84.5,215.552z M-70.84,232.903c-1.2,0-2.283-0.585-3.136-1.687
			c-0.313-0.443-0.457-0.732-0.328-0.994c0.071-0.162,0.222-0.265,0.428-0.271c0.18,0,0.417,0.094,0.703,0.279
			c0.361,0.246,0.808,0.373,1.322,0.373l0.066-0.001c0.779-0.019,1.586-0.309,2.398-0.868c1.172-0.869,1.759-1.066,2.288-1.093
			h0.075c0.305,0,0.566,0.017,0.821,0.054c-0.497-0.53-1.006-0.756-1.676-0.756l-0.069,0.003c-0.484,0.011-1.236,0.3-2.158,0.835
			c-1.104,0.588-2.057,0.908-2.818,0.921l-0.076,0.001c-1.606,0-2.605-1.254-2.938-3.795c-0.042-0.536-0.037-1.209,0.208-1.463
			c0.1-0.111,0.232-0.174,0.369-0.176h0.009h0.001c0.353,0,0.61,0.312,0.969,1.168c0.465,1.144,1.188,1.39,1.337,1.39
			c0.266-0.004,0.829-0.144,2.011-0.791c0.991-0.488,1.876-0.743,2.623-0.765h0.064c1.128,0,2.204,0.462,3.088,1.34
			c0.072,0.066,0.127,0.119,0.716,0.895c0.757-0.613,1.615-1.153,2.551-1.611c0.096-0.054,0.166-0.077,0.225-0.077l0.136,0.018
			l0.044,0.098c0.018,0.038,0.074,0.154-0.116,0.405c-0.327,0.416-0.653,0.883-1.003,1.468c-0.45,0.793-0.817,1.596-1.093,2.44
			c-0.271,0.888-0.458,1.775-0.551,2.638c-0.1,0.854-0.109,1.76-0.025,2.662c0.087,0.891,0.264,1.756,0.521,2.629
			c0.25,0.843,0.602,1.677,1.044,2.484c0.279,0.469,0.534,0.829,0.77,1.153c0.288,0.376,0.369,0.57,0.304,0.719
			c-0.019,0.04-0.075,0.13-0.213,0.13c-0.2,0-0.554-0.204-0.65-0.261c-4.831-2.568-6.703-6.758-4.931-11.003
			c-0.099,0.054-0.194,0.118-0.29,0.196c-1.146,0.864-2.118,1.294-2.94,1.315h-0.083v-0.003H-70.84z M-43.545,264.008
			c-0.331,0.303-0.406,0.333-0.485,0.333l-0.118-0.004l-0.048-0.096c-0.043-0.09-0.052-0.165,0.276-0.568
			c0.253-0.397,0.42-0.716,0.638-1.213c0.085-0.146,0.23-0.565,0.345-1.018c0.097-0.492,0.151-0.918,0.162-1.345
			c0.003-0.055,0.004-0.124,0.004-0.186v-0.128v-0.125c-0.004-0.049-0.007-0.098-0.011-0.146c-0.002-0.043-0.003-0.084-0.007-0.133
			c-0.013-0.166-0.029-0.334-0.061-0.512c-0.044-0.325-0.119-0.63-0.243-0.982c-0.102-0.285-0.23-0.572-0.417-0.951
			c-0.166-0.301-0.359-0.59-0.584-0.861c-0.177-0.221-0.414-0.508-0.707-0.775c-0.225-0.213-0.492-0.454-0.808-0.679l-0.122-0.082
			l-0.146-0.099c-0.091-0.059-0.156-0.102-0.227-0.139l-0.136-0.076c-0.12-0.066-0.244-0.136-0.374-0.191
			c-0.247-0.128-0.518-0.269-0.797-0.404c-0.66-0.3-1.284-0.565-1.885-0.817c-0.267-0.097-0.55-0.201-0.841-0.308
			c-0.479-0.178-0.986-0.362-1.516-0.547l-0.705-0.232c-0.645-0.211-1.29-0.432-2.034-0.658c-0.019-0.006-0.036-0.01-0.075-0.02
			c-0.052-0.008-0.096-0.019-0.135-0.039c-0.072-0.015-0.136-0.033-0.229-0.061c-0.092-0.029-0.202-0.067-0.297-0.12l-0.088-0.034
			c-0.056-0.017-0.115-0.041-0.169-0.064c-0.139-0.053-0.248-0.097-0.348-0.141c-0.061-0.023-0.109-0.051-0.138-0.065l-0.021-0.014
			l-0.018-0.017l-0.053-0.023l-0.01-0.005l-0.062-0.037l-0.004-0.002c-0.023-0.006-0.062-0.022-0.099-0.058l0.116-0.13l-0.167,0.108
			c-0.044-0.023-0.086-0.056-0.126-0.078l-0.036-0.023l-0.042-0.02c-0.103-0.051-0.204-0.098-0.318-0.179
			c-0.058-0.049-0.127-0.099-0.203-0.161c-0.077-0.043-0.159-0.094-0.246-0.163l-0.014-0.009l-0.02-0.018
			c-0.067-0.047-0.119-0.097-0.165-0.14l-0.04-0.038c-0.048-0.056-0.087-0.101-0.093-0.111c-0.026-0.028-0.063-0.073-0.074-0.097
			c-0.019-0.03-0.054-0.095-0.063-0.132c-0.025-0.043-0.06-0.11-0.076-0.146c-0.014-0.026-0.042-0.086-0.063-0.147
			c-0.012-0.033-0.023-0.069-0.039-0.115l-0.03-0.073l-0.027-0.088c-0.018-0.052-0.034-0.099-0.034-0.106
			c-0.008-0.024-0.039-0.101-0.063-0.34c-0.02-0.124-0.02-0.361,0.001-0.479c0.011-0.087,0.045-0.357,0.088-0.497
			c0.024-0.1,0.118-0.415,0.175-0.527l0.051-0.135c0.053-0.146,0.126-0.34,0.193-0.48c0.016-0.034,0.061-0.118,0.116-0.205
			l0.083-0.14c0.014-0.02,0.027-0.039,0.042-0.039c-0.016,0-0.033,0-0.051,0.005c-0.035,0.025-0.06,0.053-0.087,0.07
			c-0.028,0.026-0.053,0.051-0.082,0.07l-0.192,0.16c-0.045,0.053-0.086,0.086-0.125,0.118l-0.025,0.019
			c-0.045,0.043-0.086,0.088-0.122,0.126l-0.052,0.057l-0.061,0.066c-0.019,0.022-0.036,0.043-0.04,0.043l-0.071,0.102l-0.031,0.043
			l-0.054,0.075l-0.064,0.084c-0.041,0.058-0.086,0.122-0.125,0.167c-0.042,0.047-0.078,0.108-0.114,0.172
			c-0.069,0.107-0.129,0.217-0.196,0.346l-0.02,0.048l-0.013,0.015l-0.001-0.001l-0.001,0.004l-0.006,0.011
			c-0.006,0.012-0.012,0.02-0.019,0.03l-0.013,0.039l-0.012,0.013l-0.008,0.017l-0.014,0.022c-0.002,0.008-0.008,0.018-0.014,0.033
			l-0.003,0.01l-0.011,0.019l-0.021,0.054l-0.008,0.003l0,0.002l-0.002,0.002c-0.001,0.006-0.003,0.014-0.005,0.019l-0.009-0.003
			l-0.005,0.006l-0.009-0.006l-0.015,0.008c0.005-0.003,0.009-0.006,0.015-0.009l-0.011-0.011l-0.129-0.044l0.147,0.116
			l-0.011,0.032c-0.001,0.008-0.004,0.018-0.005,0.026l-0.001,0.006l-0.004,0.01v0.011l-0.002,0.006v0.077l-0.026,0.014
			l-0.009,0.057l-0.002,0.002l-0.009,0.041l-0.012,0.061l-0.007,0.04l-0.003,0.014l-0.002,0.039l0,0.01
			c-0.003,0.019-0.008,0.051-0.014,0.075l-0.172-0.003l0.165,0.051l-0.005,0.087l-0.003,0.018l0,0.058v0.06v0.049l0,0.051
			l0.001,0.046v0.005l0.003,0.076v0.005l0.006,0.037v0.018l0.009,0.051v0.009l0.011,0.045v0.022l0.001,0.038v0.017l0.002,0.016
			l0.014,0.009v0.093l0.008,0.027l0.002,0.037l0.01,0.035l0.002,0.014l0.012,0.049l0.002,0.013l0.005,0.04l0.006,0.016l0.011,0.015
			v0.033l0.013,0.04l0.002,0.012l0.001,0.004l0.014,0.01v0.053c0.011,0.02,0.018,0.042,0.038,0.1
			c0.016,0.036,0.032,0.074,0.058,0.124l0.053,0.083c0.013,0.017,0.033,0.048,0.038,0.063c0.021,0.032,0.046,0.071,0.078,0.117
			l0.032,0.052l0.002,0.005l0.032,0.043v0.009l0.004,0.008c0.029,0.049,0.057,0.094,0.106,0.165
			c0.011,0.018,0.024,0.037,0.038,0.055l-0.124,0.124l0.164-0.073l0.033,0.043l0.01,0.013c0.01,0.018,0.021,0.034,0.058,0.076
			l0.027,0.041l0.008,0.012l0.055,0.066l0.055,0.068c0.035,0.048,0.059,0.07,0.084,0.088c0.015,0.017,0.028,0.032,0.042,0.047
			c0.016,0.019,0.031,0.033,0.044,0.043l0.039,0.037c0.022,0.021,0.052,0.047,0.076,0.066l-0.111,0.13l0.153-0.095l0.052,0.045
			c0.046,0.037,0.092,0.075,0.141,0.111l0.092,0.067c0.018,0.013,0.036,0.022,0.055,0.036c0.029,0.02,0.059,0.04,0.094,0.064
			c0.021,0.016,0.047,0.033,0.09,0.057c0.053,0.028,0.098,0.057,0.149,0.081c0.07,0.036,0.134,0.069,0.214,0.104l0.054,0.031
			c0.011,0.007,0.021,0.014,0.036,0.021c0.022,0.007,0.044,0.018,0.061,0.03l0.051,0.027l0,0l0.029,0.017l0.01,0.007
			c0.026,0.015,0.05,0.029,0.067,0.037l0.031-0.005l0.036,0.043l0.019,0.019l0.087,0.035l0.135,0.057
			c0.067,0.031,0.152,0.064,0.246,0.104l0.083,0.034l0.14,0.033v0.021c0.39,0.159,0.617,0.229,0.804,0.285l0.099,0.03
			c1.657,0.516,2.79,0.887,3.765,1.244l0.323,0.117l0.841,0.279c1.444,0.573,2.539,1.092,3.318,1.589
			c0.27,0.182,0.481,0.34,0.66,0.494c0.208,0.171,0.389,0.353,0.555,0.519c0.096,0.107,0.186,0.215,0.271,0.328
			c0.104,0.144,0.197,0.296,0.28,0.447c0.027,0.046,0.056,0.098,0.086,0.155l0.033,0.063l0.042,0.078
			c0.014,0.03,0.03,0.064,0.055,0.113l0.052,0.107c0.024,0.051,0.045,0.095,0.062,0.14l0.027,0.058
			c0.014,0.023,0.026,0.045,0.053,0.1c0.006,0.022,0.019,0.064,0.04,0.116c0.016,0.044,0.032,0.098,0.039,0.13
			c0.018,0.057,0.033,0.115,0.048,0.168c0.01,0.043,0.018,0.081,0.039,0.148c0.004,0.051,0.012,0.084,0.022,0.126
			c0.018,0.071,0.026,0.129,0.029,0.181c0.018,0.084,0.027,0.187,0.037,0.296c0.005,0.052,0.01,0.106,0.012,0.163l0.008,0.1v0.164
			v0.064v0.065c0,0.028-0.001,0.055-0.003,0.086l-0.003,0.065c-0.005,0.094-0.011,0.199-0.018,0.291
			c-0.005,0.068-0.016,0.135-0.022,0.197l-0.011,0.08c-0.005,0.037-0.014,0.076-0.02,0.109l-0.013,0.053l-0.013,0.063
			c-0.005,0.033-0.013,0.069-0.018,0.088c-0.019,0.091-0.04,0.168-0.058,0.248l-0.021,0.088c-0.016,0.055-0.033,0.104-0.049,0.15
			l-0.027,0.084l-0.014,0.053l-0.004,0.012c-0.008,0.019-0.018,0.037-0.021,0.037c-0.001,0-0.002,0-0.002-0.001
			c-0.016,0.058-0.032,0.103-0.052,0.15c-0.016,0.033-0.028,0.067-0.042,0.097c-0.009,0.024-0.018,0.049-0.021,0.056l-0.03,0.079
			l-0.001,0.005v0.112h-0.006v0.039h-0.054c-0.014,0.038-0.024,0.07-0.034,0.074c-0.01,0.021-0.017,0.041-0.025,0.058
			c-0.013,0.022-0.021,0.044-0.038,0.071c-0.022,0.039-0.04,0.08-0.056,0.119l-0.037,0.086l-0.023,0.051
			c-0.021,0.045-0.042,0.088-0.051,0.096c-0.02,0.055-0.047,0.105-0.082,0.174l-0.053,0.091l-0.019,0.03l-0.035,0.061l-0.001,0.001
			c-0.001,0.001-0.001,0.001-0.001,0.001l-0.013,0.036l-0.004,0.079l-0.067,0.012l-0.022,0.035l-0.003,0.006
			c-0.02,0.02-0.034,0.043-0.061,0.079l-0.125,0.157c-0.04,0.05-0.081,0.098-0.113,0.138c-0.026,0.034-0.05,0.066-0.07,0.095
			l-0.019,0.033l-0.007,0.007l-0.098,0.116l-0.054,0.063l-0.001,0.105h-0.089l-0.02,0.022l-0.024,0.019
			c-0.025,0.023-0.047,0.045-0.068,0.063l-0.036,0.035l-0.043,0.042l-0.055,0.054l-0.066,0.054l-0.038,0.04l-0.055,0.055
			c-0.053,0.045-0.104,0.09-0.148,0.131c-0.101,0.105-0.211,0.202-0.325,0.303l-0.008,0.005l-0.016,0.032l-0.053,0.025
			c-0.013,0.01-0.024,0.018-0.031,0.018c-0.001,0-0.002-0.002-0.002-0.004c-0.029,0.034-0.061,0.055-0.073,0.057l-0.042,0.031
			l-0.004,0.002c-0.026,0.023-0.06,0.047-0.075,0.055c-0.039,0.031-0.083,0.063-0.133,0.098l-0.051,0.033l-0.037,0.027l-0.007,0.007
			l-0.03,0.021l0.001,0.025l-0.012,0.006l-0.013,0.04h-0.079l-0.019,0.019l-0.017,0.012l-0.069,0.048
			c-0.012,0.007-0.023,0.017-0.039,0.022c-0.018,0.018-0.041,0.037-0.057,0.037l-0.02,0.01c-0.017,0.01-0.031,0.018-0.042,0.023
			c-0.014,0.011-0.032,0.023-0.054,0.036c-0.025,0.019-0.052,0.03-0.088,0.048l-0.037,0.021l-0.002,0.001
			c-0.02,0.012-0.039,0.021-0.043,0.024c-0.044,0.023-0.078,0.041-0.09,0.043c-0.019,0.014-0.041,0.021-0.071,0.037
			c-0.018,0.015-0.042,0.027-0.077,0.041l-0.028,0.029h-0.029l-0.041,0.017l-0.008,0.007l-0.01,0.013l-0.024,0.013
			c-0.009,0.004-0.019,0.008-0.034,0.016l-0.042,0.023l-0.019,0.002c-0.001,0-0.002,0.001-0.003,0.001l-0.02,0.021h-0.029
			c-0.007,0.003-0.016,0.006-0.021,0.009c-0.048,0.024-0.131,0.062-0.238,0.101l-0.045,0.018l-0.013,0.014l-0.028,0.005l-0.054,0.02
			l-0.014,0.004c-0.041,0.021-0.076,0.026-0.13,0.046c-0.02,0.008-0.033,0.014-0.038,0.014c-0.033,0.025-0.067,0.037-0.088,0.043
			l-0.007,0.004l-0.021,0.008l-0.028,0.013l-0.014,0.003l-0.038,0.014l-0.001,0.002l-0.041,0.014l-0.077,0.029l-0.141,0.047
			c-0.068,0.016-0.141,0.033-0.254,0.068c-0.017,0.01-0.038,0.014-0.058,0.016l-0.016,0.004l-0.012,0.002l-0.043,0.012l-0.004,0.002
			l-0.054,0.018l-0.076,0.02l-0.132,0.028l-0.067,0.016l-0.045,0.012l-0.011,0.001c-0.051,0.008-0.108,0.018-0.204,0.039
			l-0.05,0.006c-0.021,0.008-0.054,0.017-0.063,0.017c-0.001,0-0.002,0-0.002-0.001l-0.055,0.012h-0.007
			c-0.007,0.002-0.013,0.002-0.02,0.003l-0.01,0.003h-0.01l-0.062,0.016l-0.064,0.014l-0.054,0.013l-0.043,0.011
			c-0.026,0.005-0.052,0.01-0.073,0.014l-0.024,0.01h-0.019l-0.01,0.002h-0.005l-0.008,0.002h-0.013l-0.003,0.001l-0.009,0.003
			l-0.014,0.006l-0.045,0.006v-0.002l-0.012,0.006h-0.033l-0.016,0.002l-0.076,0.01l-0.008,0.002
			c-0.022,0.004-0.048,0.009-0.062,0.01c-0.06,0.011-0.115,0.013-0.162,0.015c-0.02,0.002-0.038,0.005-0.054,0.008
			c-0.017,0.001-0.028,0.005-0.042,0.007c-0.03,0.008-0.059,0.01-0.084,0.011c-0.027,0.007-0.051,0.01-0.068,0.01
			c-0.002,0-0.003,0-0.004,0c-0.015,0.004-0.033,0.006-0.079,0.009l-0.054,0.005c-0.02,0.003-0.042,0.006-0.046,0.006
			c-0.002,0-0.002,0,0.003-0.001c-0.017,0.005-0.04,0.011-0.064,0.014c-0.018,0.002-0.033,0.006-0.044,0.006
			c-0.004,0-0.008,0-0.01-0.002c-0.028,0.008-0.055,0.012-0.076,0.012c-0.003,0-0.006,0-0.01,0c-0.004,0-0.012,0.002-0.019,0.002
			c-0.01,0-0.018-0.002-0.026-0.006l-0.035,0.012l-0.025,0.002l-0.045,0.005l-0.005,0.001l-0.057,0.004l-0.048,0.002h-0.003
			l-0.046,0.004c-0.024,0.002-0.04,0.002-0.055,0.002l0,0l-0.048,0.009l-0.037,0.001v-0.001h-0.034
			c-0.027,0.005-0.054,0.006-0.071,0.006c-0.001,0-0.002,0-0.004,0c-0.047,0.002-0.082,0.002-0.133,0.002h-0.045l-0.02,0.003h-0.024
			h-0.051h-0.05l-0.054-0.001l-0.045-0.002h-0.19l-0.173-0.002c-0.039,0-0.083-0.001-0.112-0.003
			c-0.096-0.002-0.197-0.006-0.288-0.014l-0.281-0.016l-0.226-0.012c-0.166-0.019-0.333-0.039-0.49-0.061l-0.139-0.016
			c-0.101-0.011-0.209-0.023-0.324-0.04c-0.323-0.054-0.614-0.101-0.805-0.136c-0.309-0.041-0.886-0.196-1.323-0.334l-0.229-0.08
			c-0.118-0.039-0.236-0.078-0.344-0.117c-0.42-0.158-0.802-0.316-1.125-0.477c-0.195-0.092-0.381-0.189-0.465-0.234
			c-0.611-0.332-0.927-0.531-1.237-0.77c-0.067-0.039-1.662-0.967-2.642-2.514c-1.057-1.686-1.338-3.283-0.843-4.711
			c0.55-1.604,1.917-2.705,2.965-3.347c-2.506,0.751-4.058,1.917-4.569,3.457c-0.886,2.6,1.402,5.588,2.124,6.435
			c0.087,0.082,0.219,0.201,0.161,0.346l-0.075,0.124h-0.118c-0.08,0-0.183-0.04-0.233-0.06c-1.487-0.746-6.195-3.477-5.149-7.606
			c1.157-3.697,6.984-4.171,8.525-4.231c-0.057-0.071-0.105-0.141-0.149-0.207c-0.168-0.242-0.319-0.465-0.454-0.682
			c-0.113-0.188-0.206-0.367-0.285-0.553c-0.017-0.033-0.03-0.069-0.043-0.104c-0.02-0.033-0.035-0.07-0.048-0.108l-0.04-0.121
			c-0.017-0.038-0.029-0.081-0.039-0.119l-0.023-0.085l-0.015-0.053c-0.017-0.038-0.026-0.074-0.048-0.15l-0.01-0.042l0-0.006
			c-0.01-0.031-0.017-0.063-0.017-0.073c-0.025-0.083-0.045-0.154-0.065-0.265l-0.017-0.082v-0.001l-0.026-0.098l-0.011-0.053
			l-0.001-0.006c-0.006-0.027-0.009-0.057-0.013-0.088c-0.006-0.021-0.01-0.044-0.017-0.105c-0.001-0.016-0.003-0.028-0.004-0.042
			c-0.007-0.025-0.007-0.043-0.005-0.045c-0.006-0.022-0.008-0.042-0.013-0.084l-0.007-0.043v-0.003
			c-0.005-0.026-0.01-0.055-0.012-0.082c-0.012-0.12-0.021-0.252-0.025-0.393c-0.004-0.099-0.004-0.198-0.004-0.303
			c0-0.056,0.001-0.084,0.008-0.132c0.013-0.082,0.031-0.197,0.085-0.466l0.001-0.026l0.006-0.02
			c0.002-0.009,0.009-0.03,0.015-0.065c0.06-0.248,0.124-0.438,0.184-0.604l0.015-0.032l0.004-0.007
			c0.019-0.07,0.046-0.138,0.073-0.202l0.026-0.066c0.037-0.09,0.077-0.161,0.111-0.223l0.038-0.063l0.01-0.02v-0.001l0.001-0.003
			l0.003-0.004v-0.001l0.009-0.013l0.071-0.113l0.085-0.133c0.018-0.032,0.039-0.055,0.068-0.094l0.075-0.108
			c0.033-0.047,0.063-0.089,0.103-0.152c0.032-0.042,0.062-0.072,0.09-0.1c0.019-0.017,0.034-0.036,0.047-0.052l0.162-0.183
			l0.105-0.138l0.02-0.031l0.03-0.015c0.017-0.01,0.034-0.034,0.053-0.048c0.016-0.017,0.03-0.028,0.043-0.038
			c0.033-0.037,0.056-0.058,0.089-0.092c0.095-0.089,0.162-0.15,0.224-0.202l0.053-0.045c0.106-0.078,0.201-0.158,0.291-0.234
			l0.01-0.015l0.021-0.019c0.079-0.058,0.17-0.122,0.236-0.166l0.056-0.037l0.053-0.038l0.146-0.094
			c0.1-0.062,0.216-0.136,0.338-0.222l0.027-0.017l0.018-0.008c0.026-0.009,0.066-0.022,0.233-0.1
			c0.042-0.02,0.09-0.046,0.287-0.136c0.026-0.013,0.05-0.026,0.107-0.055l0.196-0.1c0.046-0.023,0.104-0.052,0.33-0.154
			c0.017-0.005,0.031-0.011,0.054-0.021c-0.241-0.118-0.481-0.255-0.715-0.419c-0.56-0.358-1.059-0.762-1.513-1.237
			c-0.458-0.47-0.854-0.947-1.21-1.518c-0.406-0.659-0.743-1.39-1.03-2.178c-0.342-0.998-0.556-2.046-0.632-3.101
			c-0.075-1.074-0.004-2.128,0.213-3.183c0.209-1.07,0.56-2.083,1.022-3.007c0.224-0.42,0.5-0.866,0.815-1.287
			c0.324-0.461,0.706-0.869,1.008-1.177c0.445-0.411,0.822-0.717,1.218-0.979c0.396-0.269,0.855-0.514,1.34-0.731
			c0.517-0.172,1.008-0.314,1.507-0.408c0.423-0.074,0.843-0.111,1.277-0.111c0.101,0,0.201,0.001,0.299,0.005
			c0.491,0.018,0.987,0.093,1.521,0.231c0.498,0.133,1.002,0.296,1.453,0.526c0.462,0.228,0.895,0.497,1.327,0.827
			c0.503,0.39,0.961,0.868,1.464,1.465c0.433,0.548,0.811,1.139,1.127,1.731c0.438,0.857,0.764,1.796,0.973,2.784
			c0.205,0.968,0.292,1.936,0.256,2.931c-0.033,0.968-0.192,1.958-0.469,2.916c-0.266,0.912-0.664,1.809-1.193,2.67
			c-0.25,0.408-0.635,0.937-0.914,1.231c-0.254,0.29-0.48,0.529-0.707,0.746c-0.02,0.021-0.073,0.064-0.637,0.499
			c-0.082,0.06-0.219,0.152-0.32,0.22l-0.108,0.073c-0.264,0.161-0.583,0.351-0.625,0.374c-0.306,0.159-0.688,0.348-0.87,0.428
			c-0.284,0.131-0.714,0.332-0.771,0.356c-0.025,0.01-0.052,0.021-0.106,0.051c-0.03,0.015-0.057,0.028-0.112,0.054
			c-0.036,0.022-0.08,0.042-0.082,0.043c-0.058,0.028-0.22,0.117-0.266,0.15c-0.017,0.009-0.031,0.017-0.039,0.021
			c-0.047,0.037-0.089,0.067-0.13,0.094c-0.028,0.02-0.053,0.039-0.101,0.08c-0.013,0.01-0.027,0.018-0.037,0.03l-0.066,0.053
			l-0.008,0.008c-0.059,0.042-0.133,0.098-0.173,0.131c-0.002,0.002-0.253,0.247-0.347,0.329c-0.013,0.018-0.03,0.038-0.05,0.065
			c-0.054,0.066-0.125,0.157-0.159,0.211c-0.091,0.088-0.162,0.188-0.245,0.348l-0.028,0.059l-0.001,0.002
			c-0.027,0.041-0.042,0.074-0.058,0.115c-0.049,0.107-0.054,0.16-0.063,0.262c-0.042,0.202-0.02,0.355,0.003,0.48
			c0.007,0.154,0.032,0.219,0.061,0.278c0.096,0.217,0.178,0.326,0.233,0.382l0.042,0.046l0.056,0.062l0.04,0.035
			c0.014,0.012,0.027,0.027,0.065,0.053l-0.069,0.161l0.112-0.132l0.035,0.025l0.009,0.007l0.037,0.02l0.01,0.008
			c0.016,0.014,0.033,0.022,0.088,0.052c0.053,0.041,0.09,0.064,0.084,0.065l0.062,0.027l0.011,0.009l0.063,0.029
			c0.03,0.015,0.055,0.025,0.088,0.037c0.022,0.007,0.045,0.014,0.068,0.024l0.053,0.01l0.029,0.018l0.058,0.021
			c0.031,0.005,0.06,0.015,0.09,0.025c0.012,0.006,0.024,0.011,0.051,0.016c0.083,0.027,0.152,0.054,0.253,0.089
			c0.054,0.018,0.111,0.031,0.179,0.045c0.132,0.03,0.27,0.073,0.413,0.118c0.139,0.052,0.285,0.097,0.435,0.144l0.055,0.019
			c0.433,0.143,0.824,0.275,1.226,0.413c0.391,0.108,9.545,2.682,10.729,7.838C-39.588,259.066-40.746,261.525-43.545,264.008z
			 M-33.136,225.909c-0.333,2.527-1.331,3.786-2.967,3.786l-0.077-0.001c-0.73-0.014-1.68-0.333-2.807-0.921
			c-0.928-0.534-1.676-0.822-2.14-0.835l-0.071-0.002c-0.667,0-1.178,0.227-1.674,0.758c0.255-0.038,0.521-0.054,0.828-0.054h0.085
			c0.514,0.028,1.084,0.223,2.237,1.086c0.834,0.563,1.655,0.855,2.437,0.873l0.067,0.002c0.506,0,0.927-0.125,1.289-0.374
			c0.198-0.125,0.477-0.277,0.724-0.277h0.001c0.177,0.008,0.335,0.104,0.419,0.267c0.14,0.27-0.011,0.557-0.342,1.003
			c-0.847,1.1-1.903,1.685-3.108,1.685l-0.089-0.001c-0.846-0.021-1.817-0.451-2.943-1.32c-0.089-0.074-0.185-0.137-0.281-0.193
			c1.749,4.256-0.104,8.457-4.951,11.016c-0.098,0.061-0.439,0.263-0.635,0.263c-0.144,0-0.204-0.089-0.224-0.126
			c-0.072-0.147,0.016-0.346,0.31-0.721c0.006-0.011,0.542-0.77,0.778-1.161c0.447-0.826,0.798-1.665,1.043-2.49
			c0.241-0.878,0.405-1.742,0.489-2.629c0.087-0.897,0.079-1.803-0.018-2.663c-0.091-0.851-0.265-1.738-0.526-2.637
			c-0.267-0.84-0.635-1.64-1.09-2.437c-0.351-0.59-0.676-1.058-1.023-1.475c-0.19-0.235-0.131-0.351-0.116-0.388
			c0.036-0.077,0.109-0.124,0.198-0.124c0.063,0,0.144,0.022,0.255,0.08c0.934,0.459,1.78,0.998,2.5,1.6
			c0.566-0.756,0.638-0.825,0.708-0.893c0.916-0.879,1.995-1.342,3.099-1.342h0.063c0.739,0.019,1.633,0.277,2.659,0.77
			c1.172,0.642,1.706,0.782,1.97,0.786c0.008,0,0.804-0.082,1.358-1.389c0.363-0.854,0.619-1.17,0.978-1.17h0.006h0.002
			c0.133,0.002,0.269,0.066,0.37,0.176C-33.152,224.644-33.081,225.116-33.136,225.909z"/>
	</g>
</g>
<g class="st0">
	<path d="M-61.52,324.177c-0.073,2.072,2.173,3.656,2.205,3.678c0.278,0.211,0.507,0.363,0.75,0.492
		c0.055,0.029,0.114,0.055,0.167,0.074l0.076,0.039l0.095,0.055c0.066,0.037,0.126,0.072,0.192,0.109
		c0.145,0.078,0.287,0.145,0.429,0.211h0.002l0.028,0.012c0.063,0.029,0.124,0.057,0.185,0.084c0.093,0.039,0.185,0.08,0.291,0.117
		c0.265,0.098,0.523,0.184,0.863,0.277c0.021,0.008,0.04,0.014,0.064,0.02l0.231,0.057c0.167,0.043,0.334,0.084,0.506,0.121
		c0.096,0.02,0.196,0.035,0.294,0.057l0.212,0.035l0.049,0.01l0.169,0.02l0.171,0.021c0.014,0,0.03,0.002,0.068,0.006l0.343,0.033
		c0.121,0.014,0.274,0.023,0.438,0.029c0.058,0,0.116,0.002,0.173,0.002l0.061,0.002c0.032,0.002,0.065,0.004,0.099,0.004h0.062
		c0.125,0.004,0.246,0.004,0.333,0.004c0.002,0,0.002,0,0.003,0c0.012,0,0.029,0,0.174-0.01l0.042-0.002h0.006l0.053-0.002
		c0.038,0,0.086-0.004,0.127-0.008c0.039-0.008,0.078-0.016,0.142-0.02l0.082-0.01l0.165-0.014c0.021-0.004,0.05-0.008,0.075-0.01
		c0.044-0.004,0.093-0.008,0.189-0.023l0.105-0.014l0.185-0.023c0.019,0,0.042-0.006,0.087-0.018l0.104-0.018l0.044-0.012
		c0.018-0.006,0.035-0.01,0.042-0.01h0c0.062-0.016,0.101-0.023,0.135-0.027c0.085-0.018,0.156-0.035,0.237-0.061l0.042-0.012h0.001
		l0.062-0.018c0.035-0.014,0.067-0.023,0.074-0.023c0,0,0,0,0,0.002c0.022-0.008,0.039-0.014,0.058-0.016l0.052,0.16l-0.007-0.176
		l0.039-0.01l0.006-0.002c0.02-0.002,0.028-0.004,0.063-0.016l0.169-0.049l0.022-0.016l0.025-0.008
		c0.067-0.018,0.117-0.031,0.163-0.051l0.04-0.012h0.003c0.062-0.023,0.106-0.039,0.156-0.063c0.018-0.004,0.029-0.01,0.068-0.025
		c0.042-0.016,0.077-0.027,0.108-0.043l0.05-0.02c0.04-0.018,0.082-0.037,0.131-0.059l0.038-0.018l0.011-0.006l0.106-0.051
		l0.044-0.018c0.038-0.027,0.072-0.051,0.106-0.068c0.027-0.023,0.06-0.053,0.067-0.053c0.025-0.021,0.046-0.043,0.072-0.057
		c0.053-0.039,0.109-0.088,0.158-0.125c0.037-0.029,0.07-0.053,0.088-0.066l0.049-0.035c0.02-0.018,0.038-0.029,0.039-0.029
		c0,0,0,0.002-0.001,0.002c0.187-0.131,0.329-0.25,0.445-0.381c0.057-0.047,0.114-0.107,0.149-0.148
		c0.075-0.082,0.305-0.336,0.391-0.469c0.095-0.145,0.208-0.342,0.249-0.469l0.062-0.162c0.034-0.088,0.065-0.17,0.097-0.27
		c0.047-0.107,0.072-0.225,0.097-0.381l0.018-0.088c0.006-0.086,0.012-0.172,0.012-0.268l-0.001-0.078c0-0.018,0-0.037-0.003-0.063
		c-0.004-0.053-0.013-0.09-0.019-0.135l-0.017-0.078c-0.015-0.064-0.028-0.131-0.036-0.164l-0.034-0.07
		c-0.021-0.051-0.041-0.096-0.083-0.16c-0.04-0.076-0.09-0.148-0.153-0.232c-0.059-0.092-0.129-0.17-0.231-0.256
		c-0.09-0.088-0.208-0.182-0.354-0.283l-0.083-0.047l-0.058-0.035c-0.033-0.021-0.079-0.047-0.141-0.074
		c-0.018-0.01-0.046-0.02-0.072-0.037c-0.031-0.018-0.065-0.037-0.108-0.061c-0.092-0.051-0.193-0.102-0.3-0.156l-0.2-0.107
		c-0.32-0.166-0.72-0.334-1.181-0.527l-0.142-0.059c-0.54-0.234-1.181-0.465-1.738-0.658c-0.613-0.223-1.304-0.48-2.069-0.715
		c-0.084-0.02-0.168-0.045-0.244-0.07c-0.167-0.051-0.333-0.105-0.471-0.152l-0.063-0.021c-0.047-0.014-0.096-0.027-0.137-0.045
		c-0.129-0.041-0.264-0.08-0.415-0.125c-0.021-0.01-0.04-0.014-0.092-0.025c-0.026-0.01-0.054-0.02-0.086-0.037l-0.09-0.027
		l-0.125-0.041l-0.137-0.041l-0.184-0.059c-0.125-0.045-0.25-0.088-0.346-0.133c-0.032-0.008-0.062-0.018-0.07-0.023
		c-0.064-0.018-0.121-0.037-0.179-0.064c-0.008-0.002-0.016-0.004-0.025-0.006l-0.002,0.004l-0.018-0.012h-0.142v-0.059
		c-0.112-0.045-0.213-0.086-0.316-0.135c-0.027-0.02-0.073-0.041-0.117-0.061l-0.04-0.016l-0.005-0.004l-0.096-0.049l-0.051-0.031
		c-0.024-0.004-0.051-0.018-0.072-0.029c-0.008-0.002-0.014-0.006-0.021-0.01l-0.017,0.006l-0.048-0.033l-0.03-0.02l-0.024,0.004
		l-0.033-0.029c-0.017-0.012-0.025-0.02-0.052-0.031l-0.05-0.023l-0.015-0.012l-0.038-0.004l-0.05-0.039
		c-0.027-0.016-0.044-0.025-0.042-0.025h0.001l-0.114-0.07c-0.005,0-0.014-0.002-0.02-0.006
		C-60.433,321.503-61.469,322.807-61.52,324.177z"/>
	<path d="M-49.252,300.276c0-3.824-2.376-6.928-5.29-6.928c-2.926,0-5.292,3.104-5.292,6.928c0,3.823,2.365,6.957,5.292,6.957
		C-51.629,307.233-49.252,304.098-49.252,300.276z"/>
	<path d="M-54.5,278.505c-17.673,0-32,14.326-32,32c0,17.672,14.327,32,32,32s32-14.328,32-32
		C-22.5,292.831-36.826,278.505-54.5,278.505z M-70.842,298.885v-0.003h0.002c-1.2,0-2.283-0.586-3.136-1.688
		c-0.313-0.443-0.457-0.732-0.328-0.994c0.071-0.161,0.222-0.264,0.428-0.271c0.18,0,0.417,0.095,0.703,0.278
		c0.361,0.246,0.808,0.373,1.322,0.373l0.066-0.001c0.779-0.019,1.586-0.31,2.398-0.868c1.172-0.869,1.759-1.065,2.288-1.092h0.075
		c0.305,0,0.566,0.017,0.821,0.053c-0.497-0.529-1.006-0.756-1.676-0.756l-0.069,0.003c-0.484,0.011-1.236,0.3-2.158,0.835
		c-1.104,0.588-2.057,0.908-2.818,0.922l-0.076,0.001c-1.606,0-2.605-1.254-2.938-3.796c-0.042-0.535-0.037-1.209,0.208-1.463
		c0.1-0.111,0.232-0.174,0.369-0.176h0.009h0.001c0.353,0,0.61,0.311,0.969,1.168c0.465,1.145,1.188,1.391,1.337,1.391
		c0.266-0.004,0.829-0.145,2.011-0.791c0.991-0.488,1.876-0.742,2.623-0.766h0.064c1.128,0,2.204,0.463,3.088,1.341
		c0.072,0.066,0.127,0.119,0.716,0.895c0.757-0.612,1.615-1.153,2.551-1.61c0.096-0.055,0.166-0.077,0.225-0.077l0.136,0.018
		l0.044,0.099c0.018,0.037,0.074,0.153-0.116,0.404c-0.327,0.416-0.653,0.883-1.003,1.469c-0.45,0.793-0.817,1.596-1.093,2.44
		c-0.271,0.888-0.458,1.775-0.551,2.638c-0.1,0.854-0.109,1.76-0.025,2.662c0.087,0.891,0.264,1.756,0.521,2.629
		c0.25,0.843,0.602,1.678,1.044,2.484c0.279,0.469,0.534,0.83,0.77,1.152c0.288,0.377,0.369,0.57,0.304,0.721
		c-0.019,0.039-0.075,0.129-0.213,0.129c-0.2,0-0.554-0.203-0.65-0.26c-4.831-2.568-6.703-6.76-4.931-11.004
		c-0.099,0.053-0.194,0.117-0.29,0.195c-1.146,0.865-2.118,1.295-2.94,1.315H-70.842z M-43.545,329.987
		c-0.331,0.303-0.406,0.332-0.485,0.332l-0.118-0.004l-0.048-0.096c-0.043-0.09-0.052-0.164,0.276-0.568
		c0.253-0.396,0.42-0.715,0.638-1.213c0.085-0.146,0.23-0.564,0.345-1.018c0.097-0.492,0.151-0.918,0.162-1.344
		c0.003-0.055,0.004-0.125,0.004-0.186v-0.129v-0.125c-0.004-0.049-0.007-0.098-0.011-0.146c-0.002-0.043-0.003-0.084-0.007-0.133
		c-0.013-0.166-0.029-0.334-0.061-0.512c-0.044-0.324-0.119-0.631-0.243-0.982c-0.102-0.285-0.23-0.572-0.417-0.951
		c-0.166-0.301-0.359-0.59-0.584-0.861c-0.177-0.221-0.414-0.508-0.707-0.775c-0.225-0.213-0.492-0.455-0.808-0.68l-0.122-0.082
		l-0.146-0.098c-0.091-0.059-0.156-0.102-0.227-0.139l-0.136-0.076c-0.12-0.066-0.244-0.137-0.374-0.191
		c-0.247-0.129-0.518-0.27-0.797-0.404c-0.66-0.301-1.284-0.566-1.885-0.818c-0.267-0.096-0.55-0.201-0.841-0.307
		c-0.479-0.178-0.986-0.363-1.516-0.547l-0.705-0.232c-0.645-0.211-1.29-0.432-2.034-0.658c-0.019-0.006-0.036-0.01-0.075-0.02
		c-0.052-0.008-0.096-0.02-0.135-0.039c-0.072-0.016-0.136-0.033-0.229-0.061c-0.092-0.029-0.202-0.068-0.297-0.121l-0.088-0.033
		c-0.056-0.018-0.115-0.041-0.169-0.064c-0.139-0.053-0.248-0.098-0.348-0.141c-0.061-0.023-0.109-0.051-0.138-0.066l-0.021-0.012
		l-0.018-0.018l-0.053-0.023l-0.01-0.006l-0.062-0.037l-0.004-0.002c-0.023-0.006-0.062-0.021-0.099-0.057l0.116-0.131l-0.167,0.107
		c-0.044-0.023-0.086-0.055-0.126-0.076l-0.036-0.023l-0.042-0.02c-0.103-0.051-0.204-0.1-0.318-0.18
		c-0.058-0.049-0.127-0.098-0.203-0.16c-0.077-0.043-0.159-0.094-0.246-0.162l-0.014-0.01l-0.02-0.018
		c-0.067-0.047-0.119-0.098-0.165-0.141l-0.04-0.037c-0.048-0.057-0.087-0.102-0.093-0.111c-0.026-0.029-0.063-0.074-0.074-0.098
		c-0.019-0.029-0.054-0.094-0.063-0.133c-0.025-0.043-0.06-0.109-0.076-0.146c-0.014-0.025-0.042-0.086-0.063-0.146
		c-0.012-0.033-0.023-0.068-0.039-0.115l-0.03-0.074l-0.027-0.088c-0.018-0.053-0.034-0.098-0.034-0.105
		c-0.008-0.025-0.039-0.102-0.063-0.34c-0.02-0.125-0.02-0.361,0.001-0.479c0.011-0.088,0.045-0.357,0.088-0.498
		c0.024-0.1,0.118-0.414,0.175-0.525l0.051-0.137c0.053-0.145,0.126-0.34,0.193-0.479c0.016-0.035,0.061-0.119,0.116-0.205
		l0.083-0.141c0.014-0.02,0.027-0.037,0.042-0.037c-0.016,0-0.033,0-0.051,0.004c-0.035,0.025-0.06,0.053-0.087,0.07
		c-0.028,0.025-0.053,0.051-0.082,0.07l-0.192,0.16c-0.045,0.053-0.086,0.086-0.125,0.117l-0.025,0.02
		c-0.045,0.043-0.086,0.088-0.122,0.125l-0.052,0.057l-0.061,0.066c-0.019,0.023-0.036,0.045-0.04,0.045l-0.071,0.102l-0.031,0.043
		l-0.054,0.074l-0.064,0.086c-0.041,0.057-0.086,0.121-0.125,0.166c-0.042,0.047-0.078,0.107-0.114,0.172
		c-0.069,0.107-0.129,0.217-0.196,0.346l-0.02,0.049l-0.013,0.014h-0.001l-0.001,0.004l-0.006,0.01
		c-0.006,0.012-0.012,0.02-0.019,0.031l-0.013,0.039l-0.012,0.012l-0.008,0.018l-0.014,0.021c-0.002,0.008-0.008,0.018-0.014,0.033
		l-0.003,0.01l-0.011,0.02l-0.021,0.053l-0.008,0.004l0,0.002l-0.002,0.002c-0.001,0.006-0.003,0.014-0.005,0.02l-0.009-0.004
		l-0.005,0.006l-0.009-0.006l-0.015,0.008c0.005-0.004,0.009-0.006,0.015-0.01l-0.011-0.01l-0.129-0.045l0.147,0.115l-0.011,0.033
		c-0.001,0.008-0.004,0.018-0.005,0.025l-0.001,0.006l-0.004,0.01v0.012l-0.002,0.006v0.076l-0.026,0.016l-0.009,0.057l-0.002,0.002
		l-0.009,0.041l-0.012,0.061l-0.007,0.041l-0.003,0.014l-0.002,0.039l0,0.01c-0.003,0.018-0.008,0.051-0.014,0.074l-0.172-0.002
		l0.165,0.051l-0.005,0.086l-0.003,0.02l0,0.057v0.061v0.049l0,0.051l0.001,0.047v0.004l0.003,0.076v0.006l0.006,0.037v0.018
		l0.009,0.051v0.01l0.011,0.045v0.021l0.001,0.039v0.016l0.002,0.018l0.014,0.008v0.094l0.008,0.027l0.002,0.037l0.01,0.035
		l0.002,0.014l0.012,0.049l0.002,0.014l0.005,0.039l0.006,0.018l0.011,0.014v0.033l0.013,0.041l0.002,0.012l0.001,0.004l0.014,0.01
		v0.053c0.011,0.021,0.018,0.043,0.038,0.1c0.016,0.037,0.032,0.074,0.058,0.125l0.053,0.082c0.013,0.016,0.033,0.047,0.038,0.063
		c0.021,0.033,0.046,0.072,0.078,0.117l0.032,0.053l0.002,0.004l0.032,0.043v0.01l0.004,0.008c0.029,0.051,0.057,0.094,0.106,0.166
		c0.011,0.018,0.024,0.037,0.038,0.055l-0.124,0.123l0.164-0.072l0.033,0.043l0.01,0.012c0.01,0.018,0.021,0.033,0.058,0.076
		l0.027,0.041l0.008,0.012l0.055,0.066l0.055,0.068c0.035,0.047,0.059,0.07,0.084,0.088c0.015,0.016,0.028,0.031,0.042,0.047
		c0.016,0.018,0.031,0.033,0.044,0.043l0.039,0.037c0.022,0.021,0.052,0.047,0.076,0.066l-0.111,0.129l0.153-0.094l0.052,0.045
		c0.046,0.037,0.092,0.074,0.141,0.111l0.092,0.066c0.018,0.014,0.036,0.023,0.055,0.037c0.029,0.02,0.059,0.039,0.094,0.064
		c0.021,0.016,0.047,0.033,0.09,0.057c0.053,0.027,0.098,0.057,0.149,0.08c0.07,0.037,0.134,0.07,0.214,0.105l0.054,0.031
		c0.011,0.006,0.021,0.014,0.036,0.02c0.022,0.008,0.044,0.018,0.061,0.031l0.051,0.027l0.029,0.016l0.01,0.008
		c0.026,0.014,0.05,0.029,0.067,0.037l0.031-0.006l0.036,0.043l0.019,0.02l0.087,0.035l0.135,0.057
		c0.067,0.031,0.152,0.064,0.246,0.104l0.083,0.033l0.14,0.033v0.021c0.39,0.16,0.617,0.229,0.804,0.285l0.099,0.031
		c1.657,0.516,2.79,0.887,3.765,1.244l0.323,0.117l0.841,0.279c1.444,0.572,2.539,1.092,3.318,1.588
		c0.27,0.182,0.481,0.34,0.66,0.494c0.208,0.172,0.389,0.354,0.555,0.52c0.096,0.107,0.186,0.215,0.271,0.328
		c0.104,0.143,0.197,0.295,0.28,0.447c0.027,0.045,0.056,0.098,0.086,0.154l0.033,0.064l0.042,0.078
		c0.014,0.029,0.03,0.064,0.055,0.113l0.052,0.107c0.024,0.051,0.045,0.094,0.062,0.139l0.027,0.059
		c0.014,0.023,0.026,0.045,0.053,0.1c0.006,0.023,0.019,0.064,0.04,0.117c0.016,0.043,0.032,0.098,0.039,0.129
		c0.018,0.057,0.033,0.115,0.048,0.168c0.01,0.043,0.018,0.082,0.039,0.148c0.004,0.051,0.012,0.084,0.022,0.127
		c0.018,0.07,0.026,0.129,0.029,0.18c0.018,0.084,0.027,0.188,0.037,0.297c0.005,0.051,0.01,0.105,0.012,0.162l0.008,0.1v0.164
		v0.064v0.066c0,0.027-0.001,0.055-0.003,0.086l-0.003,0.064c-0.005,0.094-0.011,0.199-0.018,0.291
		c-0.005,0.068-0.016,0.135-0.022,0.197l-0.011,0.08c-0.005,0.037-0.014,0.076-0.02,0.109l-0.013,0.053l-0.013,0.063
		c-0.005,0.033-0.013,0.07-0.018,0.088c-0.019,0.092-0.04,0.168-0.058,0.248l-0.021,0.088c-0.016,0.055-0.033,0.104-0.049,0.15
		l-0.027,0.084l-0.014,0.053l-0.004,0.012c-0.008,0.02-0.018,0.037-0.021,0.037c-0.001,0-0.002,0-0.002,0
		c-0.016,0.057-0.032,0.102-0.052,0.15c-0.016,0.033-0.028,0.066-0.042,0.096c-0.009,0.025-0.018,0.049-0.021,0.057l-0.03,0.078
		l-0.001,0.006v0.111h-0.006v0.039h-0.054c-0.014,0.039-0.024,0.07-0.034,0.074c-0.01,0.021-0.017,0.041-0.025,0.059
		c-0.013,0.021-0.021,0.043-0.038,0.07c-0.022,0.039-0.04,0.08-0.056,0.119l-0.037,0.086l-0.023,0.051
		c-0.021,0.045-0.042,0.088-0.051,0.096c-0.02,0.055-0.047,0.105-0.082,0.174l-0.053,0.092l-0.019,0.029l-0.035,0.061l-0.001,0.002
		c-0.001,0-0.001,0-0.001,0l-0.013,0.037l-0.004,0.078l-0.067,0.012l-0.022,0.035l-0.003,0.006c-0.02,0.02-0.034,0.043-0.061,0.08
		l-0.125,0.156c-0.04,0.051-0.081,0.098-0.113,0.139c-0.026,0.033-0.05,0.066-0.07,0.094l-0.019,0.033l-0.007,0.008l-0.098,0.115
		l-0.054,0.063l-0.001,0.105h-0.089l-0.02,0.023l-0.024,0.018c-0.025,0.023-0.047,0.045-0.068,0.063l-0.036,0.035l-0.043,0.043
		l-0.055,0.053l-0.066,0.055l-0.038,0.039l-0.055,0.055c-0.053,0.045-0.104,0.09-0.148,0.131c-0.101,0.105-0.211,0.203-0.325,0.303
		l-0.008,0.006l-0.016,0.031l-0.053,0.025c-0.013,0.01-0.024,0.018-0.031,0.018c-0.001,0-0.002-0.002-0.002-0.004
		c-0.029,0.035-0.061,0.055-0.073,0.057l-0.042,0.031l-0.004,0.002c-0.026,0.023-0.06,0.047-0.075,0.055
		c-0.039,0.031-0.083,0.063-0.133,0.098l-0.051,0.033l-0.037,0.027l-0.007,0.008l-0.03,0.02l0.001,0.025l-0.012,0.006l-0.013,0.041
		h-0.079l-0.019,0.018l-0.017,0.012l-0.069,0.049c-0.012,0.006-0.023,0.016-0.039,0.021c-0.018,0.018-0.041,0.037-0.057,0.037
		l-0.02,0.01c-0.017,0.01-0.031,0.018-0.042,0.023c-0.014,0.012-0.032,0.023-0.054,0.037c-0.025,0.018-0.052,0.029-0.088,0.047
		l-0.037,0.021l-0.002,0.002c-0.02,0.012-0.039,0.021-0.043,0.023c-0.044,0.023-0.078,0.041-0.09,0.043
		c-0.019,0.014-0.041,0.021-0.071,0.037c-0.018,0.016-0.042,0.027-0.077,0.041l-0.028,0.029h-0.029l-0.041,0.018l-0.008,0.006
		l-0.01,0.014l-0.024,0.012c-0.009,0.004-0.019,0.008-0.034,0.016l-0.042,0.023l-0.019,0.002c-0.001,0-0.002,0.002-0.003,0.002
		l-0.02,0.02h-0.029c-0.007,0.004-0.016,0.006-0.021,0.01c-0.048,0.023-0.131,0.061-0.238,0.1l-0.045,0.018l-0.013,0.014
		l-0.028,0.006l-0.054,0.02l-0.014,0.004c-0.041,0.02-0.076,0.025-0.13,0.045c-0.02,0.008-0.033,0.014-0.038,0.014
		c-0.033,0.025-0.067,0.037-0.088,0.043l-0.007,0.004l-0.021,0.008l-0.028,0.014l-0.014,0.002l-0.038,0.014l-0.001,0.002
		l-0.041,0.014l-0.077,0.029l-0.141,0.047c-0.068,0.016-0.141,0.033-0.254,0.068c-0.017,0.01-0.038,0.014-0.058,0.016l-0.016,0.004
		l-0.012,0.002l-0.043,0.012l-0.004,0.002l-0.054,0.018l-0.076,0.02l-0.132,0.029l-0.067,0.016l-0.045,0.012h-0.011
		c-0.051,0.008-0.108,0.018-0.204,0.039l-0.05,0.006c-0.021,0.008-0.054,0.018-0.063,0.018c-0.001,0-0.002,0-0.002-0.002
		l-0.055,0.012h-0.007c-0.007,0.002-0.013,0.002-0.02,0.004l-0.01,0.002h-0.01l-0.062,0.016l-0.064,0.014l-0.054,0.014l-0.043,0.01
		c-0.026,0.006-0.052,0.01-0.073,0.014l-0.024,0.01h-0.019l-0.01,0.002h-0.005l-0.008,0.002h-0.013l-0.003,0.002l-0.009,0.002
		l-0.014,0.006l-0.045,0.006v-0.002l-0.012,0.006h-0.033l-0.016,0.002l-0.076,0.01l-0.008,0.002c-0.022,0.004-0.048,0.01-0.062,0.01
		c-0.06,0.012-0.115,0.014-0.162,0.016c-0.02,0.002-0.038,0.004-0.054,0.008c-0.017,0-0.028,0.004-0.042,0.006
		c-0.03,0.008-0.059,0.01-0.084,0.012c-0.027,0.006-0.051,0.01-0.068,0.01c-0.002,0-0.003,0-0.004,0
		c-0.015,0.004-0.033,0.006-0.079,0.008l-0.054,0.006c-0.02,0.002-0.042,0.006-0.046,0.006c-0.002,0-0.002,0,0.003-0.002
		c-0.017,0.006-0.04,0.012-0.064,0.014c-0.018,0.002-0.033,0.006-0.044,0.006c-0.004,0-0.008,0-0.01-0.002
		c-0.028,0.008-0.055,0.012-0.076,0.012c-0.003,0-0.006,0-0.01,0c-0.004,0-0.012,0.002-0.019,0.002c-0.01,0-0.018-0.002-0.026-0.006
		l-0.035,0.012l-0.025,0.002l-0.045,0.006h-0.005l-0.057,0.004l-0.048,0.002h-0.003l-0.046,0.004
		c-0.024,0.002-0.04,0.002-0.055,0.002l-0.048,0.01h-0.037h-0.034c-0.027,0.004-0.054,0.006-0.071,0.006c-0.001,0-0.002,0-0.004,0
		c-0.047,0.002-0.082,0.002-0.133,0.002h-0.045l-0.02,0.002h-0.024h-0.051h-0.05h-0.054l-0.045-0.002h-0.19l-0.173-0.002
		c-0.039,0-0.083-0.002-0.112-0.004c-0.096-0.002-0.197-0.006-0.288-0.014l-0.281-0.016l-0.226-0.012
		c-0.166-0.018-0.333-0.039-0.49-0.061l-0.139-0.016c-0.101-0.01-0.209-0.023-0.324-0.039c-0.323-0.055-0.614-0.102-0.805-0.137
		c-0.309-0.041-0.886-0.195-1.323-0.334l-0.229-0.08c-0.118-0.039-0.236-0.078-0.344-0.117c-0.42-0.158-0.802-0.316-1.125-0.477
		c-0.195-0.092-0.381-0.189-0.465-0.234c-0.611-0.332-0.927-0.531-1.237-0.77c-0.067-0.039-1.662-0.967-2.642-2.514
		c-1.057-1.686-1.338-3.283-0.843-4.711c0.55-1.604,1.917-2.705,2.965-3.348c-2.506,0.752-4.058,1.918-4.569,3.457
		c-0.886,2.602,1.402,5.59,2.124,6.436c0.087,0.082,0.219,0.201,0.161,0.346l-0.075,0.125h-0.118c-0.08,0-0.183-0.041-0.233-0.061
		c-1.487-0.746-6.195-3.477-5.149-7.607c1.157-3.697,6.984-4.17,8.525-4.23c-0.057-0.072-0.105-0.141-0.149-0.207
		c-0.168-0.242-0.319-0.465-0.454-0.682c-0.113-0.188-0.206-0.367-0.285-0.553c-0.017-0.033-0.03-0.07-0.043-0.104
		c-0.02-0.033-0.035-0.07-0.048-0.109l-0.04-0.121c-0.017-0.037-0.029-0.08-0.039-0.119l-0.023-0.084l-0.015-0.053
		c-0.017-0.039-0.026-0.074-0.048-0.15l-0.01-0.041l0-0.006c-0.01-0.031-0.017-0.064-0.017-0.074
		c-0.025-0.082-0.045-0.154-0.065-0.264l-0.017-0.082v-0.002l-0.026-0.098l-0.011-0.053l-0.001-0.006
		c-0.006-0.027-0.009-0.057-0.013-0.088c-0.006-0.021-0.01-0.045-0.017-0.105c-0.001-0.016-0.003-0.029-0.004-0.043
		c-0.007-0.025-0.007-0.043-0.005-0.045c-0.006-0.023-0.008-0.043-0.013-0.084l-0.007-0.045v-0.002
		c-0.005-0.027-0.01-0.057-0.012-0.082c-0.012-0.121-0.021-0.252-0.025-0.393c-0.004-0.1-0.004-0.199-0.004-0.305
		c0-0.055,0.001-0.084,0.008-0.131c0.013-0.082,0.031-0.197,0.085-0.467l0.001-0.025l0.006-0.021
		c0.002-0.008,0.009-0.029,0.015-0.064c0.06-0.248,0.124-0.438,0.184-0.604l0.015-0.031l0.004-0.008
		c0.019-0.07,0.046-0.137,0.073-0.201l0.026-0.066c0.037-0.09,0.077-0.16,0.111-0.223l0.038-0.063l0.01-0.02v-0.002l0.001-0.004
		l0.003-0.004l0.009-0.014l0.071-0.113l0.085-0.133c0.018-0.031,0.039-0.055,0.068-0.094l0.075-0.107
		c0.033-0.049,0.063-0.09,0.103-0.152c0.032-0.043,0.062-0.072,0.09-0.102c0.019-0.016,0.034-0.035,0.047-0.051l0.162-0.184
		l0.105-0.139l0.02-0.029l0.03-0.016c0.017-0.01,0.034-0.033,0.053-0.049c0.016-0.016,0.03-0.027,0.043-0.037
		c0.033-0.037,0.056-0.059,0.089-0.092c0.095-0.09,0.162-0.15,0.224-0.201l0.053-0.045c0.106-0.078,0.201-0.158,0.291-0.234
		l0.01-0.016l0.021-0.02c0.079-0.057,0.17-0.121,0.236-0.166l0.056-0.037l0.053-0.037l0.146-0.094
		c0.1-0.063,0.216-0.137,0.338-0.223l0.027-0.018l0.018-0.008c0.026-0.01,0.066-0.021,0.233-0.1c0.042-0.02,0.09-0.045,0.287-0.137
		c0.026-0.012,0.05-0.025,0.107-0.055l0.196-0.1c0.046-0.023,0.104-0.051,0.33-0.152c0.017-0.006,0.031-0.012,0.054-0.021
		c-0.241-0.117-0.481-0.256-0.715-0.42c-0.56-0.357-1.059-0.762-1.513-1.236c-0.458-0.471-0.854-0.947-1.21-1.518
		c-0.406-0.658-0.743-1.391-1.03-2.178c-0.342-0.998-0.556-2.046-0.632-3.101c-0.075-1.073-0.004-2.128,0.213-3.183
		c0.209-1.07,0.56-2.084,1.022-3.007c0.224-0.42,0.5-0.866,0.815-1.286c0.324-0.461,0.706-0.869,1.008-1.178
		c0.445-0.41,0.822-0.717,1.218-0.979c0.396-0.27,0.855-0.514,1.34-0.731c0.517-0.173,1.008-0.314,1.507-0.408
		c0.423-0.074,0.843-0.111,1.277-0.111c0.101,0,0.201,0.001,0.299,0.005c0.491,0.019,0.987,0.094,1.521,0.231
		c0.498,0.134,1.002,0.296,1.453,0.526c0.462,0.228,0.895,0.496,1.327,0.826c0.503,0.391,0.961,0.868,1.464,1.466
		c0.433,0.548,0.811,1.139,1.127,1.731c0.438,0.856,0.764,1.796,0.973,2.783c0.205,0.969,0.292,1.936,0.256,2.932
		c-0.033,0.968-0.192,1.957-0.469,2.916c-0.266,0.912-0.664,1.809-1.193,2.67c-0.25,0.408-0.635,0.936-0.914,1.23
		c-0.254,0.289-0.48,0.529-0.707,0.746c-0.02,0.021-0.073,0.064-0.637,0.5c-0.082,0.059-0.219,0.15-0.32,0.219l-0.108,0.074
		c-0.264,0.16-0.583,0.35-0.625,0.373c-0.306,0.16-0.688,0.348-0.87,0.428c-0.284,0.131-0.714,0.332-0.771,0.357
		c-0.025,0.01-0.052,0.021-0.106,0.051c-0.03,0.014-0.057,0.027-0.112,0.053c-0.036,0.023-0.08,0.043-0.082,0.043
		c-0.058,0.027-0.22,0.117-0.266,0.15c-0.017,0.01-0.031,0.018-0.039,0.021c-0.047,0.037-0.089,0.066-0.13,0.094
		c-0.028,0.02-0.053,0.039-0.101,0.08c-0.013,0.01-0.027,0.018-0.037,0.029l-0.066,0.053l-0.008,0.008
		c-0.059,0.043-0.133,0.098-0.173,0.131c-0.002,0.002-0.253,0.248-0.347,0.33c-0.013,0.018-0.03,0.037-0.05,0.064
		c-0.054,0.066-0.125,0.156-0.159,0.211c-0.091,0.088-0.162,0.188-0.245,0.348l-0.028,0.059l-0.001,0.002
		c-0.027,0.041-0.042,0.074-0.058,0.115c-0.049,0.107-0.054,0.16-0.063,0.262c-0.042,0.201-0.02,0.355,0.003,0.48
		c0.007,0.154,0.032,0.219,0.061,0.277c0.096,0.219,0.178,0.326,0.233,0.383l0.042,0.047l0.056,0.061l0.04,0.035
		c0.014,0.012,0.027,0.027,0.065,0.053l-0.069,0.162l0.112-0.133l0.035,0.025l0.009,0.008l0.037,0.02l0.01,0.008
		c0.016,0.014,0.033,0.021,0.088,0.051c0.053,0.041,0.09,0.064,0.084,0.066l0.062,0.027l0.011,0.008l0.063,0.029
		c0.03,0.016,0.055,0.025,0.088,0.037c0.022,0.008,0.045,0.014,0.068,0.025l0.053,0.01l0.029,0.018l0.058,0.02
		c0.031,0.006,0.06,0.016,0.09,0.025c0.012,0.008,0.024,0.012,0.051,0.018c0.083,0.025,0.152,0.053,0.253,0.088
		c0.054,0.018,0.111,0.031,0.179,0.045c0.132,0.031,0.27,0.072,0.413,0.119c0.139,0.051,0.285,0.096,0.435,0.143l0.055,0.02
		c0.433,0.143,0.824,0.275,1.226,0.412c0.391,0.109,9.545,2.682,10.729,7.838C-39.588,325.046-40.746,327.505-43.545,329.987z
		 M-33.136,291.887c-0.333,2.527-1.331,3.786-2.967,3.786l-0.077-0.001c-0.73-0.014-1.68-0.332-2.807-0.922
		c-0.928-0.533-1.676-0.822-2.14-0.835l-0.071-0.002c-0.667,0-1.178,0.228-1.674,0.758c0.255-0.038,0.521-0.054,0.828-0.054h0.085
		c0.514,0.027,1.084,0.223,2.237,1.086c0.834,0.563,1.655,0.855,2.437,0.873l0.067,0.002c0.506,0,0.927-0.125,1.289-0.373
		c0.198-0.126,0.477-0.277,0.724-0.277h0.001c0.177,0.008,0.335,0.104,0.419,0.266c0.14,0.27-0.011,0.558-0.342,1.004
		c-0.847,1.1-1.903,1.684-3.108,1.684h-0.089c-0.846-0.021-1.817-0.451-2.943-1.32c-0.089-0.074-0.185-0.138-0.281-0.193
		c1.749,4.256-0.104,8.457-4.951,11.016c-0.098,0.061-0.439,0.262-0.635,0.262c-0.144,0-0.204-0.088-0.224-0.125
		c-0.072-0.148,0.016-0.346,0.31-0.721c0.006-0.012,0.542-0.77,0.778-1.162c0.447-0.824,0.798-1.664,1.043-2.49
		c0.241-0.877,0.405-1.742,0.489-2.629c0.087-0.896,0.079-1.803-0.018-2.662c-0.091-0.852-0.265-1.738-0.526-2.638
		c-0.267-0.841-0.635-1.64-1.09-2.437c-0.351-0.591-0.676-1.059-1.023-1.476c-0.19-0.235-0.131-0.351-0.116-0.388
		c0.036-0.076,0.109-0.123,0.198-0.123c0.063,0,0.144,0.021,0.255,0.079c0.934,0.46,1.78,0.998,2.5,1.6
		c0.566-0.756,0.638-0.825,0.708-0.894c0.916-0.879,1.995-1.342,3.099-1.342h0.063c0.739,0.019,1.633,0.277,2.659,0.77
		c1.172,0.643,1.706,0.783,1.97,0.787c0.008,0,0.804-0.082,1.358-1.39c0.363-0.854,0.619-1.171,0.978-1.171h0.006h0.002
		c0.133,0.002,0.269,0.066,0.37,0.177C-33.152,290.622-33.081,291.094-33.136,291.887z"/>
</g>
</svg>
