<?xml version="1.0" encoding="utf-8"?>
<!-- Generator: Adobe Illustrator 16.0.0, SVG Export Plug-In . SVG Version: 6.00 Build 0)  -->
<!DOCTYPE svg PUBLIC "-//W3C//DTD SVG 1.1//EN" "http://www.w3.org/Graphics/SVG/1.1/DTD/svg11.dtd">
<svg version="1.1" xmlns="http://www.w3.org/2000/svg" xmlns:xlink="http://www.w3.org/1999/xlink" x="0px" y="0px" width="96px"
	 height="96px" viewBox="0 0 96 96" enable-background="new 0 0 96 96" xml:space="preserve">
<g id="图层_1" display="none">
	<path display="inline" fill="none" stroke="#FFFFFF" stroke-width="2" stroke-miterlimit="10" d="M128,85H-30
		c-6.627,0-12-5.373-12-12l0,0c0-6.627,5.373-12,12-12h158"/>
	<path display="inline" fill="#FFFFFF" stroke="#FFFFFF" stroke-width="2" stroke-miterlimit="10" d="M128,85h18
		c6.627,0,12-5.373,12-12l0,0c0-6.627-5.373-12-12-12h-18V85z"/>
</g>
<g id="图层_2">
	<circle fill="#276327" cx="48" cy="48" r="48"/>
	<g>
		<path fill="#FFFFFF" d="M53.187,55.352c-0.555-0.191-1.098-0.377-1.703-0.575c-0.232-0.074-0.463-0.145-0.676-0.225
			c-0.182-0.058-0.363-0.112-0.543-0.155c-0.088-0.013-0.172-0.038-0.26-0.063c-0.127-0.043-0.23-0.084-0.365-0.125
			c-0.064-0.012-0.123-0.037-0.182-0.049c-0.021-0.007-0.043-0.017-0.059-0.022c-0.043-0.011-0.078-0.021-0.104-0.036
			c-0.016-0.005-0.037-0.007-0.055-0.011c-0.012-0.005-0.025-0.007-0.031-0.011c-0.033-0.017-0.066-0.023-0.1-0.036
			c-0.064-0.024-0.139-0.061-0.24-0.108c-0.014-0.01-0.023-0.018-0.041-0.022c-0.043-0.023-0.102-0.066-0.191-0.127
			c-0.041-0.022-0.084-0.047-0.125-0.077c-0.016-0.011-0.035-0.021-0.049-0.028c-0.018-0.013-0.041-0.031-0.057-0.041
			c-0.035-0.022-0.063-0.039-0.088-0.06c-0.045-0.032-0.088-0.077-0.141-0.12c-0.049-0.054-0.102-0.111-0.152-0.171
			c-0.123-0.122-0.248-0.32-0.365-0.59c-0.051-0.105-0.096-0.228-0.104-0.468c-0.031-0.149-0.068-0.398,0-0.721
			c0.008-0.099,0.008-0.202,0.102-0.41c0.023-0.061,0.055-0.118,0.1-0.187c0.014-0.042,0.031-0.078,0.053-0.105
			c0.1-0.192,0.201-0.334,0.332-0.51c0.045-0.079,0.268-0.348,0.303-0.397c0.1-0.08,0.48-0.457,0.482-0.459
			c0.072-0.061,0.18-0.143,0.266-0.204c0.025-0.021,0.047-0.041,0.078-0.063c0.033-0.027,0.072-0.059,0.109-0.085
			c0.043-0.033,0.084-0.061,0.129-0.093c0.059-0.036,0.117-0.075,0.184-0.123c0.023-0.017,0.051-0.032,0.084-0.052
			c0.055-0.03,0.303-0.164,0.383-0.206c0.021-0.009,0.092-0.043,0.102-0.05c0.057-0.03,0.107-0.056,0.152-0.08
			c0.064-0.03,0.123-0.062,0.188-0.084c0.043-0.022,0.639-0.301,1.035-0.482c0.234-0.104,0.752-0.358,1.188-0.584
			c0.051-0.029,0.486-0.288,0.846-0.509c0.105-0.068,0.416-0.274,0.574-0.393c0.324-0.248,0.813-0.624,0.846-0.66
			c0.393-0.349,0.717-0.691,1.006-1.021c0.365-0.419,0.887-1.134,1.24-1.698c0.682-1.122,1.244-2.347,1.613-3.622
			c0.365-1.29,0.59-2.636,0.641-3.994c0.045-1.356-0.07-2.701-0.352-4.017c-0.273-1.307-0.711-2.589-1.32-3.776
			c-0.422-0.844-0.943-1.652-1.521-2.385c-0.615-0.729-1.273-1.401-2.016-1.975c-0.559-0.429-1.146-0.802-1.787-1.113
			c-0.609-0.311-1.293-0.569-1.957-0.748c-0.699-0.175-1.393-0.283-2.08-0.309c-0.73-0.022-1.422,0.019-2.123,0.145
			c-0.693,0.125-1.357,0.322-2.029,0.59c-0.631,0.266-1.271,0.598-1.84,0.977c-0.598,0.397-1.123,0.838-1.643,1.322
			c-0.48,0.491-0.955,1.011-1.361,1.586c-0.416,0.562-0.795,1.158-1.115,1.787c-0.668,1.274-1.139,2.66-1.412,4.075
			c-0.293,1.422-0.393,2.902-0.291,4.361c0.105,1.436,0.402,2.881,0.863,4.251c0.375,1.041,0.85,2.033,1.434,2.948
			c0.48,0.773,1.016,1.456,1.635,2.088c0.607,0.631,1.271,1.182,2.039,1.665c0.473,0.329,0.945,0.585,1.453,0.78
			c-0.172,0.085-0.18,0.088-0.193,0.092c-0.281,0.114-0.34,0.145-0.4,0.166c-0.283,0.128-0.357,0.161-0.422,0.194
			c-0.291,0.153-0.35,0.182-0.408,0.209c-0.281,0.134-0.346,0.168-0.402,0.198c-0.283,0.127-0.322,0.138-0.359,0.149
			c-0.26,0.184-0.496,0.329-0.668,0.443c-0.047,0.028-0.086,0.058-0.146,0.099c-0.088,0.059-0.211,0.146-0.316,0.224
			c-0.006,0.01-0.01,0.015-0.018,0.02c-0.109,0.097-0.26,0.227-0.436,0.35c-0.094,0.082-0.195,0.171-0.35,0.318
			c-0.023,0.028-0.057,0.053-0.123,0.131c-0.043,0.03-0.105,0.103-0.176,0.145c-0.102,0.13-0.213,0.275-0.371,0.485
			c-0.055,0.066-0.117,0.12-0.193,0.214c-0.063,0.103-0.145,0.207-0.232,0.336c-0.027,0.041-0.057,0.077-0.094,0.133
			c-0.057,0.095-0.137,0.215-0.209,0.333c-0.006,0.015-0.018,0.025-0.023,0.038c-0.063,0.111-0.137,0.218-0.209,0.38
			c-0.045,0.104-0.1,0.221-0.137,0.339c-0.012,0.026-0.021,0.053-0.031,0.079c-0.074,0.193-0.168,0.452-0.254,0.801
			c-0.01,0.048-0.023,0.1-0.023,0.104c-0.08,0.423-0.107,0.58-0.121,0.691c-0.004,0.033-0.008,0.065-0.008,0.131
			c0,0.143,0.002,0.278,0.008,0.409c0.004,0.19,0.016,0.365,0.033,0.523c0.004,0.065,0.014,0.12,0.021,0.171
			c0.006,0.032,0.006,0.058,0.01,0.087c0.002,0.01,0.004,0.026,0.006,0.034c0,0.016,0.002,0.025,0.01,0.035
			c0,0.043,0.01,0.092,0.016,0.146c0.002,0.027,0.008,0.058,0.012,0.09c0.004,0.028,0.008,0.063,0.014,0.091
			c0.008,0.033,0.012,0.055,0.016,0.082c0.018,0.094,0.035,0.169,0.047,0.227c0.006,0.035,0.014,0.063,0.02,0.097
			c0.021,0.104,0.047,0.189,0.08,0.299c0.01,0.054,0.027,0.107,0.041,0.161c0.02,0.061,0.033,0.118,0.059,0.181
			c0.021,0.072,0.049,0.153,0.07,0.223c0.016,0.064,0.041,0.123,0.063,0.177c0.016,0.048,0.035,0.099,0.049,0.145
			c0.014,0.036,0.035,0.081,0.055,0.108c0.02,0.059,0.051,0.121,0.076,0.182c0.102,0.226,0.23,0.463,0.377,0.711
			c0.182,0.289,0.385,0.593,0.619,0.923c0.146,0.23,0.33,0.446,0.531,0.649c0,0-10.334-0.021-12.111,5.713
			c-1.438,5.598,5.191,9.358,7.004,10.27c0,0,0.523,0.217,0.1-0.177c-1.746-2.058-8.91-11.605,5.639-14.647
			c0,0-9.912,3.655-4.83,11.78c1.334,2.142,3.594,3.423,3.594,3.423c0.455,0.345,0.896,0.612,1.699,1.052
			c0.115,0.064,0.371,0.194,0.629,0.317c0.488,0.239,1.021,0.457,1.529,0.647c0.242,0.088,0.527,0.172,0.813,0.269
			c0.678,0.212,1.412,0.415,1.791,0.477c0.275,0.063,0.67,0.128,1.111,0.2c0.221,0.03,0.441,0.054,0.629,0.075
			c0.219,0.029,0.447,0.056,0.674,0.079c0.227,0.014,0.434,0.026,0.682,0.036c0.127,0.01,0.26,0.014,0.391,0.018
			c0.064,0.003,0.137,0.003,0.201,0.005c0.068,0.002,0.141,0.002,0.209,0.002c0.07,0,0.178,0,0.277,0
			c0.051,0,0.096,0.004,0.139,0.004c0.023,0,0.043,0,0.064,0c0.006,0,0.02,0,0.025,0s0.012,0,0.016,0c0.002,0,0.008,0,0.008,0
			c0.004,0,0.004,0,0.004,0c0.006,0,0.006,0,0.006,0c0.004,0,0.006,0,0.016,0c0.018,0,0.035,0,0.055-0.004c0.021,0,0.043,0,0.064,0
			c0.066,0,0.117,0,0.178-0.004c0.02,0,0.043,0,0.068-0.003c0.016,0,0.031-0.001,0.049-0.001c0.006,0,0.02,0,0.023,0
			c0.008-0.003,0.014-0.003,0.023-0.003c0.012,0,0.023-0.002,0.051-0.003c0.016-0.001,0.037-0.001,0.057-0.008
			c0.018,0,0.031,0,0.051-0.002c0.008-0.001,0.014-0.002,0.021-0.002c0.018,0,0.045-0.003,0.074-0.004
			c0.039-0.003,0.08-0.005,0.133-0.007c0.023-0.003,0.049-0.007,0.072-0.007c0.014-0.004,0.029-0.004,0.047-0.008
			c0.01-0.001,0.023-0.001,0.035-0.003c0.016,0,0.035,0,0.051-0.002c0.033-0.002,0.057-0.005,0.082-0.009
			c0.021,0,0.033-0.002,0.043-0.003c0.008,0,0.025-0.004,0.053-0.01c0.025,0,0.047-0.006,0.072-0.011
			c0.029,0,0.068-0.009,0.104-0.013c0.033-0.003,0.074-0.007,0.117-0.01c0.02,0,0.037-0.004,0.057-0.004
			c0.023,0,0.043-0.007,0.063-0.011c0.043-0.004,0.086-0.006,0.119-0.015c0.045-0.004,0.09-0.018,0.156-0.021
			c0.068-0.004,0.133-0.009,0.207-0.019c0.045-0.006,0.09-0.014,0.137-0.021c0.016-0.003,0.043-0.003,0.066-0.006
			c0.01-0.005,0.02-0.005,0.031-0.006c0.004,0,0.012,0,0.016,0c0,0,0.002,0,0.006-0.002c0.002,0,0.004,0,0.004,0
			c0.002,0,0.002,0,0.002,0c0.002,0,0.004,0,0.008,0c0.008,0,0.029-0.002,0.043-0.004c0.01-0.003,0.023-0.003,0.031-0.007
			c0.023-0.007,0.037-0.007,0.053-0.013c0.006,0,0.012-0.001,0.016-0.001s0.006,0,0.008,0s0.008,0,0.008,0
			c0.004-0.001,0.01-0.001,0.014-0.004c0.004,0,0.014-0.004,0.02-0.004c0.041-0.007,0.1-0.02,0.172-0.035
			c0.072-0.015,0.123-0.022,0.168-0.033c0.043-0.009,0.076-0.018,0.102-0.025c0.002,0,0.012,0,0.016,0
			c0.006-0.001,0.006-0.001,0.006-0.001c0.004,0,0.004,0,0.008-0.002c0.004,0,0.006,0,0.012,0s0.012-0.002,0.018-0.003
			c0.014-0.001,0.025-0.004,0.035-0.006c0.039-0.005,0.072-0.021,0.105-0.034c0.035-0.007,0.066-0.013,0.1-0.018
			c0.102-0.025,0.193-0.045,0.273-0.06c0.037-0.007,0.068-0.02,0.1-0.026c0.021-0.006,0.045-0.012,0.063-0.015
			c0.133-0.035,0.215-0.061,0.279-0.075c0.033-0.011,0.059-0.021,0.082-0.025c0.029-0.007,0.053-0.015,0.078-0.021
			c0.016-0.003,0.025-0.004,0.031-0.005c0.012-0.002,0.023-0.002,0.029-0.004c0.012-0.005,0.025-0.007,0.041-0.012
			c0.127-0.042,0.242-0.075,0.346-0.098c0.113-0.037,0.203-0.068,0.283-0.097c0.039-0.015,0.07-0.021,0.098-0.031
			c0.029-0.01,0.053-0.019,0.078-0.025c0.014-0.002,0.027-0.007,0.043-0.015c0.02-0.007,0.049-0.011,0.068-0.025
			c0.047-0.03,0.096-0.043,0.141-0.061c0.025-0.009,0.045-0.018,0.064-0.021c0.025-0.003,0.045-0.009,0.066-0.018
			c0.02-0.008,0.051-0.023,0.084-0.033c0.012-0.003,0.031-0.014,0.049-0.018c0.014-0.009,0.039-0.016,0.057-0.021
			c0.023-0.014,0.045-0.021,0.063-0.031c0.121-0.04,0.225-0.085,0.287-0.115c0.029-0.014,0.051-0.023,0.063-0.032
			c0.006,0,0.01-0.007,0.012-0.007c0.004,0,0.004,0,0.006-0.001c0,0,0.004-0.001,0.008-0.001c0.016-0.005,0.035-0.01,0.066-0.023
			c0.012-0.003,0.025-0.015,0.043-0.025c0.016-0.004,0.025-0.007,0.035-0.011c0.01-0.007,0.018-0.018,0.029-0.02
			c0.016-0.012,0.033-0.018,0.047-0.028c0.031-0.016,0.051-0.025,0.07-0.034c0.008-0.009,0.016-0.011,0.02-0.011
			c0.006-0.007,0.014-0.009,0.018-0.011c0.016-0.004,0.027-0.014,0.041-0.015c0.02-0.007,0.035-0.016,0.057-0.036
			c0.033-0.016,0.063-0.028,0.092-0.046c0.043-0.019,0.084-0.036,0.139-0.066c0.018-0.009,0.047-0.028,0.076-0.041
			c0.023-0.015,0.049-0.035,0.08-0.05c0.025-0.012,0.049-0.022,0.07-0.036c0.031-0.014,0.057-0.036,0.082-0.054
			c0.021-0.011,0.043-0.024,0.057-0.035c0.02-0.01,0.035-0.015,0.049-0.019c0.012-0.004,0.023-0.019,0.037-0.032
			c0.033-0.015,0.061-0.036,0.086-0.051c0.027-0.021,0.047-0.035,0.068-0.048c0.01-0.009,0.02-0.013,0.027-0.02
			c0.012-0.009,0.023-0.018,0.037-0.021c0.012-0.009,0.023-0.024,0.031-0.036c0.004-0.005,0.008-0.007,0.012-0.007
			c0.002-0.002,0.004-0.003,0.008-0.003c0-0.001,0.002-0.004,0.002-0.004c0.01-0.002,0.016-0.008,0.025-0.015
			c0.01-0.008,0.021-0.02,0.031-0.028c0.027-0.013,0.059-0.045,0.086-0.061c0.018-0.015,0.029-0.021,0.045-0.032
			c0.086-0.062,0.162-0.108,0.221-0.158c0.037-0.023,0.07-0.045,0.096-0.068c0.031-0.024,0.055-0.037,0.08-0.057
			c0.023-0.018,0.045-0.029,0.063-0.047c0.021-0.019,0.049-0.03,0.07-0.046c0.021-0.022,0.039-0.04,0.059-0.051
			c0.012-0.015,0.023-0.02,0.031-0.023c0.004-0.002,0.008-0.002,0.01-0.005c0.154-0.135,0.299-0.264,0.436-0.403
			c0.07-0.069,0.146-0.136,0.223-0.2c0.033-0.041,0.07-0.073,0.107-0.107s0.072-0.068,0.115-0.103
			c0.033-0.032,0.076-0.074,0.115-0.114c0.043-0.041,0.088-0.078,0.139-0.129c0.016-0.023,0.033-0.043,0.055-0.058
			c0.01-0.014,0.021-0.028,0.033-0.039c0.004-0.003,0.012-0.008,0.016-0.02c0.002-0.002,0.004-0.004,0.006-0.009
			c0.004-0.001,0.006-0.002,0.006-0.006c0.004-0.001,0.004-0.001,0.004-0.006c0.006-0.003,0.008-0.01,0.014-0.012
			c0.08-0.088,0.162-0.192,0.25-0.295c0.039-0.055,0.078-0.118,0.129-0.18c0.049-0.057,0.1-0.116,0.15-0.183
			c0.053-0.068,0.107-0.133,0.172-0.218c0.027-0.036,0.055-0.079,0.092-0.123c0.016-0.024,0.033-0.05,0.053-0.078
			c0.006-0.008,0.012-0.024,0.021-0.04c0.006-0.003,0.012-0.011,0.012-0.021c0.01-0.004,0.01-0.004,0.012-0.006
			c0.002-0.005,0.002-0.005,0.004-0.009c0,0,0,0,0.002-0.002c0.004-0.001,0.004-0.002,0.008-0.011
			c0.006-0.002,0.008-0.006,0.014-0.02c0.006-0.007,0.014-0.018,0.018-0.032c0.012-0.013,0.021-0.021,0.029-0.04
			c0.039-0.06,0.078-0.125,0.127-0.199c0.033-0.062,0.072-0.126,0.105-0.201c0.041-0.064,0.08-0.143,0.121-0.224
			c0.047-0.088,0.086-0.185,0.137-0.281c0.029-0.063,0.051-0.132,0.084-0.2c0.02-0.028,0.035-0.076,0.045-0.111
			c0.014-0.021,0.02-0.043,0.025-0.066c0.006-0.009,0.01-0.018,0.014-0.028c0.002-0.002,0.004-0.009,0.008-0.013
			c0-0.011,0.004-0.011,0.004-0.013c0-0.001,0.004-0.006,0.004-0.006c0.002,0,0.002-0.001,0.002-0.001
			c0-0.002,0.004-0.004,0.004-0.004v-0.001c0-0.001,0-0.001,0-0.005c0.002-0.005,0.002-0.006,0.004-0.014
			c0.014-0.043,0.027-0.086,0.051-0.147c0.027-0.057,0.055-0.139,0.096-0.23c0.018-0.043,0.039-0.097,0.055-0.161
			c0.01-0.02,0.027-0.05,0.039-0.076c0.01-0.029,0.016-0.054,0.029-0.104c0.029-0.088,0.066-0.172,0.094-0.282
			c0.035-0.147,0.074-0.283,0.109-0.446c0.012-0.06,0.025-0.142,0.041-0.213c0.012-0.06,0.029-0.133,0.041-0.208
			c0.014-0.105,0.031-0.234,0.043-0.365c0.012-0.121,0.018-0.262,0.029-0.395c0-0.063,0.006-0.121,0.006-0.188
			c0-0.037,0-0.06,0-0.091c0-0.017,0-0.027,0-0.043c0-0.011,0-0.025,0-0.047c0-0.024,0-0.04,0-0.057c0-0.051,0-0.102,0-0.169
			c-0.006-0.116-0.018-0.236-0.025-0.341c-0.012-0.143-0.023-0.273-0.043-0.379c-0.01-0.089-0.021-0.161-0.041-0.244
			c-0.016-0.064-0.031-0.121-0.043-0.205c-0.031-0.111-0.061-0.252-0.102-0.389c-0.016-0.054-0.035-0.125-0.053-0.183
			c-0.027-0.051-0.047-0.114-0.063-0.174c-0.029-0.063-0.063-0.148-0.092-0.215c-0.049-0.116-0.102-0.217-0.154-0.344
			c-0.031-0.052-0.063-0.119-0.088-0.17c-0.027-0.052-0.063-0.118-0.088-0.169c-0.037-0.07-0.076-0.135-0.111-0.193
			c-0.115-0.199-0.252-0.4-0.404-0.596c-0.117-0.15-0.24-0.297-0.365-0.438c-0.234-0.234-0.469-0.465-0.736-0.69
			c-0.281-0.244-0.584-0.462-0.891-0.663c-1.068-0.681-2.58-1.388-4.561-2.166c-0.512-0.187-1.051-0.38-1.6-0.582
			c-1.527-0.558-3.24-1.108-5.207-1.71c-0.313-0.099-0.668-0.193-1.41-0.505c0-0.002-0.004-0.002-0.014-0.003
			c-0.201-0.081-0.365-0.147-0.496-0.209c-0.135-0.053-0.238-0.098-0.32-0.135c-0.021-0.008-0.029-0.021-0.041-0.029
			c-0.008-0.007-0.02-0.015-0.027-0.02c-0.008-0.004-0.018-0.013-0.033-0.017c-0.014-0.004-0.025-0.011-0.041-0.018
			c-0.021-0.015-0.043-0.029-0.066-0.041c-0.025-0.011-0.045-0.021-0.063-0.032c-0.02-0.009-0.045-0.025-0.066-0.038
			c-0.021-0.014-0.041-0.025-0.061-0.031c-0.053-0.025-0.098-0.058-0.146-0.081c-0.098-0.045-0.195-0.095-0.293-0.146
			c-0.068-0.032-0.137-0.071-0.213-0.111c-0.025-0.016-0.053-0.026-0.082-0.046c-0.023-0.023-0.049-0.039-0.074-0.056
			c-0.068-0.052-0.15-0.092-0.205-0.134c-0.041-0.027-0.09-0.058-0.146-0.098c-0.066-0.048-0.139-0.1-0.209-0.157
			c-0.027-0.021-0.055-0.041-0.082-0.064c-0.018-0.015-0.035-0.028-0.057-0.047c-0.049-0.042-0.092-0.078-0.135-0.119
			c-0.01-0.013-0.049-0.043-0.102-0.099c-0.018-0.018-0.031-0.039-0.049-0.054c-0.049-0.04-0.096-0.093-0.143-0.158
			c-0.045-0.053-0.088-0.11-0.141-0.175c-0.016-0.025-0.029-0.043-0.045-0.063c-0.023-0.026-0.041-0.049-0.059-0.066
			c-0.023-0.04-0.047-0.066-0.072-0.107c-0.023-0.021-0.039-0.041-0.057-0.068c-0.035-0.048-0.07-0.095-0.09-0.132
			c-0.061-0.079-0.115-0.169-0.172-0.26c-0.004-0.011-0.01-0.015-0.01-0.023c-0.02-0.023-0.037-0.064-0.055-0.09
			c-0.045-0.061-0.084-0.123-0.123-0.182c-0.01-0.026-0.023-0.048-0.035-0.063c-0.029-0.063-0.061-0.123-0.088-0.179
			c-0.031-0.06-0.057-0.118-0.082-0.174c-0.014-0.028-0.023-0.052-0.031-0.075c-0.004-0.023-0.01-0.04-0.016-0.061
			c-0.008-0.022-0.014-0.036-0.016-0.056c-0.008-0.017-0.008-0.027-0.014-0.037c-0.002-0.008-0.002-0.016-0.004-0.025
			c-0.002-0.011-0.004-0.017-0.006-0.022c-0.004-0.006-0.004-0.012-0.006-0.021c0-0.006-0.002-0.014-0.004-0.024
			c-0.006-0.011-0.01-0.021-0.01-0.04c-0.006-0.016-0.006-0.028-0.014-0.043c-0.008-0.031-0.012-0.06-0.016-0.092
			c-0.004-0.019-0.006-0.038-0.01-0.053c-0.002-0.016-0.006-0.026-0.008-0.039c-0.002-0.006-0.004-0.015-0.006-0.024
			c-0.002-0.017-0.006-0.035-0.012-0.054c-0.002-0.022-0.006-0.04-0.008-0.07c0-0.007-0.002-0.013-0.006-0.019
			c0-0.01,0-0.015,0-0.02c-0.004-0.002-0.004-0.012-0.004-0.016c0-0.005-0.002-0.012-0.002-0.019
			c-0.002-0.018-0.004-0.036-0.008-0.054c0-0.011-0.002-0.021-0.002-0.031c-0.004-0.022-0.006-0.049-0.006-0.069
			c-0.004-0.026-0.008-0.049-0.008-0.075c-0.008-0.026-0.012-0.055-0.014-0.082c-0.006-0.029-0.008-0.058-0.008-0.083
			c-0.006-0.033-0.008-0.065-0.008-0.099c0-0.032-0.006-0.074-0.006-0.117c-0.002-0.031-0.002-0.06-0.002-0.085
			c0-0.027,0-0.042,0-0.065c0-0.017,0-0.033,0-0.05c0-0.009,0-0.014,0-0.031c0-0.007,0-0.014,0-0.018V54.51c0,0,0-0.002,0-0.004
			c0-0.011,0-0.019,0-0.025c0-0.009,0-0.021,0.002-0.032c0-0.018,0.006-0.039,0.006-0.052c0-0.032,0.002-0.056,0.008-0.088
			c0-0.024,0.002-0.04,0.008-0.062c0.002-0.014,0.002-0.038,0.006-0.053c0.008-0.03,0.012-0.061,0.014-0.083
			c0.002-0.016,0.002-0.025,0.004-0.039s0.004-0.021,0.006-0.039c0.006-0.02,0.008-0.047,0.01-0.072
			c0.012-0.06,0.023-0.122,0.033-0.184c0.004-0.01,0.004-0.021,0.006-0.031c0.004-0.007,0.006-0.016,0.008-0.028
			c0-0.008,0.002-0.014,0.006-0.028c0-0.008,0.002-0.014,0.004-0.023c0.002-0.011,0.004-0.018,0.004-0.022
			c0.008-0.01,0.008-0.021,0.016-0.027c0-0.004,0-0.013,0-0.016c0.004-0.008,0.006-0.012,0.006-0.017
			c0.002-0.009,0.01-0.016,0.01-0.03c0.004-0.005,0.006-0.016,0.006-0.027c0.01-0.023,0.012-0.038,0.02-0.061
			c0.008-0.032,0.016-0.066,0.025-0.097c0.01-0.023,0.014-0.047,0.02-0.064c0.008-0.016,0.012-0.023,0.021-0.032
			c0.004-0.013,0.006-0.017,0.014-0.021c0.006-0.017,0.014-0.027,0.021-0.047c0.008-0.012,0.014-0.033,0.02-0.052
			c0.006-0.012,0.012-0.029,0.018-0.036c0.006-0.014,0.014-0.025,0.016-0.032c0.006-0.008,0.01-0.018,0.012-0.021
			c0.006-0.007,0.008-0.014,0.012-0.021c0.002-0.008,0.006-0.016,0.01-0.026c0.006-0.005,0.012-0.015,0.014-0.024
			c0.002-0.003,0.006-0.006,0.008-0.008c0.002-0.004,0.006-0.009,0.008-0.011c0-0.003,0-0.006,0-0.006
			c0.014-0.028,0.027-0.057,0.045-0.082c0.096-0.189,0.184-0.347,0.279-0.501c0.059-0.094,0.115-0.187,0.18-0.263
			c0.047-0.056,0.104-0.139,0.154-0.211c0.064-0.089,0.125-0.16,0.174-0.227c0.049-0.07,0.09-0.133,0.135-0.193
			c0.049-0.054,0.094-0.107,0.162-0.182c0.066-0.067,0.145-0.165,0.244-0.261c0.066-0.056,0.137-0.094,0.217-0.179
			c0.09-0.068,0.199-0.156,0.314-0.243c0.078-0.062,0.141-0.129,0.258-0.216c0.082-0.031,0.172-0.104,0.266-0.166
			c0.057-0.041,0.127-0.075,0.193-0.118c0.139-0.073,0.314-0.154,0.557-0.251c-0.023,0.047-0.031,0.064-0.037,0.075
			c-0.154,0.187-0.176,0.216-0.195,0.24c-0.068,0.084-0.1,0.12-0.135,0.181c-0.084,0.064-0.178,0.218-0.246,0.32
			c-0.02,0.025-0.043,0.054-0.068,0.097c-0.092,0.15-0.234,0.38-0.266,0.451c-0.141,0.27-0.285,0.665-0.361,0.842
			c-0.072,0.141-0.195,0.528-0.24,0.696c-0.047,0.163-0.096,0.501-0.111,0.648c-0.025,0.157-0.027,0.455-0.004,0.594
			c0.014,0.135,0.043,0.328,0.076,0.423c0.018,0.063,0.064,0.196,0.092,0.287c0.02,0.044,0.031,0.08,0.043,0.11
			c0.018,0.05,0.033,0.089,0.045,0.129c0.033,0.072,0.066,0.146,0.084,0.179c0.033,0.071,0.102,0.186,0.125,0.229
			c0.012,0.039,0.047,0.104,0.061,0.129c0.02,0.03,0.053,0.072,0.086,0.104c0.027,0.033,0.074,0.09,0.139,0.157
			c0.07,0.064,0.146,0.14,0.25,0.216c0.01,0.009,0.021,0.02,0.037,0.026c0.248,0.202,0.473,0.359,0.643,0.5
			c0.15,0.102,0.299,0.171,0.451,0.247c0.072,0.046,0.15,0.093,0.229,0.138c0.041,0.021,0.082,0.041,0.119,0.064
			c0.021,0.02,0.045,0.026,0.068,0.037c0.02,0.006,0.039,0.019,0.061,0.032c0.031,0.018,0.045,0.027,0.059,0.034
			c0.016,0.002,0.027,0.013,0.049,0.021c0.025,0.011,0.057,0.028,0.076,0.048c0.031,0.02,0.092,0.052,0.172,0.084
			c0.117,0.05,0.273,0.116,0.479,0.193c0.135,0.061,0.256,0.097,0.359,0.14c0.139,0.071,0.277,0.122,0.393,0.159
			c0.121,0.037,0.213,0.063,0.316,0.084c0.041,0.021,0.094,0.036,0.145,0.045c0.051,0.011,0.104,0.021,0.154,0.042
			c1.383,0.419,2.623,0.839,3.797,1.219c1.18,0.41,2.26,0.821,3.262,1.178c0.98,0.399,1.857,0.783,2.641,1.139
			c0.404,0.195,0.783,0.396,1.121,0.589c0.24,0.131,0.479,0.264,0.697,0.383c0.104,0.059,0.201,0.122,0.332,0.208
			c0.121,0.077,0.24,0.161,0.363,0.244c0.43,0.306,0.801,0.622,1.176,0.949c0.377,0.35,0.697,0.721,1.002,1.101
			c0.316,0.387,0.594,0.802,0.82,1.225c0.229,0.449,0.432,0.882,0.598,1.343c0.158,0.479,0.279,0.936,0.346,1.438
			c0.045,0.245,0.068,0.486,0.084,0.722c0.014,0.135,0.014,0.256,0.021,0.382c0,0.067,0.002,0.135,0.004,0.188
			c0,0.052,0,0.13,0,0.188c0,0.087-0.002,0.187-0.006,0.264c-0.02,0.65-0.104,1.259-0.23,1.886c-0.15,0.608-0.355,1.22-0.492,1.496
			c-0.277,0.636-0.514,1.1-0.896,1.697c0,0-0.924,1.142,0.158,0.161C78.392,62.313,53.187,55.352,53.187,55.352z M42.733,62.34
			c0.053,0.033,0.109,0.058,0.164,0.086c0.053,0.032,0.096,0.06,0.143,0.085c0.014,0.012,0.027,0.022,0.053,0.034
			c0.021,0.01,0.041,0.021,0.063,0.035c0.01,0.004,0.02,0.011,0.031,0.015c0.014,0.007,0.027,0.011,0.037,0.021
			c0.014,0.008,0.027,0.013,0.041,0.02c0.016,0.006,0.025,0.013,0.045,0.023c0.02,0.009,0.033,0.021,0.053,0.032
			c0.012,0.003,0.021,0.011,0.027,0.015c0.012,0.007,0.025,0.007,0.037,0.014c0.01,0.004,0.02,0.008,0.029,0.018
			c0.01,0.008,0.02,0.01,0.029,0.016c0.012,0.001,0.023,0.006,0.035,0.014c0.023,0.011,0.039,0.021,0.061,0.03
			c0.021,0.013,0.049,0.027,0.072,0.034c0.082,0.04,0.168,0.077,0.256,0.122c0.092,0.039,0.189,0.078,0.266,0.127
			c0.143,0.061,0.316,0.13,0.52,0.213c0.002,0,0.006,0.003,0.01,0.007c0.012,0.002,0.014,0.004,0.016,0.004c0,0,0.002,0,0.002,0.003
			c0.004,0,0.008,0,0.008,0.001c0.025,0.01,0.047,0.021,0.068,0.025c0.008,0.003,0.018,0.007,0.033,0.012
			c0.074,0.031,0.143,0.056,0.217,0.077c0.033,0.014,0.064,0.025,0.102,0.036c0.16,0.069,0.332,0.128,0.494,0.187
			c0.156,0.048,0.307,0.091,0.438,0.136c0.129,0.039,0.244,0.075,0.33,0.102c0.025,0.023,0.059,0.032,0.098,0.043
			c0.045,0.013,0.086,0.023,0.135,0.041c0.184,0.051,0.371,0.111,0.555,0.165c0.098,0.04,0.186,0.062,0.275,0.093
			c0.195,0.066,0.42,0.14,0.646,0.21c0.109,0.037,0.219,0.066,0.326,0.097c1.061,0.322,2.029,0.668,2.91,0.989
			c0.881,0.309,1.711,0.611,2.408,0.912c0.709,0.299,1.338,0.559,1.848,0.812c0.264,0.139,0.506,0.252,0.721,0.372
			c0.096,0.05,0.182,0.107,0.244,0.143c0.02,0.008,0.037,0.018,0.061,0.032c0.047,0.029,0.113,0.079,0.166,0.115
			c0.051,0.028,0.105,0.063,0.166,0.095c0.205,0.145,0.389,0.286,0.535,0.428c0.154,0.129,0.264,0.258,0.352,0.394
			c0.088,0.119,0.162,0.228,0.223,0.348c0.07,0.095,0.111,0.213,0.16,0.315c0.035,0.116,0.063,0.254,0.09,0.383
			c0.012,0.073,0.02,0.138,0.027,0.222c0.002,0.039,0.004,0.072,0.004,0.108c0,0.017,0.002,0.032,0.002,0.06
			c0,0.005,0,0.021,0,0.047c0,0.004,0,0.013,0,0.022c0,0.113-0.006,0.236-0.016,0.354c-0.008,0.057-0.016,0.112-0.025,0.168
			c-0.035,0.198-0.074,0.381-0.146,0.557c-0.061,0.188-0.141,0.37-0.217,0.581c-0.066,0.215-0.254,0.526-0.367,0.697
			c-0.111,0.173-0.359,0.456-0.561,0.678c-0.053,0.059-0.141,0.15-0.225,0.226c-0.168,0.182-0.383,0.371-0.621,0.563
			c-0.025,0.014-0.047,0.037-0.121,0.092c-0.084,0.062-0.24,0.187-0.389,0.283c-0.004,0.004-0.01,0.007-0.063,0.049
			c-0.031,0.018-0.086,0.059-0.129,0.095c-0.053,0.024-0.096,0.05-0.141,0.083c-0.076,0.035-0.156,0.078-0.248,0.121
			c-0.029,0.011-0.061,0.032-0.094,0.043c-0.047,0.019-0.1,0.041-0.148,0.066c-0.068,0.027-0.143,0.06-0.24,0.095
			c-0.031,0.018-0.061,0.028-0.098,0.041c-0.051,0.021-0.117,0.047-0.213,0.08c-0.02,0.008-0.037,0.01-0.057,0.016
			c-0.064,0.027-0.141,0.046-0.238,0.074c-0.027,0.015-0.061,0.027-0.098,0.034c-0.061,0.02-0.133,0.041-0.209,0.06
			c-0.031,0.015-0.059,0.02-0.098,0.028c-0.025,0.003-0.053,0.015-0.102,0.025c-0.021,0.007-0.043,0.011-0.068,0.018
			c-0.061,0.014-0.119,0.036-0.205,0.062c-0.021,0.006-0.051,0.012-0.082,0.021c-0.092,0.031-0.199,0.059-0.33,0.082
			c-0.049,0.007-0.088,0.018-0.158,0.037c-0.016,0.004-0.037,0.006-0.066,0.011c-0.055,0.013-0.127,0.031-0.221,0.047
			c-0.055,0.016-0.111,0.026-0.133,0.028c-0.012,0-0.012,0-0.012,0c-0.115,0.017-0.27,0.034-0.387,0.049
			c-0.135,0.026-0.211,0.031-0.277,0.035c-0.043,0.004-0.082,0.008-0.115,0.012c-0.117,0.014-0.229,0.022-0.318,0.031
			c-0.076,0.006-0.121,0.011-0.164,0.021c-0.092,0.011-0.168,0.017-0.229,0.018c-0.078,0.006-0.102,0.008-0.125,0.008
			c-0.211,0.013-0.234,0.013-0.252,0.013c-0.119,0-0.293,0-0.473-0.004c-0.018,0-0.041-0.001-0.088-0.001
			c-0.082,0-0.164-0.005-0.244-0.008c-0.088,0-0.17-0.003-0.254-0.008c-0.225-0.007-0.441-0.024-0.609-0.039
			c-0.16-0.016-0.324-0.031-0.479-0.046c-0.023-0.001-0.043-0.004-0.061-0.004c-0.193-0.028-0.385-0.051-0.58-0.075
			c-0.006-0.002-0.006-0.004-0.006-0.004c-0.23-0.041-0.467-0.08-0.699-0.125c-0.357-0.075-0.676-0.158-1.029-0.247
			c-0.037-0.011-0.072-0.02-0.115-0.035c-0.412-0.117-0.791-0.236-1.188-0.384c-0.244-0.088-0.443-0.183-0.676-0.277
			c-0.014,0-0.02-0.002-0.025-0.006c-0.223-0.097-0.436-0.197-0.65-0.312c-0.139-0.071-0.254-0.146-0.404-0.235
			c-0.115-0.06-0.23-0.118-0.346-0.19c-0.373-0.206-0.699-0.434-1.045-0.696C41.388,73.231,33.519,67.781,42.733,62.34z
			 M40.585,34.836c0-5.447,3.395-9.858,7.568-9.858c4.172,0,7.566,4.411,7.566,9.858c0,5.445-3.395,9.85-7.566,9.85
			C43.979,44.686,40.585,40.281,40.585,34.836z"/>
		<path fill="#FFFFFF" d="M37.919,23.384c-1.346,0.657-2.576,1.443-3.656,2.346c-0.93-1.233-1.016-1.314-1.107-1.398
			c-1.176-1.128-2.633-1.806-4.219-1.775c-0.982,0.024-2.178,0.364-3.553,1.022c-1.34,0.735-2.297,1.104-2.865,1.115
			c-0.25,0.002-1.357-0.321-2.086-2.063c-0.527-1.256-0.828-1.504-1.143-1.499c-0.088,0.001-0.221,0.037-0.334,0.163
			c-0.291,0.316-0.271,1.307-0.229,1.875c0.447,3.402,1.771,5.103,3.947,5.053c1.004-0.018,2.277-0.445,3.797-1.279
			c1.342-0.771,2.383-1.164,3.094-1.181c1.133-0.025,2.047,0.348,3.02,1.637c-0.596-0.15-1.137-0.203-1.842-0.198
			c-0.631,0.034-1.393,0.269-3.006,1.5c-1.186,0.796-2.359,1.216-3.486,1.241c-0.791,0.017-1.48-0.166-2.047-0.55
			c-0.256-0.163-0.607-0.353-0.854-0.343c-0.164,0.004-0.307,0.09-0.371,0.231c-0.123,0.238-0.006,0.525,0.439,1.126
			c1.141,1.479,2.604,2.267,4.244,2.228c1.117-0.028,2.406-0.603,3.949-1.765c0.324-0.264,0.645-0.42,0.986-0.509
			c-2.775,5.967-0.244,11.896,6.496,15.489c0,0,1.637,0.991,0.473-0.452c-0.381-0.519-0.744-1.095-1.078-1.656
			c-0.605-1.104-1.104-2.27-1.461-3.472c-0.357-1.209-0.602-2.45-0.727-3.701c-0.115-1.25-0.105-2.519,0.039-3.756
			c0.133-1.249,0.395-2.48,0.764-3.678c0.387-1.193,0.9-2.353,1.525-3.448c0.432-0.721,0.883-1.403,1.43-2.055
			C38.06,23.633,38.456,23.116,37.919,23.384z"/>
		<path fill="#FFFFFF" d="M58.425,23.4c1.332,0.654,2.551,1.434,3.623,2.329c0.922-1.233,1.012-1.314,1.102-1.398
			c1.178-1.128,2.639-1.806,4.221-1.775c0.988,0.024,2.176,0.364,3.557,1.022c1.338,0.735,2.291,1.104,2.861,1.115
			c0.254,0.002,1.357-0.321,2.09-2.063c0.52-1.256,0.822-1.504,1.139-1.499c0.088,0.001,0.221,0.037,0.336,0.163
			c0.291,0.316,0.27,1.307,0.229,1.875c-0.447,3.402-1.777,5.103-3.949,5.053c-1.004-0.018-2.273-0.445-3.795-1.279
			c-1.336-0.771-2.381-1.164-3.096-1.181c-1.133-0.025-2.047,0.348-3.018,1.637c0.59-0.15,1.135-0.203,1.848-0.198
			c0.621,0.034,1.385,0.269,3.002,1.5c1.184,0.796,2.359,1.216,3.482,1.241c0.787,0.017,1.482-0.166,2.047-0.55
			c0.254-0.163,0.607-0.353,0.855-0.343c0.164,0.004,0.301,0.09,0.375,0.231c0.121,0.238,0.004,0.525-0.443,1.126
			c-1.139,1.479-2.605,2.267-4.248,2.228c-1.113-0.028-2.402-0.603-3.945-1.765c-0.322-0.264-0.646-0.42-0.99-0.509
			c2.783,5.979,0.234,11.92-6.535,15.511c0,0-1.588,0.991-0.432-0.474c0,0,0.746-1.095,1.084-1.656
			c0.598-1.104,1.1-2.27,1.457-3.472c0.357-1.209,0.602-2.45,0.721-3.701c0.115-1.25,0.105-2.519-0.027-3.756
			c-0.137-1.249-0.404-2.48-0.77-3.678c-0.387-1.193-0.902-2.353-1.525-3.448c-0.43-0.721-0.885-1.403-1.43-2.055
			C58.249,23.633,57.853,23.128,58.425,23.4z"/>
	</g>
</g>
</svg>
